<svg width="194" height="252" viewBox="0 0 194 252" fill="none" xmlns="http://www.w3.org/2000/svg">
<g clip-path="url(#clip0_79_298)">
<path d="M91.2271 163.913V75.8253L85.5254 76.4208C82.3895 76.7484 79.593 77.2686 79.3109 77.5769C79.0289 77.8853 77.5642 81.1833 76.0561 84.9059C70.3645 98.9548 67.8722 102.537 47.8164 125.498C31.8507 143.777 21.5924 160.864 15.0612 180.059C13.7103 184.029 12.4058 187.847 12.1622 188.543C11.8973 189.3 10.3551 186.92 8.32522 182.621C4.3146 174.127 4.34273 171.337 8.52337 162.965C15.263 149.467 21.1205 141.239 37.5123 122.24C47.394 110.788 56.3293 99.2001 59.551 93.66C60.0156 92.8612 61.4164 90.539 62.6638 88.4997C63.9113 86.4605 65.1926 83.7518 65.5111 82.4805C66.0621 80.2816 65.9723 80.1978 63.6654 80.7583C56.5734 82.4815 36.8519 92.6647 28.0436 99.1516C21.7949 103.754 7.3423 115.483 3.58996 118.997C1.61548 120.846 0 121.91 0 121.361C0 120.812 0.960587 116.573 2.13463 111.941C4.13271 104.058 4.53167 103.271 8.37206 99.6445C14.2977 94.0487 24.2645 87.6427 35.8897 81.958C46.3346 76.8504 60.0186 71.4024 64.8167 70.4412C68.274 69.7487 69.2277 68.5714 68.6735 65.6799C67.7113 60.6603 62.0732 57.3879 54.4829 57.4436C52.6245 57.4572 48.0632 58.0187 44.3465 58.6913C40.6299 59.3639 37.4066 59.9217 37.1838 59.9309C36.9609 59.94 40.7543 57.4728 45.6136 54.4482C53.4579 49.5655 54.924 48.951 58.6892 48.9675C66.3726 49.0012 74.1324 54.2419 77.3651 61.5805L78.8818 65.0238H85.0545H91.2271V48.9674V32.9109L86.022 36.2805C83.1592 38.1338 80.6629 39.4959 80.4747 39.3073C80.1766 39.0088 82.9175 32.0694 87.8609 20.6064C88.6636 18.7451 90.9536 13.1006 92.9497 8.06314C95.6593 1.22482 96.7685 -0.756583 97.3272 0.243299C98.2847 1.95704 111.924 35.2038 112.718 37.7602L113.317 39.6852L110.085 37.8726C108.308 36.8757 105.809 35.3173 104.531 34.4095L102.208 32.7588V48.8913V65.0238H108.468H114.728L116.669 61.0075C120.302 53.4904 127.121 49.0002 134.953 48.9675C138.572 48.9524 140.225 49.4764 143.822 51.7802C146.254 53.3375 150.145 55.8253 152.468 57.3088C155.413 59.1898 156.052 59.876 154.579 59.5763C142.329 57.0829 137.999 56.9047 132.123 58.6525C127.592 60.0003 125.015 63.0356 125.015 67.0252C125.015 68.8721 125.602 69.3654 129.027 70.3981C145.911 75.4883 163.967 83.9994 176.942 92.9833C188.438 100.943 189.28 102.236 192.769 117.291L194 122.603L191.395 120.267C189.962 118.982 187.079 116.355 184.988 114.43C178.507 108.46 154.986 91.2512 153.308 91.2512C153.06 91.2512 151.438 90.3654 149.706 89.2827C146.12 87.0425 133.361 81.5565 129.872 80.7544C126.661 80.0162 126.856 81.3041 131.024 88.3435C138.265 100.575 145.768 110.728 155.637 121.652C163.168 129.989 174.357 144.068 177.074 148.628C182.278 157.361 186.577 165.735 187.86 169.64L189.293 173.999L185.595 181.907L181.897 189.816L180.57 185.585C177.327 175.249 174.185 168.023 166.782 153.874C163.667 147.919 155.399 136.916 142.272 121.255C134.871 112.426 127.981 104.009 126.96 102.551C124.603 99.1855 118.094 86.1528 116.14 80.8872C115.008 77.837 114.219 76.8667 112.863 76.8611C111.881 76.8569 109.082 76.6137 106.643 76.3202L102.208 75.7867V163.893V252H96.7176H91.2271V163.913Z" fill="url(#paint0_linear_79_298)"/>
</g>
<defs>
<linearGradient id="paint0_linear_79_298" x1="97" y1="0" x2="97" y2="252" gradientUnits="userSpaceOnUse">
<stop offset="0.255208" stop-color="#E74416"/>
<stop offset="1" stop-color="#EF7703"/>
</linearGradient>
<clipPath id="clip0_79_298">
<rect width="194" height="252" fill="white"/>
</clipPath>
</defs>
</svg>
