<svg width="100" height="100" viewBox="0 0 100 100" fill="none" xmlns="http://www.w3.org/2000/svg">
<path d="M51.4552 24.2427C51.3563 23.6406 51.524 23.0072 51.9896 22.5979C49.0344 23.3926 46.0728 24.1803 43.1176 24.975C42.1864 32.6459 39.1875 39.8387 35.5803 46.6158C34.7053 48.2656 33.7864 49.8979 32.8613 51.5176C32.3771 52.3624 31.8864 53.2 31.4021 54.0376C31.2907 54.2302 31.1781 54.4168 31.0667 54.6083C31.0229 54.6832 30.9803 54.7574 30.9365 54.8387C30.9115 54.876 30.8928 54.9126 30.8677 54.9499C30.7563 55.0678 30.7813 55.1054 30.9552 55.0678C31.1781 55.1238 31.4824 55.0739 31.7125 55.0803C32.0165 55.0864 32.3208 55.0864 32.6251 55.0928C36.9272 55.1302 41.224 55.0491 45.5197 54.8635C50.3844 54.6472 55.2414 54.2849 60.0843 53.7771C60.5072 53.7334 60.9979 53.5595 61.3947 53.4606C62.4437 53.1939 63.4939 52.9147 64.5365 52.6355C65.5792 52.3563 66.628 52.0771 67.672 51.7792C68.0749 51.6667 68.5467 51.4438 68.9627 51.4C60.3459 52.2939 51.6843 52.7467 43.0176 52.7219C42.5147 52.7219 42.0061 52.7158 41.5029 52.7158C41.2491 52.7158 41 52.7094 40.7456 52.7094C40.5029 52.7094 40.0688 52.7782 39.8333 52.6968H39.6843C39.7269 52.623 39.7709 52.548 39.8147 52.4675C39.8584 52.3928 39.9011 52.3187 39.9448 52.2376C40.0563 52.0456 40.1688 51.8595 40.2803 51.6667C40.5219 51.251 40.7709 50.8294 41.0125 50.4072C41.9688 48.7563 42.9187 47.099 43.8312 45.4179C45.6499 42.0854 47.3387 38.672 48.7291 35.1344C50.3125 31.1 51.4803 26.9051 52.0011 22.5979C52.0011 22.6104 50.4928 22.9646 50.6917 22.9147C49.6427 23.1814 48.5928 23.4606 47.5501 23.7395C46.5075 24.0187 45.4584 24.299 44.4147 24.5968C44.1853 24.6582 43.9552 24.7272 43.7261 24.7886C43.5218 24.8383 43.3207 24.9006 43.124 24.9752C42.6584 25.3843 42.4907 26.0179 42.5896 26.6198C42.5896 26.6136 46.7061 25.5646 47.0405 25.4782C48.0843 25.1982 49.1333 24.9187 50.176 24.6208C50.3 24.5843 51.4677 24.2864 51.4552 24.2427Z" fill="#DE9E36"/>
<path d="M53.6968 31.1627C52.9451 37.1801 52.1629 43.1937 51.3501 49.2032C50.5376 55.1865 49.691 61.1651 48.8104 67.1387C48.3136 70.5269 47.8046 73.9133 47.2835 77.2979C47.2835 77.2792 48.7853 76.9312 48.5928 76.9814C49.6427 76.7147 50.6915 76.4355 51.7341 76.1563C52.7771 75.8771 53.8272 75.5979 54.8699 75.3C55.0312 75.2563 56.1427 75.0262 56.1613 74.9208C57.0803 68.9262 57.9677 62.9315 58.8251 56.924C59.6764 50.944 60.4938 44.9592 61.2771 38.9699C61.7242 35.5725 62.1586 32.1735 62.5803 28.7728C62.5803 28.7854 61.0781 29.1395 61.2709 29.0896C60.2219 29.3563 59.172 29.6355 58.1291 29.9147C57.0864 30.1939 56.0365 30.4739 54.9939 30.772C54.8323 30.8272 53.7085 31.0576 53.6968 31.1627Z" fill="#DE9E36"/>
<mask id="mask0_196_235" style="mask-type:luminance" maskUnits="userSpaceOnUse" x="7" y="3" width="86" height="94">
<path d="M7.73334 3.68848H92.2667V96.2666H7.73334V3.68848Z" fill="white"/>
</mask>
<g mask="url(#mask0_196_235)">
<path d="M49.9405 6.42507C48.0093 6.95947 46.1093 7.53014 44.2344 8.2376C41.5968 9.23741 39.0239 10.4 36.5304 11.7187C33.1032 13.5251 29.8187 15.6165 26.7645 17.9989C23.2323 20.7616 20.0032 23.9261 17.272 27.4824C14.2229 31.4541 11.8208 35.8979 10.2312 40.6448C9.38134 43.1835 8.78427 45.7771 8.38747 48.4208C7.8168 52.2075 7.61147 56.0552 7.82294 59.872C8.09574 64.7928 9.07707 69.696 10.9885 74.2448C12.8824 78.7499 15.7072 82.8957 19.3085 86.2093C21.6613 88.376 24.3365 90.2125 27.1491 91.7272C31.8365 94.2531 37.0333 95.8355 42.3595 96.1208C45.4885 96.2885 48.6301 96.0093 51.6843 95.3136C53.9696 94.7989 56.2355 94.1595 58.5021 93.5509C60.0541 93.1291 61.6125 92.7261 63.1459 92.2291C64.4613 91.8011 65.7592 91.2989 67.0136 90.7219C71.3344 88.7229 75.1957 85.8251 78.4928 82.4053C80.628 80.1957 82.5032 77.7635 84.2104 75.2125C87.6068 70.138 89.964 64.4407 91.1459 58.4499C92.4 52.0832 92.3251 45.4552 90.8291 39.1376C89.4323 33.2229 86.8061 27.6123 83.0989 22.7907C80.1136 18.8989 76.4501 15.5541 72.3835 12.824C69.0688 10.6083 65.5053 8.77707 61.7979 7.3312C59.5323 6.44374 57.2104 5.70534 54.8512 5.0968C52.3301 4.44587 49.7728 3.98027 47.1832 3.71974C46.8667 3.68854 46.0968 3.98027 45.8739 4.03547C44.8251 4.3032 43.7752 4.58214 42.7325 4.86134C41.6896 5.14054 40.6405 5.41974 39.5968 5.7176C39.3675 5.78027 39.1376 5.848 38.9083 5.9104C38.7039 5.95968 38.5028 6.02157 38.3061 6.09574C41.5531 6.41867 44.7501 7.0832 47.8792 7.9896C50.2971 8.69059 52.6673 9.54658 54.9752 10.5523C58.1853 11.9491 61.2645 13.6429 64.1387 15.6405C67.5531 18.0176 70.6699 20.8229 73.3147 24.0376C76.4373 27.8301 78.8781 32.1552 80.5416 36.7789C82.4291 42.0291 83.2917 47.6269 83.124 53.2C82.9603 58.6209 81.853 63.9718 79.852 69.0125C78.4061 72.6499 76.4749 76.0448 74.2093 79.228C72.4707 81.6728 70.5208 83.9699 68.3541 86.0416C65.3803 88.8907 61.9843 91.3115 58.2405 93.0552C57.2298 93.5269 56.1958 93.9472 55.1427 94.3147C55.1928 94.296 55.2491 94.2773 55.2979 94.2595C55.0187 94.3581 54.7333 94.4509 54.4541 94.5448C54.2928 94.5939 54.1251 94.6437 53.9635 94.7C53.7771 94.7552 53.7957 94.7491 54.0376 94.6813C52.8083 95.0344 53.876 94.7491 57.2355 93.8251C60.6061 92.9437 61.6739 92.6571 60.4323 92.9677C60.6688 92.9125 60.6875 92.9064 60.4947 92.9491C60.3459 92.9864 60.1907 93.0176 60.0416 93.0552C59.7125 93.1291 59.3832 93.1917 59.048 93.2595C59.104 93.2469 59.1531 93.2408 59.2093 93.2291C53.1312 94.3584 46.8613 93.7688 41.0627 91.6333C37.0272 90.1509 33.2333 87.9843 29.8813 85.2979C26.7395 82.7781 24.0824 79.6749 22.0333 76.2115C19.2893 71.5821 17.6875 66.3563 17.0053 61.0323C16.4584 56.7312 16.4896 52.3624 16.9867 48.0616C17.2656 45.6595 17.6749 43.2645 18.3021 40.924C19.6739 35.7917 21.9781 30.9323 25.0448 26.5947C27.7885 22.728 31.0981 19.2968 34.7667 16.3176C37.9333 13.748 41.3605 11.5083 44.9491 9.58427C47.5749 8.17494 50.2939 6.92827 53.0877 5.8728C53.548 5.69894 54.0136 5.53147 54.4792 5.36347C54.4291 5.38214 54.3728 5.4008 54.324 5.41974C54.7892 5.25813 55.2567 5.10292 55.7261 4.95414C55.876 4.90534 56.0312 4.86134 56.1803 4.8176C56.2789 4.7864 55.5835 4.99174 55.9 4.89894C56.1427 4.83014 56.4344 4.75014 55.2792 5.072C55.6459 4.9728 54.1251 5.38854 54.4419 5.30214C55.0939 5.12187 55.8387 4.9792 56.472 4.73147C56.9928 4.52614 55.8072 4.86747 56.0125 4.8176C53.9824 5.3208 51.9584 5.86667 49.9405 6.42507Z" fill="#DE9E36"/>
</g>
</svg>
