<svg width="100" height="100" viewBox="0 0 100 100" fill="none" xmlns="http://www.w3.org/2000/svg">
<path d="M46.6405 39.7C46.3584 34.8072 48.0272 29.62 51.4512 26.0467C52.3896 25.0707 53.4939 24.2491 54.7699 23.776C54.7208 23.7947 54.6659 23.8125 54.6165 23.8312C57.7208 22.7448 44.0147 26.4771 47.0147 25.8635C46.9595 25.8749 46.9107 25.8813 46.8552 25.8939C48.5 25.5864 50.3344 25.9491 51.5125 27.2011C52.8437 28.6197 53.0157 30.7563 53.2605 32.5917C53.8312 36.9376 54.0947 41.3395 53.8061 45.7229C53.2979 53.452 50.9168 61.1499 45.8 67.0864C43.2355 70.0584 39.9656 72.5928 36.248 73.9312C36.2968 73.9136 36.352 73.8947 36.4011 73.876C36.272 73.9187 36.1437 73.9624 36.0144 74.0053C38.5728 73.3176 41.1251 72.6365 43.6832 71.9491C43.5979 71.9667 43.5053 71.9853 43.4197 72.0043C43.4749 71.9917 43.5237 71.9856 43.5792 71.9728C42.2728 72.2 40.9291 72.072 39.8187 71.2917C38.9467 70.6843 38.3395 69.7813 37.9227 68.8176C37.4688 67.7739 37.2229 66.6509 37.0947 65.5208C36.9469 64.2499 36.8552 62.8624 37.1864 61.6168C37.5115 60.4072 38.352 59.5115 39.5176 59.0875C39.4688 59.1061 39.4136 59.124 39.3645 59.1427C39.4072 59.1301 39.4499 59.1125 39.4939 59.1C40.1437 58.8907 39.5427 59.0627 37.7019 59.6032C35.7019 60.1312 33.7019 60.6656 31.6957 61.1925C31.1491 61.3344 31.4864 61.2427 31.6032 61.224C31.548 61.2365 31.4992 61.2427 31.4437 61.2541C32.5667 61.0584 33.7387 61.2176 34.7877 61.6531C35.9717 62.1509 36.9405 63.0469 37.7509 64.0165C38.6709 65.1157 39.4197 66.3499 40.1864 67.5595C40.9531 68.7624 41.7635 69.9229 42.7083 70.9843C44.5552 73.0595 46.8312 74.8157 49.4509 75.7853C50.6896 76.2459 51.9907 76.528 53.3096 76.5709C55.2115 76.6387 57.0093 76.1416 58.8376 75.6624C60.9789 75.1043 63.1197 74.5397 65.2429 73.9251C65.715 73.7924 66.1816 73.6409 66.6416 73.4709C67.3057 73.2206 67.943 72.9041 68.5437 72.5261C69.7459 71.7709 70.776 70.7635 71.5312 69.5541C71.4021 69.5792 71.2739 69.6032 71.1509 69.6405C70.8437 69.7136 70.5437 69.7875 70.2427 69.8677C69.2061 70.1328 68.1715 70.405 67.1387 70.6843C66.1072 70.9605 65.0709 71.2363 64.0405 71.5312C63.8136 71.5925 63.5864 71.6605 63.3595 71.7219C63.1563 71.7709 62.9605 71.8323 62.7635 71.9053C61.5552 73.8208 59.6907 75.1781 57.5741 75.9272C57.6229 75.9085 57.6781 75.8896 57.7272 75.872C54.2605 77.0624 68.2979 73.3115 64.5312 74.048C64.5864 74.0355 64.6352 74.0301 64.6907 74.0176C60.4635 74.7968 56.3467 73.1395 53.1989 70.352C51.5301 68.8792 50.1813 67.1291 48.9843 65.2509C47.8061 63.4029 46.6656 61.4387 44.8979 60.0824C43.4563 58.9709 41.5917 58.572 39.8251 58.9709C38.3584 59.2957 36.9043 59.7136 35.4563 60.1061C33.9896 60.4989 32.5115 60.8677 31.0635 61.3219C30.6469 61.4573 30.2355 61.6168 29.8667 61.8624C29.0699 62.3957 28.5728 63.2187 28.3584 64.1459C28.1125 65.2147 28.1677 66.3624 28.2656 67.4491C28.352 68.4125 28.524 69.376 28.8176 70.3032C29.3584 71.9917 30.4072 73.6301 32.1739 74.2019C33.7939 74.7291 35.4813 74.1771 37.0573 73.7656C39.0459 73.2501 41.0333 72.7219 43.0083 72.1635C43.6043 71.9981 44.1989 71.8387 44.7824 71.6355C45.3344 71.4448 45.8677 71.224 46.3957 70.9843C48.2853 70.1136 50.0395 68.9709 51.6229 67.6269C54.8376 64.9011 57.3405 61.3957 59.1197 57.5896C61.1749 53.1939 62.2051 48.3875 62.5427 43.5613C62.7272 40.9533 62.7083 38.3312 62.5491 35.7168C62.3957 33.1875 62.1688 30.6208 61.7032 28.1344C61.4939 27.0355 61.1688 25.9187 60.4509 25.0405C59.8251 24.2728 58.9291 23.776 57.9728 23.5491C56.6043 23.2355 55.328 23.5613 53.9968 23.9053C52.0395 24.4083 50.0821 24.9365 48.1312 25.4699C47.4387 25.6605 46.7323 25.8387 46.052 26.0781C45.5167 26.2682 45.0042 26.5173 44.524 26.8208C42.5979 28.0427 41.1499 29.9947 40.076 31.9781C38.9656 34.028 38.248 36.2875 37.9595 38.5957C37.8186 39.7338 37.7816 40.8824 37.8491 42.0272C37.8491 42.0333 39.3459 41.6584 39.1437 41.7147C40.1803 41.4499 41.2176 41.1739 42.2477 40.8979C43.2792 40.6208 44.3157 40.3448 45.3459 40.0499C45.5061 40.0323 46.6469 39.7613 46.6405 39.7Z" fill="#DE9E36"/>
<mask id="mask0_196_228" style="mask-type:luminance" maskUnits="userSpaceOnUse" x="8" y="4" width="84" height="92">
<path d="M8.11253 4.26672H91.7333V95.7334H8.11253V4.26672Z" fill="white"/>
</mask>
<g mask="url(#mask0_196_228)">
<path d="M49.948 6.94918C48.0395 7.47718 46.1624 8.04171 44.3093 8.74171C41.7029 9.73124 39.1602 10.8814 36.696 12.1854C33.3093 13.9721 30.0635 16.0406 27.0448 18.398C23.5541 21.1302 20.3635 24.2606 17.6645 27.7782C14.652 31.7073 12.2781 36.1033 10.7072 40.799C9.86667 43.3105 9.27707 45.8764 8.88427 48.4918C8.32081 52.2366 8.11761 56.0428 8.32694 59.8177C8.59681 64.6865 9.56561 69.5366 11.4552 74.0356C13.3272 78.4929 16.1187 82.594 19.6771 85.8721C22.0021 88.0148 24.6459 89.8313 27.4251 91.3292C32.0571 93.8281 37.1928 95.394 42.4563 95.6761C45.5491 95.8417 48.6531 95.5657 51.672 94.8783C53.9291 94.3689 56.1688 93.7366 58.4083 93.1342C59.9416 92.7169 61.4813 92.3177 62.9968 91.8273C64.299 91.4046 65.5754 90.9065 66.8197 90.3356C71.0896 88.3585 74.9051 85.4919 78.1637 82.1084C80.2739 79.9231 82.1272 77.5167 83.8136 74.9937C87.1703 69.9734 89.4994 64.3379 90.6667 58.4126C91.9061 52.114 91.8323 45.5577 90.3541 39.3076C88.9739 33.4577 86.3781 27.9076 82.7157 23.138C79.7645 19.2889 76.1448 15.9796 72.1261 13.2785C68.8499 11.0868 65.328 9.27638 61.6656 7.84518C59.4261 6.96785 57.1323 6.23691 54.8011 5.63585C52.3093 4.99105 49.7824 4.53051 47.224 4.27238C46.9104 4.24198 46.1499 4.53051 45.9291 4.58571C44.8927 4.85136 43.858 5.12363 42.8251 5.40251C41.7939 5.67851 40.7573 5.95451 39.7261 6.24945C39.4989 6.31078 39.2728 6.37851 39.0459 6.43985C38.8427 6.48891 38.6469 6.55051 38.4501 6.62438C41.6595 6.94305 44.8187 7.60038 47.9104 8.49638C50.3 9.18979 52.6424 10.0366 54.9229 11.0316C58.0947 12.4129 61.1387 14.0889 63.9789 16.0662C67.3531 18.4172 70.4333 21.1921 73.0469 24.3724C76.1323 28.1222 78.5437 32.4014 80.1875 36.9753C82.0531 42.1692 82.9061 47.7065 82.7405 53.219C82.5803 58.566 81.4824 63.8889 79.5072 68.8609C78.0771 72.4588 76.1699 75.8172 73.9301 78.966C72.2125 81.3847 70.2853 83.6556 68.1448 85.7065C65.2061 88.5244 61.8499 90.918 58.1501 92.6431C57.1501 93.1097 56.1261 93.5276 55.0885 93.89C55.1376 93.8713 55.1925 93.8527 55.2427 93.8348C54.9667 93.9327 54.6843 94.0254 54.4083 94.1169C54.248 94.166 54.0824 94.2151 53.9229 94.2703C53.7395 94.3255 53.7573 94.3191 53.9968 94.2524C52.7824 94.6015 53.8376 94.319 57.1563 93.4044C60.4875 92.5326 61.5429 92.2505 60.3157 92.5577C60.5491 92.5025 60.5677 92.4964 60.3771 92.5391C60.2304 92.5764 60.0771 92.6065 59.9291 92.6431C59.6043 92.7169 59.2792 92.7785 58.9477 92.8463C59.0032 92.8337 59.052 92.8276 59.1072 92.8151C53.1011 93.9327 46.9043 93.3495 41.1739 91.238C37.1864 89.7703 33.4376 87.6284 30.1251 84.9703C27.0211 82.4775 24.3947 79.4076 22.3699 75.9828C19.6584 71.4025 18.0749 66.2337 17.4 60.966C16.8605 56.7118 16.8917 52.39 17.3824 48.1359C17.6584 45.7599 18.0635 43.39 18.6824 41.0764C20.0387 35.9993 22.3144 31.1921 25.3459 26.9014C28.0573 23.0764 31.3272 19.6817 34.9531 16.7348C38.0824 14.1932 41.4688 11.9774 45.0144 10.0742C47.6104 8.68065 50.2971 7.44625 53.0584 6.40225C53.515 6.23084 53.973 6.06319 54.4323 5.89931C54.3832 5.91798 54.3283 5.93665 54.2792 5.95451C54.7395 5.79505 55.1992 5.64198 55.6659 5.49425C55.8125 5.44518 55.9667 5.40251 56.1136 5.35985C56.2115 5.32838 55.524 5.53158 55.8376 5.43905C56.0771 5.37131 56.3645 5.29211 55.224 5.61078C54.9481 5.6873 54.672 5.76303 54.3957 5.83798C55.0395 5.65985 55.776 5.51905 56.4021 5.27318C56.9168 5.07131 55.7459 5.40865 55.948 5.35985C53.9416 5.85665 51.9416 6.39718 49.948 6.94918Z" fill="#DE9E36"/>
</g>
</svg>
