<svg width="100" height="100" viewBox="0 0 100 100" fill="none" xmlns="http://www.w3.org/2000/svg">
<path d="M47.7136 28.3459C48.7864 25.9032 50.9072 23.8957 53.4187 23.0115C53.3688 23.0301 53.3115 23.0488 53.2613 23.0688C53.3749 23.0301 53.4824 22.9928 53.5957 22.9613C50.8244 23.7746 48.0341 24.5217 45.2272 25.2021C45.2395 25.2021 45.2531 25.1957 45.2656 25.1957C45.3405 25.1835 45.4229 25.1645 45.4989 25.1459C45.4416 25.1584 45.3917 25.1645 45.3344 25.1771C47.9093 24.6971 50.7301 25.1645 52.8885 26.6853C55.1229 28.2584 56.3157 30.8907 56.7259 33.5227C57.1291 36.1491 56.8395 38.9395 55.6781 41.3448C54.6176 43.5427 52.8824 45.348 50.8947 46.7301C49.2917 47.8416 47.5053 48.7125 45.6688 49.3624C45.7197 49.3437 45.776 49.3251 45.8272 49.3064C45.6499 49.3699 45.4677 49.4261 45.2907 49.4832L45.1584 49.5208C47.595 48.811 50.0462 48.1522 52.5104 47.5448C52.9957 47.4248 52.5728 47.5261 52.4843 47.5448L52.024 47.6395C52.0813 47.6272 52.1312 47.6208 52.1885 47.6083C51.6908 47.7028 51.1898 47.7785 50.6864 47.8355C50.6355 47.8541 50.5792 47.8728 50.528 47.8915C50.6355 47.8541 50.7365 47.8229 50.8437 47.7843C50.9072 47.7656 51.2989 47.652 50.9637 47.7469C48.0928 48.5613 40.4187 50.348 43.9272 49.6656C43.8709 49.6789 43.8197 49.6853 43.7635 49.6979C46.6408 49.1613 49.8408 49.4259 52.5168 50.6573C55.4509 52.0083 57.4197 54.5907 58.3032 57.652C58.8347 59.5112 59.0335 61.4497 58.8907 63.3781C58.7011 65.8093 57.8176 68.2147 56.5739 70.2917C54.8635 73.1509 52.3083 75.5312 49.1333 76.6491C49.1843 76.6304 49.2405 76.6115 49.2917 76.5917C49.1904 76.6237 49.0957 76.6613 48.9947 76.6928C47.6187 77.1355 45.928 77.5261 52.7875 75.6832C59.7104 73.8272 57.9813 74.3573 56.5741 74.6605C56.4667 74.6853 56.3656 74.7043 56.2584 74.7229C56.3157 74.7104 56.3656 74.7043 56.4229 74.6917C50.9072 75.6957 45.4229 72.7605 42.5771 68.0437C41.7187 66.6229 41.1061 65.0709 40.7405 63.4544C40.7344 63.4291 36.5563 64.5272 36.2157 64.6157C35.8813 64.7043 31.6968 65.7835 31.7157 65.8717C32.8208 70.7584 36.3168 75.0136 41.1187 76.6365C43.6115 77.476 46.1552 77.4448 48.6917 76.8197C50.8437 76.2885 52.9835 75.7021 55.1229 75.1147C56.0125 74.8688 56.9147 74.6416 57.7928 74.3509C58.3728 74.1616 58.9341 73.9405 59.4835 73.6688C60.5251 73.1635 61.4907 72.5072 62.3613 71.7501C65.4405 69.0792 67.6115 64.9821 67.9021 60.8907C68.1605 57.3176 67.3021 53.3595 64.8605 50.6509C63.1125 48.7061 60.6509 47.6147 58.1011 47.2165C57.1291 47.0645 56.1323 46.9896 55.148 47.0147C52.4344 47.0771 49.7773 47.98 47.1907 48.6749C45.3979 49.1541 43.5739 49.5907 41.8136 50.1896C41.7624 50.2093 41.7061 50.228 41.6552 50.2469C43.3157 50.0635 44.9187 49.6283 46.5272 49.2053C49.0395 48.5491 51.5699 47.924 54.0499 47.1405C54.5838 46.9717 55.1103 46.7802 55.628 46.5667C56.6125 46.1688 57.5781 45.7133 58.4989 45.1832C61.5405 43.4344 64.1728 40.8405 65.2832 37.4376C66.4635 33.8136 66.0781 29.2677 63.7939 26.1363C61.5656 23.0749 57.4832 22.0136 53.8917 22.8344C51.2104 23.4469 48.5531 24.2115 45.9093 24.9563C45.1584 25.1709 44.4072 25.3728 43.6939 25.6885C42.7979 26.0803 41.9771 26.6229 41.2459 27.2728C40.2494 28.1579 39.4309 29.2249 38.8344 30.4168C38.7781 30.5301 38.7272 30.6437 38.6771 30.7581C38.7021 30.7075 40.1667 30.3981 40.0083 30.4355C41.0749 30.1645 42.1416 29.8803 43.2021 29.5957C44.2613 29.3125 45.328 29.028 46.3885 28.7251C46.6219 28.6613 46.8552 28.5928 47.0896 28.5291C47.3009 28.4797 47.5092 28.4185 47.7136 28.3459Z" fill="#DE9E36"/>
<mask id="mask0_196_221" style="mask-type:luminance" maskUnits="userSpaceOnUse" x="6" y="2" width="87" height="96">
<path d="M6.93333 2.88428H92.8V97.0667H6.93333V2.88428Z" fill="white"/>
</mask>
<g mask="url(#mask0_196_221)">
<path d="M49.904 5.66879C47.9405 6.21146 46.0107 6.79279 44.104 7.51252C41.4228 8.52976 38.8073 9.71257 36.2728 11.0541C32.7885 12.8915 29.4501 15.0187 26.3459 17.4427C22.7552 20.2533 19.4728 23.472 16.6968 27.0896C13.5981 31.1301 11.1552 35.6509 9.53946 40.4803C8.67493 43.0624 8.06986 45.7011 7.6656 48.3907C7.08533 52.2416 6.87706 56.156 7.09173 60.0387C7.3688 65.0448 8.36666 70.0323 10.3093 74.6605C12.2344 79.2437 15.1061 83.4605 18.7667 86.8323C21.1584 89.0355 23.8781 90.9043 26.7365 92.4448C31.5011 95.0147 36.7832 96.624 42.1979 96.9147C45.3792 97.0843 48.572 96.8011 51.6771 96.0939C53.9989 95.5699 56.3032 94.9197 58.6061 94.3011C60.1843 93.8717 61.7677 93.4613 63.3272 92.9563C64.6645 92.5208 65.9832 92.0096 67.2584 91.4219C71.6509 89.3885 75.576 86.4405 78.9272 82.9624C81.0979 80.7144 83.0043 78.2397 84.7395 75.6448C88.1923 70.4821 90.5881 64.6866 91.7885 58.5928C93.0635 52.1155 92.9875 45.3728 91.4667 38.9459C90.0469 32.9291 87.3771 27.2229 83.6093 22.3165C80.5739 18.3584 76.8509 14.9563 72.7176 12.1781C69.3469 9.92399 65.7251 8.06132 61.9573 6.59066C59.6541 5.68746 57.2939 4.93652 54.896 4.31759C52.3333 3.65519 49.7333 3.18132 47.1021 2.91679C46.7803 2.88425 45.9968 3.18132 45.7699 3.23866C44.7038 3.5115 43.6395 3.79133 42.5771 4.07812C41.5168 4.36239 40.4501 4.64586 39.3896 4.94906C39.1563 5.01252 38.9229 5.08239 38.6896 5.14479C38.4818 5.19555 38.2773 5.25878 38.0771 5.33412C41.3781 5.66239 44.628 6.33865 47.8083 7.26052C50.2665 7.97326 52.676 8.84414 55.0219 9.86772C58.2843 11.2875 61.4147 13.0115 64.3365 15.0437C67.8072 17.4624 70.9749 20.3157 73.6635 23.5864C76.8387 27.4437 79.3187 31.8437 81.0093 36.5469C82.928 41.8885 83.8053 47.5824 83.6355 53.252C83.4689 58.7666 82.3433 64.2101 80.3093 69.3387C78.8387 73.0373 76.876 76.4907 74.5728 79.7301C72.8053 82.2168 70.824 84.5531 68.6219 86.6613C65.5989 89.5595 62.1469 92.0219 58.3419 93.7957C57.3141 94.275 56.263 94.7026 55.1925 95.0771C55.2427 95.0584 55.3 95.0397 55.3499 95.0211C55.0656 95.1219 54.776 95.2157 54.4917 95.3104C54.328 95.3613 54.1573 95.4115 53.9928 95.4688C53.8043 95.5248 53.8229 95.5187 54.0688 95.4501C52.8197 95.8093 53.9053 95.5187 57.3187 94.5781C60.7459 93.6821 61.8312 93.3915 60.5688 93.7072C60.8083 93.6501 60.828 93.6437 60.6323 93.6885C60.4803 93.7259 60.3229 93.7573 60.172 93.7957C59.8365 93.872 59.5021 93.9344 59.1613 94.0043C59.2187 93.9917 59.2688 93.9856 59.3261 93.9728C53.148 95.1219 46.7741 94.5219 40.8792 92.3499C36.7771 90.8405 32.9219 88.6376 29.5136 85.9043C26.3208 83.3405 23.6197 80.1843 21.5365 76.6616C18.748 71.9523 17.1187 66.6365 16.4251 61.2197C15.8699 56.8437 15.9011 52.4 16.4064 48.0251C16.6896 45.5813 17.1061 43.1448 17.7437 40.7645C19.1384 35.5437 21.4803 30.6 24.5979 26.1875C27.3864 22.2541 30.7499 18.7624 34.4803 15.7323C37.6989 13.1189 41.1824 10.8395 44.8301 8.88239C47.4989 7.44905 50.2635 6.18026 53.1032 5.10719C53.5709 4.93012 54.0437 4.76052 54.5165 4.58959C54.4667 4.60826 54.4093 4.62692 54.3592 4.64559C54.8324 4.48143 55.3078 4.32382 55.7853 4.17279C55.9365 4.12185 56.0947 4.07812 56.2459 4.03412C56.3469 4.00212 55.6405 4.21039 55.9624 4.11572C56.2083 4.04692 56.5053 3.96452 55.3312 4.29279C55.0474 4.37112 54.7634 4.4489 54.4792 4.52612C55.1416 4.34265 55.8989 4.19812 56.5427 3.94586C57.0728 3.73759 55.8677 4.08452 56.076 4.03439C54.0125 4.54479 51.9552 5.10105 49.9043 5.66879H49.904Z" fill="#DE9E36"/>
</g>
</svg>
