<svg width="100" height="100" viewBox="0 0 100 100" fill="none" xmlns="http://www.w3.org/2000/svg">
<path d="M56.6928 22.9584C56.4581 22.9584 56.1939 23.0634 55.972 23.1186C54.6947 23.4333 53.4312 23.7781 52.1613 24.1176C50.8168 24.4749 49.4728 24.8322 48.1405 25.2208C47.9437 25.2821 47.7344 25.3312 47.5491 25.4365C47.0739 25.7072 46.7104 26.201 46.3896 26.6258C46.0813 27.0333 45.7979 27.452 45.5147 27.8709C45.0021 28.629 44.4907 29.3813 43.9792 30.1456C42.4819 32.3821 41.002 34.6302 39.5395 36.8896C39.0771 37.6042 38.6208 38.3197 38.1581 39.0344C38.2875 39.0104 38.4176 38.9853 38.5405 38.948C38.8491 38.8738 39.1512 38.8 39.4531 38.7197C40.4957 38.4552 41.5376 38.1781 42.5731 37.9C43.6093 37.6226 44.6509 37.3458 45.6864 37.0498C45.9147 36.9885 46.1427 36.9208 46.3709 36.8584C46.5742 36.8092 46.7742 36.7476 46.9699 36.6738C47.2157 36.2853 47.4685 35.9032 47.7157 35.5208C47.6355 36.2666 47.5552 37.0125 47.4688 37.7581C47.1115 41.0197 46.7595 44.2864 46.4021 47.548C45.9459 51.7272 45.4957 55.9061 45.0395 60.0853L43.4301 74.8978C43.3563 75.5698 43.2824 76.248 43.2083 76.9197C43.2083 76.9072 44.7061 76.5562 44.5096 76.605C45.5513 76.3389 46.5911 76.0657 47.6291 75.7853C48.6645 75.5082 49.7072 75.2312 50.7427 74.9354C50.8968 74.8917 52.0136 74.6573 52.0251 74.5594C52.7344 68.0613 53.4376 61.5584 54.1469 55.0613C54.7011 49.9698 55.2501 44.8781 55.8053 39.7866C56.1749 36.3968 56.5448 33 56.9147 29.6093C57.0261 28.5864 57.1491 27.5634 57.2541 26.5333C57.352 25.5906 57.476 24.5552 57.2605 23.624C57.1928 23.328 57.0563 22.9584 56.6925 22.9584H56.6928Z" fill="#DE9E36"/>
<mask id="mask0_196_214" style="mask-type:luminance" maskUnits="userSpaceOnUse" x="5" y="4" width="85" height="92">
<path d="M5.86667 4H89.8667V95.9792H5.86667V4Z" fill="white"/>
</mask>
<g mask="url(#mask0_196_214)">
<path d="M88.4219 39.2072C87.0344 33.3325 84.4272 27.7605 80.7459 22.9709C77.7803 19.1061 74.1416 15.7832 70.1032 13.0709C66.8165 10.8645 63.2781 9.04587 59.5968 7.6096C57.4208 6.7584 55.1947 6.04987 52.9376 5.4584L53.2709 5.34693C53.6283 5.2552 53.9803 5.15627 54.3061 5.02693C54.8251 4.82293 53.6469 5.1624 53.8501 5.11227C53.4741 5.20533 53.1043 5.30427 52.728 5.40293C52.7157 5.3968 52.7032 5.3968 52.6917 5.39067C50.194 4.74045 47.6501 4.28284 45.0824 4.02187C44.7688 3.99067 44.0043 4.28133 43.7811 4.33653C42.7395 4.60329 41.6995 4.87654 40.6613 5.15627C39.6261 5.43333 38.5843 5.7104 37.548 6.0072C37.3197 6.06853 37.0917 6.13653 36.8635 6.19787C36.6605 6.24693 36.4624 6.30933 36.2656 6.3832C38.9229 6.648 41.5437 7.14693 44.1269 7.81253C43.4677 8.02907 42.8072 8.25627 42.1541 8.5032C39.5328 9.4976 36.9751 10.6525 34.4957 11.9613C31.0928 13.7552 27.8312 15.8323 24.7971 18.2C21.2885 20.9427 18.0824 24.0864 15.3699 27.6187C12.3491 31.5699 9.9624 35.9835 8.38427 40.6989C7.53947 43.2197 6.94694 45.7968 6.55307 48.4229C5.98534 52.1832 5.7824 56.0053 5.99174 59.7957C6.2624 64.6843 7.2376 69.5541 9.13654 74.072C11.0165 78.5467 13.8219 82.6645 17.3979 85.9563C19.7355 88.1083 22.3925 89.9323 25.1853 91.4363C29.8405 93.9456 35.0021 95.5176 40.2917 95.8011C43.3989 95.9677 46.5197 95.6896 49.5531 95C51.8219 94.4875 54.0731 93.8533 56.3229 93.2491C57.8645 92.8304 59.4115 92.4291 60.9355 91.9355C62.2438 91.5115 63.5261 91.0113 64.776 90.4376C69.0677 88.4531 72.9032 85.5739 76.1771 82.1781C78.2979 79.9835 80.1595 77.5667 81.8552 75.0333C85.2283 69.9931 87.5692 64.3344 88.7427 58.3843C89.9824 52.072 89.9083 45.4885 88.4219 39.2072ZM53.8325 5.16267C53.8499 5.15653 53.8624 5.15013 53.8813 5.15013C53.9739 5.12533 54.0107 5.1128 53.8325 5.16267ZM80.776 53.1688C80.6136 58.5535 79.5143 63.8687 77.5272 68.876C76.0907 72.4875 74.1728 75.8595 71.9219 79.0219C70.1957 81.4512 68.2595 83.7312 66.1085 85.7907C63.1541 88.62 59.7824 91.024 56.0635 92.756C55.7061 92.9219 55.3488 93.076 54.9853 93.2301C49.596 93.8896 44.1147 93.2176 39.0032 91.3376C34.9957 89.8645 31.228 87.7136 27.8992 85.0448C24.7792 82.5416 22.1395 79.4595 20.1053 76.0197C17.38 71.4219 15.7885 66.2312 15.1107 60.9427C14.5677 56.6707 14.5989 52.3312 15.0928 48.0595C15.3699 45.6739 15.7771 43.2939 16.3989 40.9699C17.7624 35.8728 20.0499 31.0459 23.0957 26.7376C25.8211 22.9029 29.1072 19.4939 32.7509 16.5355C35.8957 13.9835 39.2989 11.7584 42.8624 9.84693C43.8633 9.31059 44.8772 8.79897 45.9032 8.31253C48.2634 8.99444 50.5763 9.83027 52.8272 10.8147C56.0147 12.2021 59.0728 13.8843 61.928 15.8699C65.3187 18.2301 68.4133 21.0165 71.0405 24.2093C74.1419 27.976 76.5659 32.2728 78.2176 36.8645C80.0853 42.0739 80.9429 47.6336 80.776 53.1688Z" fill="#DE9E36"/>
</g>
</svg>
