<svg width="23" height="35" viewBox="0 0 23 35" fill="none" xmlns="http://www.w3.org/2000/svg">
<g clip-path="url(#clip0_86_9919)">
<path d="M5.9624 34.8132C5.9624 34.7105 6.04177 34.6755 6.13877 34.7355C6.23577 34.7954 6.31513 34.8795 6.31513 34.9222C6.31513 34.965 6.23577 35 6.13877 35C6.04177 35 5.9624 34.916 5.9624 34.8132ZM8.69816 34.4743C8.59379 34.3055 8.27287 31.5589 8.25992 30.7237C8.25399 30.3412 7.04012 28.9707 6.82502 29.1037C6.73858 29.1571 6.66786 29.0947 6.66786 28.965C6.66786 28.6991 6.05563 28.1218 5.77362 28.1218C5.672 28.1218 5.6336 28.0494 5.68829 27.9609C5.74298 27.8724 5.65135 27.82 5.48468 27.8445C5.1249 27.8973 4.72343 27.5727 4.86348 27.3423C4.91771 27.253 4.83582 27.2285 4.6815 27.2877C4.52718 27.3469 4.30603 27.281 4.19006 27.1413C4.07409 27.0016 4.03309 26.8873 4.09896 26.8873C4.16482 26.8873 4.07806 26.6492 3.90616 26.3582C3.73426 26.0672 3.53137 25.8291 3.45528 25.8291C3.37919 25.8291 3.31694 25.5466 3.31694 25.2014C3.31694 24.8291 3.24539 24.6179 3.14111 24.6824C3.02513 24.754 3.02284 24.6396 3.13437 24.3463C3.22737 24.1017 3.2354 23.8595 3.1522 23.8081C3.06901 23.7566 3.06278 23.4404 3.13838 23.1052C3.21397 22.77 3.23216 22.4521 3.1788 22.3988C3.12544 22.3454 3.16525 22.3018 3.26726 22.3018C3.4882 22.3018 4.08119 21.4384 4.08119 21.1168C4.08119 20.9925 4.1112 20.9209 4.14789 20.9576C4.18457 20.9943 4.44302 20.7958 4.7222 20.5167C5.00139 20.2375 5.35497 20.009 5.50793 20.009C5.66089 20.009 5.78604 19.9425 5.78604 19.8613C5.78604 19.78 6.16302 19.6995 6.62377 19.6823C7.08452 19.6651 7.62023 19.6074 7.81423 19.554C8.04404 19.4907 8.09076 19.5102 7.94828 19.61C7.79569 19.7168 7.91561 19.8304 8.3451 19.9857C8.68362 20.1081 8.9606 20.2957 8.9606 20.4026C8.9606 20.5095 9.01303 20.5445 9.07713 20.4804C9.14122 20.4163 9.28659 20.542 9.40018 20.7596C9.51377 20.9773 9.69942 21.1356 9.81274 21.1113C9.93851 21.0844 10.0188 21.3037 10.0188 21.6741C10.0188 22.0079 10.1019 22.3324 10.2036 22.3952C10.3052 22.458 10.3667 22.6412 10.3403 22.8024C10.3138 22.9636 10.3683 23.2145 10.4614 23.36C10.5545 23.5055 10.6319 23.8598 10.6334 24.1473C10.6358 24.6266 10.7159 24.6942 11.5944 24.959C12.3173 25.1769 12.729 25.2073 13.2699 25.0828C13.6643 24.9921 14.106 24.8918 14.2515 24.8602C14.9922 24.6988 16.1821 24.0448 16.5227 23.6119C17.4311 22.457 17.9615 20.5049 17.5672 19.7673C17.4423 19.5335 17.4474 19.4723 17.5849 19.5573C17.847 19.7193 17.8325 19.2514 17.5672 18.9861C17.4508 18.8697 17.4208 18.7745 17.5006 18.7745C17.5804 18.7745 17.5675 18.6753 17.472 18.554C17.3765 18.4328 17.2462 18.1153 17.1825 17.8486C17.1188 17.5818 16.9569 17.3636 16.8227 17.3636C16.6885 17.3636 16.4958 17.1255 16.3943 16.8345C16.2929 16.5435 16.0974 16.3054 15.9599 16.3054C15.8225 16.3054 15.4967 16.1376 15.236 15.9326C14.9753 15.7275 14.7167 15.6051 14.6613 15.6605C14.6058 15.7159 14.4142 15.5861 14.2355 15.372C14.0539 15.1544 13.9079 15.0817 13.9047 15.2072C13.9003 15.3725 13.7826 15.3556 13.4579 15.1428C13.1888 14.9665 13.017 14.9305 13.017 15.0506C13.017 15.1587 12.9329 15.2472 12.8302 15.2472C12.7275 15.2472 12.6845 15.1808 12.7346 15.0996C12.8231 14.9565 12.2378 14.9689 11.5179 15.1253C11.3239 15.1674 11.0659 15.123 10.9447 15.0266C10.7959 14.9083 10.7242 14.9139 10.7242 15.0437C10.7242 15.1495 10.6121 15.1931 10.4751 15.1405C10.3286 15.0843 10.1917 15.1774 10.1429 15.3665C10.0628 15.6763 10.059 15.6762 10.0392 15.3648C10.0279 15.1856 9.92047 15.0775 9.79833 15.1223C9.67708 15.1667 9.6022 15.3058 9.63192 15.4314C9.6761 15.618 9.63585 15.618 9.41146 15.4319C9.23481 15.2852 9.13696 15.2726 9.13696 15.3964C9.13696 15.5043 9.00135 15.5402 8.82832 15.4781C8.65857 15.4172 8.56986 15.4236 8.6312 15.4923C8.69252 15.561 8.27378 16.0697 7.70066 16.6227C6.8975 17.3976 6.63396 17.7818 6.55106 18.2986C6.46194 18.8542 6.37959 18.96 6.07068 18.9159C5.80984 18.8787 5.68082 18.7142 5.64115 18.3683C5.60011 18.0106 5.34419 17.7014 4.71524 17.2495C4.23717 16.906 3.84603 16.5653 3.84603 16.4922C3.84603 16.2752 3.11488 15.5082 2.95136 15.5537C2.86841 15.5768 2.85086 15.4646 2.91235 15.3043C2.9823 15.1221 2.95383 15.0564 2.8363 15.1291C2.62176 15.2617 2.44892 14.9157 2.56435 14.5847C2.60684 14.4629 2.72776 14.4164 2.83304 14.4815C2.93833 14.5466 2.87203 14.3965 2.68571 14.148C2.49938 13.8996 2.28718 13.7326 2.21413 13.777C2.14109 13.8214 2.11535 13.6744 2.15694 13.4502C2.19852 13.2261 2.23966 13.003 2.24835 12.9545C2.25705 12.906 2.34657 12.9853 2.4473 13.1308C2.59784 13.3483 2.61904 13.3326 2.5664 13.0427C2.53117 12.8487 2.41346 12.7079 2.3048 12.7299C2.03229 12.785 2.21065 11.889 2.54596 11.5185C2.74831 11.2949 2.76005 11.1945 2.59572 11.0929C2.45835 11.008 2.4261 11.0336 2.50646 11.1636C2.67715 11.4398 2.46426 11.4215 2.17821 11.1355C2.05077 11.008 1.90823 10.5725 1.86147 10.1676C1.8147 9.76277 1.66671 9.29165 1.53259 9.12071C1.31122 8.83856 1.3172 8.83223 1.59739 9.05197C1.86397 9.26103 1.90603 9.25503 1.90603 9.00788C1.90603 8.8505 1.82666 8.72174 1.72966 8.72174C1.63266 8.72174 1.57314 8.62614 1.59739 8.5093C1.62164 8.39246 1.53 8.29325 1.39375 8.28884C1.25749 8.28443 1.12644 8.14743 1.10251 7.9844C1.07223 7.77809 1.14754 7.71828 1.35024 7.78767C1.61547 7.87847 1.61502 7.86556 1.34525 7.64319C1.02173 7.37651 0.867853 6.47194 1.08597 6.11901C1.16927 5.98423 1.1149 5.85597 0.947203 5.79161C0.795554 5.73342 0.671478 5.52708 0.671478 5.33308C0.671478 5.09751 0.756365 5.01293 0.927042 5.07842C1.09786 5.14397 1.15009 5.09174 1.08454 4.92092C0.941057 4.54702 1.17859 3.9917 1.3579 4.28183C1.53705 4.5717 1.9133 4.15438 1.95346 3.62127C1.96865 3.41952 2.08793 3.25445 2.21851 3.25445C2.3491 3.25445 2.40654 3.17452 2.34617 3.07684C2.2858 2.97915 2.36504 2.84986 2.52226 2.78953C2.67948 2.7292 2.76479 2.56691 2.71182 2.42889C2.65848 2.28988 2.6933 2.22601 2.78987 2.28569C2.88576 2.34495 2.96421 2.30471 2.96421 2.19626C2.96421 2.08781 3.04358 2.04813 3.14058 2.10808C3.23758 2.16803 3.31792 2.11319 3.31912 1.98621C3.3212 1.76684 4.33652 0.997539 4.57706 1.03308C4.63963 1.04233 4.83804 0.92997 5.01797 0.783397C5.57041 0.333391 6.38521 -0.0327701 6.75604 0.00233005C6.95004 0.0206926 7.42623 0.0893209 7.81423 0.154838C9.50402 0.440172 11.7997 0.793113 13.1052 0.968273C13.8812 1.07239 14.9129 1.22746 15.3979 1.31288C15.8829 1.39829 17.0733 1.45042 18.0434 1.42873C20.062 1.38359 20.7733 1.56707 21.3317 2.27698C21.8271 2.90672 21.9247 4.35341 21.5162 5.01222C21.2144 5.49913 20.0715 6.67225 20.0715 6.4952C20.0715 6.43504 19.9723 6.46571 19.8511 6.56336C19.5861 6.77678 17.3452 6.80929 16.8142 6.60742C16.6046 6.52774 16.3047 6.53853 16.1382 6.63173C15.9408 6.74216 15.8388 6.73654 15.8388 6.61524C15.8388 6.51402 15.6602 6.4645 15.442 6.50519C15.2237 6.54587 14.8269 6.58505 14.5602 6.59226C14.2231 6.60137 14.0734 6.69952 14.0695 6.914C14.0643 7.20357 14.049 7.203 13.8228 6.90466C13.665 6.69655 13.5576 6.65901 13.5119 6.796C13.464 6.93967 13.3478 6.91098 13.1414 6.70457C12.8675 6.43068 12.8406 6.42963 12.8406 6.69284C12.8406 6.89737 12.7418 6.95051 12.5027 6.87462C12.3169 6.81564 12.113 6.85127 12.0496 6.9538C11.9863 7.05633 11.8571 7.0924 11.7625 7.03397C11.668 6.97554 11.4785 7.02076 11.3415 7.13446C11.2045 7.24816 11.0151 7.29338 10.9205 7.23495C10.826 7.17651 10.7018 7.20449 10.6445 7.29711C10.5873 7.38973 10.6703 7.53816 10.829 7.62697C11.0861 7.77089 11.0736 7.82935 10.7132 8.16504C10.4909 8.37217 10.2642 8.49685 10.2094 8.4421C10.1547 8.38735 10.2481 8.2652 10.4171 8.17065C10.586 8.07611 10.7242 7.91361 10.7242 7.80956C10.7242 7.6806 10.6471 7.68436 10.482 7.82136C10.3488 7.93191 10.1107 7.97282 9.95295 7.91227C9.79516 7.85172 9.66605 7.88078 9.66605 7.97685C9.66605 8.23694 8.71874 8.37103 8.56693 8.13244C8.48263 7.99996 8.43595 8.03664 8.4342 8.23674C8.43261 8.40892 8.56796 8.55153 8.74014 8.5593C8.92452 8.56761 8.96002 8.60903 8.82832 8.66217C8.70707 8.7111 8.60787 8.82856 8.60787 8.92321C8.60787 9.01785 8.67827 9.05177 8.76432 8.99859C8.85037 8.94541 8.90989 9.03993 8.89659 9.20864C8.87552 9.47591 9.04829 9.5151 10.2392 9.51324C10.991 9.51206 11.6061 9.55995 11.6061 9.61964C11.6061 9.67933 12.1954 9.77798 12.9158 9.83888C14.659 9.98623 16.4061 10.7275 18.3286 12.1354C19.8871 13.2768 21.728 15.8453 22.1389 17.4518C22.8233 20.1271 22.6836 22.5887 21.7034 25.1236C21.6471 25.2691 21.5914 25.4278 21.5796 25.4763C21.5554 25.5756 21.1628 26.2667 20.828 26.7991C20.7061 26.9931 20.5561 27.2907 20.4947 27.4604C20.4333 27.6302 20.3288 27.7691 20.2623 27.7691C20.1959 27.7691 19.7767 28.1236 19.3309 28.557C18.5795 29.2873 16.6876 30.3228 16.4815 30.1166C16.4319 30.067 16.2883 30.0902 16.1623 30.1681C15.9186 30.3186 15.8407 30.3365 14.6042 30.5243C13.7714 30.6508 11.0947 30.6854 10.4156 30.5784C10.1973 30.544 10.0188 30.4534 10.0188 30.377C10.0188 30.3006 9.90218 30.2382 9.75966 30.2382C9.54856 30.2382 9.49137 30.6381 9.45103 32.3965C9.4087 34.2412 9.35905 34.5629 9.10931 34.6108C8.94861 34.6416 8.76359 34.5802 8.69816 34.4743ZM2.32253 9.69174C2.2667 9.54624 2.19832 9.42719 2.17057 9.42719C2.14283 9.42719 2.07445 9.54624 2.01861 9.69174C1.9574 9.85127 2.01772 9.95629 2.17057 9.95629C2.32343 9.95629 2.38375 9.85127 2.32253 9.69174ZM8.38374 9.32064C8.32513 9.26204 8.17302 9.25577 8.04571 9.30672C7.90502 9.36302 7.9468 9.40481 8.15226 9.41327C8.33818 9.42092 8.44234 9.37924 8.38374 9.32064ZM9.37418 7.3914C9.31674 7.24171 9.23192 7.15707 9.18569 7.2033C9.13946 7.24953 9.15395 7.372 9.21789 7.47545C9.39179 7.75684 9.49344 7.70217 9.37418 7.3914ZM3.37573 16.4013C3.37573 16.2601 3.44187 16.1854 3.5227 16.2354C3.60353 16.2853 3.66967 16.4009 3.66967 16.4922C3.66967 16.5834 3.60353 16.6581 3.5227 16.6581C3.44187 16.6581 3.37573 16.5426 3.37573 16.4013ZM10.471 15.6516C10.3753 15.4003 10.3956 15.38 10.5698 15.5529C10.6903 15.6725 10.7445 15.8149 10.6902 15.8692C10.6359 15.9235 10.5373 15.8256 10.471 15.6516ZM11.536 7.51658C11.4861 7.43575 11.5573 7.36961 11.6942 7.36961C11.8312 7.36961 11.9024 7.43575 11.8524 7.51658C11.8025 7.59741 11.7313 7.66355 11.6942 7.66355C11.6572 7.66355 11.586 7.59741 11.536 7.51658ZM1.02421 3.85703C0.781706 3.72247 0.67601 3.61121 0.789328 3.60977C0.902644 3.60835 1.11047 3.563 1.25115 3.50902C1.41097 3.44769 1.54253 3.54695 1.60179 3.77356C1.71002 4.18743 1.63833 4.19779 1.02421 3.85703ZM1.20309 3.00502C1.31731 2.8908 1.43656 2.8908 1.55078 3.00502C1.665 3.11923 1.60537 3.17886 1.37694 3.17886C1.1485 3.17886 1.08887 3.11923 1.20309 3.00502Z" fill="#252422"/>
</g>
<defs>
<clipPath id="clip0_86_9919">
<rect width="21.8925" height="35" fill="white" transform="translate(0.671478)"/>
</clipPath>
</defs>
</svg>
