<svg width="22" height="35" viewBox="0 0 22 35" fill="none" xmlns="http://www.w3.org/2000/svg">
<g clip-path="url(#clip0_86_9916)">
<path d="M10.1161 34.9075C10.0586 34.8144 9.88431 34.7383 9.72879 34.7383C8.52692 34.7383 7.53427 31.8707 8.12087 30.0933C8.23018 29.762 8.28359 29.3533 8.23956 29.1849C8.19553 29.0166 8.223 28.8396 8.30059 28.7916C8.37819 28.7437 8.43757 28.5476 8.43255 28.3559C8.42753 28.1643 8.46199 27.2125 8.50912 26.241C8.57931 24.7938 8.55211 24.439 8.35866 24.2785C8.16083 24.1143 8.13811 24.1311 8.21859 24.3821C8.29453 24.6189 8.24307 24.6003 7.97293 24.2932C7.54775 23.81 7.18834 23.7308 7.29642 24.1441C7.37824 24.457 7.11269 24.5619 6.94123 24.2845C6.88092 24.1869 6.74157 24.2259 6.58261 24.3849C6.40431 24.5632 6.30313 24.5863 6.26056 24.4587C6.2145 24.3205 6.14336 24.3182 5.98463 24.45C5.83958 24.5703 5.68104 24.5772 5.49193 24.4714C5.28582 24.3561 5.15636 24.3838 4.99559 24.5777C4.8246 24.7839 4.79327 24.7892 4.8491 24.6024C4.90288 24.4225 4.77163 24.3591 4.30817 24.3411C3.97161 24.3281 3.73283 24.3766 3.77755 24.449C3.82228 24.5213 3.78468 24.6264 3.69399 24.6824C3.60331 24.7385 3.5487 24.6932 3.57263 24.5818C3.59657 24.4704 3.47361 24.3709 3.2994 24.3608C2.89304 24.337 2.11161 23.9583 2.11161 23.7851C2.11161 23.712 1.98689 23.6522 1.83446 23.6522C1.55717 23.6522 0.573449 22.5696 0.647166 22.3456C0.668665 22.2803 0.607501 22.2268 0.511247 22.2268C0.402584 22.2268 0.359142 21.9867 0.396653 21.5933C0.42988 21.2449 0.401728 20.9599 0.334101 20.9599C0.26647 20.9599 0.211136 20.853 0.211136 20.7223C0.211136 20.5916 0.280167 20.4847 0.364538 20.4847C0.44891 20.4847 0.479685 20.385 0.432928 20.2632C0.386172 20.1414 0.42093 19.9965 0.510168 19.9414C0.599407 19.8862 0.627789 19.7248 0.573237 19.5826C0.506939 19.4099 0.535485 19.3621 0.659341 19.4387C0.769871 19.507 0.844627 19.4557 0.844627 19.3117C0.844627 19.0104 1.33151 17.9429 1.5969 17.6623C1.70578 17.5472 1.79486 17.3827 1.79486 17.2966C1.79486 17.2106 1.861 17.1811 1.94183 17.2311C2.02267 17.281 2.13437 17.1783 2.19007 17.0028C2.24576 16.8274 2.362 16.6838 2.44837 16.6838C2.53475 16.6838 2.56137 16.6125 2.50754 16.5254C2.45371 16.4383 2.53265 16.367 2.68296 16.367C2.83328 16.367 2.9097 16.3205 2.85278 16.2636C2.7365 16.1473 3.2631 15.2073 3.74856 14.6645C3.92387 14.4686 4.01415 14.3082 3.94919 14.3082C3.88423 14.3082 3.94308 14.1962 4.07995 14.0593C4.21683 13.9225 4.32912 13.7265 4.32949 13.6238C4.32989 13.5211 4.50802 13.0866 4.72542 12.658C4.94282 12.2295 5.12069 11.7775 5.12069 11.6536C5.12069 11.5297 5.24999 11.2639 5.40803 11.063C5.57188 10.8547 5.68075 10.4866 5.66136 10.2065C5.64266 9.93641 5.68322 9.71539 5.75149 9.71539C5.81976 9.71539 5.9196 9.59067 5.97337 9.43824C6.02714 9.28581 6.11266 9.072 6.16341 8.96312C6.21417 8.85424 6.17428 8.76516 6.07478 8.76516C5.97527 8.76516 5.93791 8.83642 5.99174 8.92353C6.04557 9.01063 6.01415 9.0819 5.9219 9.0819C5.64347 9.0819 5.73329 8.62157 6.06757 8.33535C6.3003 8.13608 6.33087 8.03458 6.18635 7.94097C6.03761 7.84463 6.04773 7.77816 6.2293 7.65897C6.43846 7.52167 6.35154 7.43398 6.04636 7.47441C5.98929 7.48198 5.90102 7.37981 5.8502 7.24738C5.79939 7.11496 5.82183 7.04617 5.90008 7.09453C6.12352 7.23263 6.54605 7.01329 6.54605 6.75921C6.54605 6.63273 6.60702 6.56693 6.68154 6.61299C6.75606 6.65904 6.79137 6.5029 6.76 6.26599C6.72863 6.02909 6.74486 5.92435 6.79607 6.03323C6.84729 6.14211 6.99887 6.23119 7.13294 6.23119C7.33337 6.23119 7.34109 6.18829 7.17636 5.98981C7.06618 5.85705 7.02182 5.70263 7.07778 5.64667C7.13375 5.5907 7.17954 5.63678 7.17954 5.74907C7.17954 5.90624 7.23064 5.91082 7.40156 5.76897C7.61494 5.59188 7.89288 4.85418 7.83901 4.60787C7.82472 4.54254 7.88345 4.48909 7.96953 4.48909C8.0556 4.48909 8.17141 4.20532 8.22687 3.85848C8.28233 3.51165 8.39007 3.26641 8.4663 3.31352C8.54253 3.36063 8.60489 3.29385 8.60489 3.16511C8.60489 2.86664 9.1181 1.95745 9.28732 1.95613C9.35779 1.95558 9.37177 1.88446 9.31839 1.79809C9.26501 1.71171 9.40333 1.45903 9.62579 1.23658C9.84824 1.01413 10.0302 0.772292 10.0302 0.699165C10.0302 0.419415 10.9083 0.00867985 11.5244 0.000228293C12.6204 -0.014806 13.3562 0.713137 13.6094 2.0629C13.6663 2.36596 13.8103 2.65132 13.9295 2.69705C14.0486 2.74277 14.1067 2.84398 14.0585 2.92196C14.0103 2.99994 14.0463 3.06374 14.1386 3.06374C14.2308 3.06374 14.2943 3.11719 14.2797 3.18252C14.2287 3.40953 14.5014 4.49307 14.6293 4.57217C14.7002 4.61593 14.6991 4.85737 14.627 5.1087C14.5417 5.40615 14.5596 5.63464 14.6783 5.76329C14.8172 5.91385 14.8134 5.93423 14.6622 5.84885C14.4499 5.72897 14.4549 6.15318 14.6698 6.4974C14.7341 6.60027 14.7261 6.72182 14.6521 6.76753C14.4587 6.88707 14.5984 9.09889 14.8159 9.36097C14.9326 9.50166 14.9424 9.61969 14.8428 9.68787C14.6732 9.80407 14.5921 10.2571 14.5755 11.1803C14.5697 11.507 14.5177 11.7742 14.4601 11.7742C14.3136 11.7742 14.3659 12.4404 14.5334 12.7094C14.6286 12.862 14.6144 12.8962 14.4882 12.8182C14.3566 12.7368 14.305 12.9663 14.3066 13.6252C14.3079 14.1315 14.279 14.7414 14.2424 14.9806C14.2059 15.2198 14.2421 15.4563 14.3229 15.5063C14.4037 15.5562 14.4177 15.6812 14.354 15.7841C14.2903 15.887 14.2282 16.3113 14.2158 16.727C14.2035 17.1428 14.1476 17.5288 14.0915 17.5849C14.0354 17.641 13.9896 17.7581 13.9896 17.8452C13.9896 17.9323 14.0393 17.9538 14.1001 17.893C14.1609 17.8322 14.2948 17.9396 14.3976 18.1317C14.5003 18.3237 14.7178 18.503 14.8809 18.5302C15.044 18.5573 15.4268 18.6205 15.7317 18.6706C16.0365 18.7208 16.4285 18.7895 16.6027 18.8234C16.7769 18.8573 17.3827 18.9624 17.9489 19.0571C18.5151 19.1517 19.2278 19.3486 19.5326 19.4946C19.8375 19.6406 20.1524 19.7627 20.2325 19.7661C20.3126 19.7694 20.5362 20.0711 20.7295 20.4365C20.9227 20.8019 21.1341 21.0514 21.1992 20.9908C21.2644 20.9302 21.2417 21.027 21.1488 21.2059C21.0468 21.4027 21.0357 21.6212 21.1208 21.7589C21.28 22.0164 21.1849 22.545 20.8464 23.2843C20.4023 24.2545 18.7108 24.7257 17.193 24.302C16.8208 24.1981 16.4515 24.1531 16.3725 24.202C16.2934 24.2509 16.1821 24.2155 16.1252 24.1234C16.0683 24.0314 15.903 23.993 15.7579 24.0381C15.6128 24.0832 15.3931 24.0566 15.2695 23.9791C15.1249 23.8884 14.9134 23.9243 14.6756 24.0801C14.4725 24.2132 14.3063 24.2486 14.3063 24.1587C14.3063 24.0689 14.3954 23.9594 14.5043 23.9155C14.6132 23.8715 14.5063 23.8299 14.2667 23.8231C13.9873 23.8151 13.8312 23.8924 13.8312 24.0388C13.8312 24.1643 13.7489 24.3178 13.6484 24.38C13.5258 24.4557 13.5074 24.4196 13.5924 24.2706C13.6951 24.0906 13.6786 24.0859 13.506 24.2461C13.3401 24.4001 13.335 24.4863 13.4828 24.6341C13.5873 24.7386 13.6678 24.9346 13.6617 25.0696C13.6536 25.2475 13.6094 25.2279 13.5011 24.9984C13.3733 24.7274 13.3603 24.7447 13.4114 25.1185C13.4567 25.4504 13.4242 25.5165 13.2761 25.3936C13.1244 25.2677 13.1067 25.3716 13.1963 25.8616C13.2634 26.2289 13.2486 26.5123 13.1607 26.5416C13.0778 26.5693 12.9866 27.0885 12.958 27.6956C12.9294 28.3026 12.8701 28.9529 12.8263 29.1406C12.7824 29.3283 12.7003 30.1479 12.6438 30.9619C12.4744 33.4003 12.0056 34.5295 11.0597 34.7776C10.8855 34.8233 10.6254 34.9093 10.4818 34.9687C10.3382 35.028 10.1736 35.0005 10.1161 34.9075ZM8.37335 17.9605C8.32282 17.8788 8.4077 17.7384 8.56197 17.6486C8.71623 17.5588 8.77118 17.4842 8.68408 17.4829C8.38854 17.4784 8.08868 17.7562 8.19802 17.9331C8.25787 18.0299 8.34247 18.1091 8.38602 18.1091C8.42958 18.1091 8.42386 18.0423 8.37335 17.9605ZM6.2418 6.61393C6.2494 6.42943 6.28693 6.3919 6.33749 6.51824C6.38324 6.63257 6.37761 6.76917 6.32498 6.82179C6.27236 6.87442 6.23493 6.78088 6.2418 6.61393Z" fill="#252422"/>
</g>
<defs>
<clipPath id="clip0_86_9916">
<rect width="21.0253" height="35" fill="white" transform="translate(0.211136)"/>
</clipPath>
</defs>
</svg>
