<svg width="26" height="35" viewBox="0 0 26 35" fill="none" xmlns="http://www.w3.org/2000/svg">
<g clip-path="url(#clip0_86_9913)">
<path d="M4.52297 34.7408C4.37364 34.5915 4.24822 34.3115 4.24426 34.1186C4.23821 33.8235 4.18942 33.8307 3.9365 34.1639C3.61257 34.5906 3.12016 34.6975 3.12016 34.3411C3.12016 34.2208 2.76147 33.7637 2.32307 33.3253C1.88467 32.8869 1.46293 32.213 1.38586 31.8276C1.3088 31.4423 1.11963 31.0787 0.965485 31.0195C0.768514 30.9439 0.737373 30.6807 0.860701 30.1339C0.960336 29.6921 0.947857 29.3559 0.83183 29.3559C0.711183 29.3559 0.71013 29.1937 0.829261 28.9599C0.940239 28.7421 1.17019 28.2656 1.34026 27.901C1.61275 27.3167 2.63683 26.0488 3.36325 25.3963C3.50179 25.2719 3.88558 24.8838 4.21612 24.534C4.54666 24.1841 6.83206 21.8647 9.29478 19.3796C11.7575 16.8946 13.7122 14.7639 13.6385 14.6447C13.5648 14.5254 13.6584 14.487 13.8467 14.5593C14.0972 14.6554 14.165 14.5666 14.0997 14.2278C14.041 13.9227 14.1558 13.7189 14.4365 13.6298C14.6708 13.5554 14.9255 13.2962 15.0024 13.0537C15.0794 12.8111 15.2628 12.6112 15.41 12.6093C15.5681 12.6072 15.5387 12.5161 15.3381 12.3865C15.0365 12.1915 15.0365 12.1638 15.3381 12.1369C15.5248 12.1202 15.7528 12.1183 15.8447 12.1326C15.9366 12.1468 16.0769 11.7516 16.1564 11.2543C16.2536 10.6468 16.4171 10.3501 16.6547 10.3501C16.9379 10.3501 16.9208 10.2818 16.5692 10.0075C16.2653 9.77029 16.2345 9.68322 16.4694 9.72464C16.6724 9.76042 16.7964 9.62628 16.7778 9.39096C16.7607 9.17453 16.8371 9.05327 16.9475 9.12149C17.0579 9.18972 17.1482 9.09 17.1482 8.8999C17.1482 8.66503 17.2751 8.60182 17.5442 8.70265C17.8909 8.8326 17.9015 8.80359 17.6296 8.46929C17.3648 8.14375 17.3676 8.08754 17.6484 8.08754C17.8296 8.08754 17.9778 7.93481 17.9778 7.74815C17.9778 7.33692 17.6788 7.29874 17.5347 7.69159C17.4545 7.91042 17.3606 7.90291 17.1199 7.65839C16.9234 7.45871 16.9129 7.40116 17.0916 7.50205C17.2642 7.59945 17.3745 7.52692 17.3745 7.31609C17.3745 7.10181 17.5035 7.01994 17.7139 7.10068C17.9005 7.17231 18.0532 7.11821 18.0532 6.98045C18.0532 6.8427 17.9454 6.72999 17.8136 6.72999C17.6819 6.72999 17.6244 6.64855 17.6859 6.54901C17.7474 6.44948 17.5752 6.22949 17.3033 6.06015C16.8564 5.78189 16.8379 5.78747 17.1111 6.11808C17.454 6.53305 17.2879 6.95625 16.7821 6.95625C16.5832 6.95625 16.5095 7.06436 16.6042 7.21746C16.7019 7.37564 16.6665 7.41741 16.5143 7.32335C16.376 7.23791 16.3201 7.01913 16.3899 6.83717C16.4597 6.65521 16.608 6.56266 16.7194 6.63151C16.9852 6.79581 16.9723 6.47924 16.6957 6.05121C16.5265 5.78933 16.4756 5.78194 16.4729 6.01885C16.4709 6.19827 16.3284 6.27175 16.13 6.19565C15.9434 6.12402 15.7907 6.16403 15.7907 6.28457C15.7907 6.40511 15.6797 6.50373 15.5441 6.50373C15.4085 6.50373 15.1285 6.68671 14.9219 6.91035C14.7153 7.13398 14.6275 7.19396 14.7269 7.04362C14.8312 6.88579 14.7834 6.69862 14.6138 6.60073C14.4522 6.50748 14.3915 6.51053 14.4789 6.60751C14.6562 6.80423 14.3246 7.19162 13.6412 7.58623C13.3923 7.72994 13.3195 7.85061 13.4795 7.8544C13.7036 7.8597 13.7126 7.96899 13.5187 8.33134C13.3803 8.58988 13.1349 8.75066 12.9732 8.68864C12.6604 8.5686 12.0836 9.57389 12.2815 9.89414C12.4868 10.2264 12.1446 10.7785 11.8124 10.651C11.6177 10.5763 11.4917 10.6708 11.4917 10.8916C11.4917 11.0915 11.333 11.2552 11.139 11.2552C10.945 11.2552 10.8492 11.357 10.9261 11.4814C11.003 11.6059 10.9012 11.7077 10.6998 11.7077C10.4985 11.7077 10.3873 11.7943 10.4527 11.9002C10.5182 12.0061 10.1424 12.2281 9.61761 12.3935C9.09285 12.5589 8.5453 12.7826 8.40083 12.8907C8.24257 13.0091 8.07127 12.979 7.96991 12.815C7.85617 12.631 7.89761 12.6021 8.09786 12.7258C8.29621 12.8484 8.33949 12.8206 8.22888 12.6417C8.13805 12.4947 7.94414 12.3997 7.79797 12.4306C7.45569 12.503 6.28779 11.4092 6.28779 11.0163C6.28779 10.8247 6.41917 10.875 6.65104 11.1554C6.97471 11.5467 6.97414 11.5267 6.64583 10.9723C6.44317 10.6301 6.35986 10.3501 6.4607 10.3501C6.56154 10.3501 6.66789 10.0373 6.69702 9.65501C6.72708 9.26041 6.65683 9.01746 6.53452 9.09305C6.41601 9.16629 6.24538 9.10701 6.15533 8.96131C6.04656 8.78531 6.0903 8.75739 6.28563 8.87811C6.50726 9.01509 6.55145 8.91227 6.4651 8.46056C6.40209 8.13095 6.44424 7.86128 6.55877 7.86128C6.6733 7.86128 6.70946 7.76816 6.63912 7.65435C6.56878 7.54053 6.58822 7.41326 6.68233 7.37152C6.77644 7.32978 7.10798 6.79526 7.41908 6.1837C8.31837 4.41589 11.127 1.60522 12.7845 0.814342C15.5879 -0.523311 18.9172 -0.193904 21.3481 1.66164C21.9025 2.08483 22.457 2.43107 22.5804 2.43107C22.7037 2.43107 22.8047 2.6347 22.8047 2.88359C22.8047 3.13247 22.8941 3.33611 23.0035 3.33611C23.1984 3.33611 23.7489 4.47642 23.8773 5.14617C24.1568 6.60408 24.195 8.56733 23.9496 8.863C23.7971 9.04676 23.734 9.39126 23.8093 9.62855C23.8901 9.88325 23.8051 10.1771 23.6017 10.3459C23.4122 10.5031 23.2572 10.8185 23.2572 11.0467C23.2572 11.2748 22.9518 11.9796 22.5784 12.6127C22.2051 13.2459 21.8997 13.9182 21.8997 14.1067C21.8997 14.2952 21.8085 14.3932 21.6971 14.3243C21.5034 14.2046 21.2215 14.6523 21.0914 15.2862C21.0578 15.4499 20.7611 15.8152 20.4322 16.0978C20.1032 16.3805 19.8129 16.7556 19.7869 16.9314C19.7288 17.3258 18.1778 18.948 17.8588 18.948C17.7312 18.948 17.663 19.1365 17.7074 19.3669C17.7998 19.8469 17.154 20.496 16.726 20.3533C16.5486 20.2942 16.4661 20.4175 16.5106 20.6754C16.5553 20.9352 16.3899 21.1786 16.0735 21.3187C15.7935 21.4427 15.5644 21.6482 15.5644 21.7754C15.5644 21.9026 15.3608 22.1339 15.1119 22.2893C14.863 22.4448 14.6594 22.6795 14.6594 22.8109C14.6594 22.9423 14.3488 23.3112 13.9691 23.6306C13.3796 24.1267 13.3009 24.3143 13.4299 24.917C13.5148 25.3134 13.495 25.54 13.3848 25.4341C13.2769 25.3303 13.1887 25.1522 13.1887 25.0381C13.1887 24.924 13.1123 24.8307 13.019 24.8307C12.9257 24.8307 12.7948 24.8307 12.7282 24.8307C12.6616 24.8307 12.7291 25.0598 12.8784 25.3398C13.1192 25.7918 13.1097 25.8159 12.7934 25.555C12.3584 25.1964 12.1624 25.4617 12.4092 26.0751C12.5093 26.324 12.5984 26.4149 12.6071 26.2771C12.6249 25.9968 13.6335 26.0136 14.3064 26.3055C14.5933 26.43 14.7762 26.4034 14.8343 26.229C14.9348 25.9275 15.5644 25.8598 15.5644 26.1505C15.5644 26.2542 15.7171 26.3391 15.9038 26.3391C16.0905 26.3391 16.2432 26.2797 16.2432 26.2071C16.2432 26.0065 20.7937 25.8807 21.6349 26.0581C23.7292 26.4997 24.3635 26.8569 25.0087 27.9579C25.9859 29.6253 25.6028 31.2856 24.0279 32.2085C23.2117 32.6868 22.8453 32.7713 22.066 32.6607C21.539 32.5858 20.9088 32.5196 20.6657 32.5135C20.4225 32.5074 20.1171 32.417 19.9869 32.3128C19.7203 32.0993 18.3442 31.7509 17.827 31.766C16.9167 31.7925 16.6804 31.8633 16.8088 32.071C16.9839 32.3542 16.6635 32.3598 15.9437 32.0861C15.449 31.8981 15.4019 31.9266 15.5121 32.3478C15.5912 32.6504 15.5484 32.7666 15.3931 32.6706C15.2597 32.5881 15.099 32.6486 15.0359 32.8049C14.9729 32.9612 14.9015 32.7837 14.8772 32.4104C14.8511 32.0078 14.791 31.8927 14.7297 32.1275C14.6095 32.5874 14.5641 32.5944 13.564 32.3075C12.9305 32.1258 12.8525 32.1417 13.0729 32.4072C13.217 32.5808 13.5056 32.6684 13.7143 32.6018C14.0196 32.5045 14.0314 32.5251 13.7748 32.7075C13.5995 32.8321 13.3028 32.8754 13.1155 32.8035C12.8938 32.7184 12.8321 32.7652 12.9387 32.9376C13.1635 33.3014 12.8855 33.2708 12.5045 32.8898C12.3327 32.718 12.2554 32.5141 12.3328 32.4367C12.4102 32.3593 12.196 32.3189 11.8569 32.347C11.339 32.3899 11.2962 32.4389 11.5898 32.6536C11.8608 32.8518 11.686 32.8848 10.8105 32.8006C10.0006 32.7228 9.68167 32.7721 9.68167 32.9749C9.68167 33.2006 9.61317 33.2008 9.34228 32.9761C9.1078 32.7815 9.00289 32.7729 9.00289 32.9484C9.00289 33.088 8.84416 33.2023 8.65015 33.2023C8.45615 33.2023 8.35125 33.2894 8.41705 33.3959C8.48285 33.5024 8.29524 33.5433 8.00015 33.4869C7.60539 33.4114 7.42478 33.5067 7.31664 33.8474C7.22384 34.1398 7.04481 34.2626 6.83098 34.1806C6.64448 34.109 6.36021 34.2313 6.19832 34.4527C5.99351 34.7327 5.8555 34.7757 5.74332 34.5942C5.51426 34.2235 5.15649 34.2716 5.15649 34.673C5.15649 35.0821 4.89249 35.1104 4.52297 34.7408ZM9.34228 12.839C9.41919 12.7145 9.52702 12.6127 9.5819 12.6127C9.63677 12.6127 9.68167 12.7145 9.68167 12.839C9.68167 12.9634 9.57384 13.0652 9.44206 13.0652C9.31027 13.0652 9.26537 12.9634 9.34228 12.839ZM14.5462 10.8026C14.4693 10.6782 14.5082 10.5764 14.6327 10.5764C14.7571 10.5764 14.9218 10.6782 14.9988 10.8026C15.0757 10.9271 15.0368 11.0289 14.9123 11.0289C14.7879 11.0289 14.6231 10.9271 14.5462 10.8026ZM14.2068 7.86128C14.0029 7.72949 13.975 7.64057 14.1369 7.63849C14.2851 7.63659 14.4693 7.73684 14.5462 7.86128C14.7198 8.14219 14.6415 8.14219 14.2068 7.86128Z" fill="#252422"/>
</g>
<defs>
<clipPath id="clip0_86_9913">
<rect width="24.8026" height="35" fill="white" transform="translate(0.740623)"/>
</clipPath>
</defs>
</svg>
