<svg width="24" height="35" viewBox="0 0 24 35" fill="none" xmlns="http://www.w3.org/2000/svg">
<g clip-path="url(#clip0_86_9910)">
<path d="M5.07526 34.7757C4.93998 34.6404 4.8475 33.989 4.8475 33.1713C4.8475 31.8085 4.5633 30.7465 4.25034 30.9399C4.16122 30.995 4.0883 30.9446 4.0883 30.8279C4.0883 30.7112 4.00289 30.6685 3.8985 30.733C3.79411 30.7975 3.7087 30.7215 3.7087 30.5642C3.7087 30.1643 2.82191 29.2486 2.57964 29.3984C2.46481 29.4693 2.38011 29.3558 2.38011 29.1309C2.38011 28.874 2.25701 28.7401 2.02082 28.7401C1.82321 28.7401 1.60462 28.5906 1.53507 28.4079C1.43368 28.1416 1.45599 28.1228 1.64763 28.313C2.05093 28.7134 2.27212 28.5757 1.89504 28.159C1.68823 27.9305 1.39516 27.8059 1.19048 27.8594C0.889517 27.9381 0.87506 27.9079 1.08812 27.6457C1.30101 27.3837 1.28908 27.3581 1.00406 27.4649C0.652778 27.5965 0.538978 27.3263 0.861713 27.1268C0.966103 27.0623 1.05021 26.9078 1.04861 26.7834C1.04686 26.6476 0.972264 26.671 0.861713 26.8421C0.714283 27.0702 0.677151 27.0379 0.674822 26.6794C0.672592 26.3364 0.594471 26.2591 0.339766 26.3478C0.0365862 26.4533 0.0375779 26.4401 0.351124 26.1965C0.589449 26.0113 0.627974 25.8883 0.476938 25.795C0.357208 25.721 0.301449 25.4991 0.35303 25.3018C0.40461 25.1046 0.34799 24.8794 0.227214 24.8013C0.106437 24.7233 0.00397549 24.3486 -0.000475298 23.9687C-0.00683357 23.4259 0.054125 23.3003 0.284224 23.3821C0.445259 23.4394 0.522916 23.4256 0.456796 23.3515C0.390676 23.2775 0.402898 22.9228 0.483957 22.5634C0.567508 22.193 0.558866 21.9548 0.464 22.0134C0.371966 22.0703 0.34753 21.9843 0.409696 21.8223C0.471864 21.6603 0.599001 21.5277 0.692222 21.5277C0.785442 21.5277 0.861713 21.3996 0.861713 21.243C0.861713 21.0864 1.03253 20.7875 1.24131 20.5787C1.45009 20.3699 1.62091 20.0388 1.62091 19.8428C1.62091 19.6468 1.75098 19.3785 1.90995 19.2465C2.15507 19.0431 2.17967 19.0612 2.07182 19.3656C1.9705 19.6516 1.99434 19.6787 2.18904 19.4987C2.32346 19.3744 2.4428 19.0198 2.45423 18.7107C2.46565 18.4016 2.53291 18.1842 2.60369 18.2276C2.77461 18.3326 3.00348 17.593 2.86795 17.3737C2.80961 17.2793 2.8903 17.1528 3.04725 17.0926C3.20421 17.0324 3.31804 16.9167 3.30022 16.8355C3.28239 16.7543 3.36701 16.4474 3.48825 16.1535C3.6095 15.8597 3.7087 15.4916 3.7087 15.3357C3.7087 15.1797 3.785 15.0993 3.87825 15.1569C4.03596 15.2544 4.37881 14.3962 4.30923 14.0781C4.29211 13.9998 4.35381 13.9358 4.44635 13.9358C4.53888 13.9358 4.67223 13.5514 4.74268 13.0817C4.81312 12.6119 4.93062 12.2276 5.00378 12.2276C5.07695 12.2276 5.392 11.4802 5.7039 10.5668C6.0158 9.65341 6.33505 8.8776 6.41334 8.84281C6.49163 8.80801 6.55569 8.59016 6.55569 8.3587C6.55569 7.87138 6.96344 6.91684 7.17253 6.91466C7.25083 6.91381 7.31488 6.74236 7.31488 6.53359C7.31488 6.32481 7.40533 6.15399 7.51589 6.15399C7.62644 6.15399 7.66565 6.07108 7.60303 5.96976C7.54041 5.86844 7.62404 5.52472 7.78889 5.20595C7.95373 4.88718 8.06398 4.47897 8.03389 4.29883C8.00206 4.10827 8.0843 3.99311 8.23054 4.02345C8.36878 4.05213 8.42995 3.99155 8.36646 3.88882C8.30297 3.78609 8.33056 3.5491 8.42777 3.36217C8.52498 3.17524 8.7519 2.66478 8.93204 2.22781C9.36162 1.18577 10.2239 0.32333 11.0697 0.0897973C11.6943 -0.0826703 11.8143 -0.0452659 12.5376 0.547379C12.9708 0.90235 13.332 1.30549 13.3402 1.44324C13.3485 1.581 13.4367 1.95241 13.5364 2.2686C13.7604 2.97956 13.6894 4.85404 13.4001 5.86929C13.1057 6.90209 13.0867 6.96079 12.9222 7.34066C12.8429 7.52357 12.8317 7.88656 12.8971 8.1473C12.9657 8.42057 12.9342 8.62138 12.8227 8.62138C12.7163 8.62138 12.6293 8.83994 12.6293 9.10707C12.6293 9.37421 12.5581 9.54879 12.4711 9.49502C12.3841 9.44126 12.3129 9.51787 12.3129 9.66527C12.3129 9.81267 12.3841 9.88928 12.4711 9.83552C12.7952 9.63524 12.6147 10.013 12.2248 10.3512C11.8661 10.6623 11.8559 10.7156 12.1347 10.8226C12.3786 10.9162 12.4003 11.0022 12.2313 11.2058C12.1114 11.3502 12.0879 11.4744 12.179 11.4817C12.27 11.489 12.1737 11.5684 11.965 11.6582C11.6686 11.7855 11.6537 11.8242 11.8972 11.8346C12.0687 11.842 12.2628 11.9882 12.3286 12.1595C12.4293 12.4218 12.4018 12.4326 12.1548 12.2276C11.913 12.027 11.8795 12.0306 11.9646 12.2482C12.0701 12.5182 14.1169 13.5562 14.544 13.5562C14.674 13.5562 14.7285 13.608 14.6651 13.6714C14.6018 13.7347 15.0359 14.0448 15.6299 14.3604C16.2239 14.676 17.0302 15.1865 17.4217 15.4949C17.8131 15.8032 18.1334 16.0022 18.1334 15.9371C18.1334 15.872 18.2614 15.9289 18.4178 16.0635C19.0852 16.6379 19.8416 17.3605 19.8416 17.4237C19.8416 17.4613 20.226 17.8763 20.6957 18.3461C21.1737 18.8241 21.5498 19.3783 21.5498 19.6047C21.5498 19.8273 21.6352 20.0093 21.7396 20.0093C21.844 20.0093 21.9294 20.1751 21.9294 20.3777C21.9294 20.5803 22.0162 20.7998 22.1223 20.8653C22.2284 20.9309 22.2661 21.0641 22.206 21.1612C22.146 21.2584 22.1635 21.4447 22.245 21.5752C22.4145 21.8464 22.4083 21.8129 22.5709 23.3308C22.638 23.9571 22.7363 24.7045 22.7894 24.9916C22.8424 25.2786 22.8147 25.5135 22.7278 25.5135C22.6409 25.5135 22.55 25.8954 22.5258 26.3622C22.5017 26.829 22.3581 27.4482 22.2068 27.7383C22.0555 28.0283 21.9312 28.399 21.9306 28.5619C21.93 28.7249 21.769 29.0304 21.573 29.2408C21.377 29.4512 21.1578 29.809 21.0858 30.0358C21.0138 30.2627 20.8701 30.4483 20.7666 30.4483C20.6631 30.4483 20.6306 30.5327 20.6944 30.6359C20.7582 30.7391 20.6987 30.7807 20.5621 30.7283C20.4176 30.6728 20.1206 30.9459 19.8508 31.3824C19.5961 31.7945 19.3387 32.1159 19.2787 32.0966C19.1537 32.0564 18.6809 32.4281 18.0207 33.0857C17.7695 33.3358 17.564 33.4805 17.564 33.4071C17.564 33.3338 17.3742 33.4067 17.1422 33.5692C16.9102 33.7317 16.4405 33.8647 16.0983 33.8647C15.6766 33.8647 15.4762 33.9548 15.4762 34.1446C15.4762 34.3544 15.3336 34.396 14.9073 34.3108C14.5697 34.2433 14.2225 34.2932 14.0532 34.4337C13.8964 34.5638 13.7681 34.6067 13.7681 34.529C13.7681 34.4512 13.6399 34.4939 13.4834 34.6239C13.2867 34.7871 13.1987 34.7943 13.1987 34.6471C13.1987 34.5299 13.0705 34.4341 12.914 34.4341C12.7574 34.4341 12.6293 34.5045 12.6293 34.5907C12.6293 34.6768 12.338 34.7408 11.982 34.733C11.5002 34.7224 11.383 34.6603 11.5236 34.4902C11.6684 34.3149 11.5758 34.3007 11.1269 34.4295C10.7373 34.5412 10.5415 34.5305 10.5415 34.3976C10.5415 34.2799 10.416 34.3019 10.2362 34.4511C9.97855 34.665 9.8951 34.6553 9.70055 34.3893C9.5738 34.2159 9.22697 34.03 8.92981 33.9761C8.63266 33.9223 8.31986 33.7684 8.23471 33.6342C8.14956 33.5 8.07728 33.4756 8.07408 33.58C8.07089 33.6844 8.00127 33.6643 7.91939 33.5354C7.83751 33.4065 7.5143 33.2497 7.20116 33.1871C6.64486 33.0759 6.63071 33.0918 6.58406 33.8823C6.55781 34.3273 6.49294 34.7616 6.43991 34.8475C6.29352 35.0843 5.33338 35.0338 5.07526 34.7757ZM13.7681 27.0839C14.029 26.9754 14.2977 26.9189 14.365 26.9582C14.4324 26.9975 14.5364 26.9021 14.5963 26.7461C14.6562 26.5901 14.8146 26.4619 14.9483 26.4612C15.1911 26.4599 16.0916 25.2824 16.1618 24.8746C16.1821 24.7563 16.2578 24.4886 16.3299 24.2798C16.4363 23.9717 16.4218 23.9539 16.2528 24.1849C16.0782 24.4236 16.0532 24.4082 16.0981 24.09C16.1275 23.8812 16.215 23.6087 16.2926 23.4845C16.3741 23.3539 16.2565 23.0935 16.0141 22.8676C15.7833 22.6526 15.6527 22.4767 15.7239 22.4767C15.7951 22.4767 15.6677 22.2632 15.4408 22.0022C15.2138 21.7412 14.9104 21.5277 14.7665 21.5277C14.6226 21.5277 14.5467 21.46 14.5978 21.3773C14.6489 21.2946 14.5122 21.2135 14.2939 21.197C14.0757 21.1806 13.8267 21.0561 13.7406 20.9204C13.6182 20.7274 13.5832 20.7357 13.5799 20.9583C13.5772 21.1413 13.4576 21.0735 13.2449 20.7685C12.9068 20.2837 12.6022 20.1337 12.0105 20.1606C11.5624 20.181 11.0881 20.678 11.211 20.9984C11.2748 21.1647 11.1573 21.2679 10.8807 21.2888C10.5442 21.3141 10.5124 21.2825 10.7337 21.1426C10.9129 21.0293 10.9315 20.9631 10.7847 20.9612C10.6575 20.9597 10.5982 20.8414 10.6531 20.6986C10.7113 20.5469 10.5983 20.3984 10.3816 20.3417C10.0913 20.2658 9.98659 20.3638 9.90109 20.7913C9.84096 21.0919 9.69918 21.3379 9.58602 21.3379C9.47286 21.3379 9.43306 21.2525 9.49757 21.1481C9.70056 20.8197 9.40405 20.9415 8.96769 21.3659C8.64073 21.6839 8.62161 21.7478 8.88073 21.6566C9.21353 21.5394 9.35165 21.8951 9.07917 22.1676C9.00563 22.2411 8.91536 22.5261 8.87856 22.8008C8.81743 23.2573 8.84095 23.2771 9.15134 23.0309C9.47667 22.7728 9.4771 22.7832 9.16152 23.2776C8.93075 23.6392 8.90803 23.7647 9.08571 23.6965C9.22989 23.6412 9.33941 23.7256 9.33941 23.892C9.33941 24.0531 9.22553 24.1849 9.08634 24.1849C8.93169 24.1849 8.83328 24.4063 8.83328 24.7543C8.83328 25.0675 8.92444 25.3237 9.03587 25.3237C9.15606 25.3237 9.18639 25.4878 9.11043 25.7271C9.03327 25.9702 9.05581 26.0851 9.16718 26.0162C9.2688 25.9534 9.50289 26.0688 9.68737 26.2727C9.87186 26.4766 10.0968 26.5976 10.1872 26.5417C10.2777 26.4858 10.3517 26.553 10.3517 26.691C10.3517 26.829 10.5438 27.0262 10.7787 27.1292C11.3243 27.3686 13.1498 27.3409 13.7681 27.0839ZM10.7511 26.1199C10.6226 25.8798 10.5521 25.5384 10.5945 25.3612C10.6522 25.1197 10.7281 25.1769 10.8974 25.5897C11.1818 26.2829 11.0649 26.7063 10.7511 26.1199ZM9.17729 24.6246C9.3143 24.5698 9.478 24.5766 9.54107 24.6396C9.60414 24.7027 9.49204 24.7476 9.29196 24.7393C9.07085 24.7302 9.02588 24.6852 9.17729 24.6246ZM10.0568 21.3214C9.98661 21.2079 10.0243 21.02 10.1404 20.9038C10.2955 20.7487 10.3517 20.8036 10.3517 21.1102C10.3517 21.5684 10.2531 21.639 10.0568 21.3214ZM23.7584 26.7213C23.6913 26.2317 23.6729 25.7945 23.7177 25.7498C23.7624 25.7051 23.8583 26.0646 23.9309 26.5488C24.0035 27.0329 24.0219 27.4701 23.9717 27.5203C23.9215 27.5705 23.8255 27.2109 23.7584 26.7213Z" fill="#252422"/>
</g>
<defs>
<clipPath id="clip0_86_9910">
<rect width="24.0009" height="35" fill="white" transform="translate(-0.000915527)"/>
</clipPath>
</defs>
</svg>
