<svg width="22" height="35" viewBox="0 0 22 35" fill="none" xmlns="http://www.w3.org/2000/svg">
<g clip-path="url(#clip0_86_9907)">
<path d="M10.8327 34.8639C10.6923 34.7771 10.4631 34.75 10.3235 34.8035C10.1838 34.8571 10.0695 34.8066 10.0695 34.6913C10.0695 34.576 9.91885 34.4817 9.73469 34.4817C9.55053 34.4817 9.08177 34.2655 8.69299 34.0013C8.30422 33.7372 7.98613 33.5728 7.98613 33.6361C7.98613 33.6993 7.85219 33.6172 7.6885 33.4535C7.26608 33.0311 7.03913 33.0844 7.03913 33.6062C7.03913 34.0965 6.59531 34.5809 6.30846 34.4036C6.20997 34.3427 6.06791 33.7632 5.99277 33.1157C5.88061 32.1494 5.75494 31.844 5.2912 31.4108C4.98049 31.1205 4.60743 30.8831 4.46219 30.8831C4.31696 30.8831 4.19813 30.7978 4.19813 30.6937C4.19813 30.5895 4.00636 30.4975 3.77198 30.4893C3.53759 30.4811 3.45236 30.4314 3.58258 30.3788C3.99397 30.2128 3.839 29.9361 3.33465 29.9361C3.05749 29.9361 2.90044 29.8544 2.96785 29.7453C3.03269 29.6404 2.95573 29.5047 2.79684 29.4437C2.63795 29.3828 2.45595 29.169 2.3924 28.9688C2.32885 28.7686 2.19776 28.6536 2.10109 28.7134C2.00442 28.7731 1.92532 28.6952 1.92532 28.5403C1.92532 28.3853 1.81594 28.1459 1.68226 28.0082C1.33793 27.6537 1.35031 24.6421 1.69554 24.7746C1.83044 24.8264 1.92044 24.7944 1.89554 24.7034C1.7936 24.3313 2.20182 23.5783 2.82331 22.9921C3.53387 22.322 4.44896 22.0499 5.28593 22.26C5.57308 22.3321 5.83579 22.3785 5.86972 22.3631C5.90365 22.3478 6.08276 22.5097 6.26775 22.723C6.45273 22.9363 6.67302 23.0484 6.75727 22.9722C6.84152 22.8959 6.8568 22.9277 6.79123 23.0428C6.72565 23.1579 6.89396 23.4562 7.16524 23.7057C7.6206 24.1245 8.55432 25.9039 8.55432 26.3529C8.55432 26.4596 8.7674 26.8605 9.02782 27.2438C9.28825 27.627 9.50132 27.8747 9.50132 27.7943C9.50132 27.7138 9.73506 27.8647 10.0207 28.1296C10.7049 28.764 11.5586 29.0293 12.536 28.9115C13.4501 28.8013 14.0879 28.4372 14.9126 27.5546C15.8625 26.538 16.2637 24.6296 15.602 24.2754C15.4156 24.1756 15.1455 23.8743 15.0018 23.6058C14.8581 23.3373 14.6618 23.1177 14.5656 23.1177C14.4695 23.1177 14.1755 22.9484 13.9125 22.7414C13.6494 22.5345 13.3686 22.4057 13.2885 22.4553C13.2084 22.5048 13.0375 22.4184 12.9088 22.2633C12.7801 22.1082 12.5318 21.9813 12.357 21.9813C12.1823 21.9813 11.9455 21.8875 11.8308 21.7728C11.6791 21.6211 11.588 21.6727 11.4961 21.9622C11.3097 22.5493 10.916 22.4472 10.4734 21.6972C10.2583 21.3326 9.99517 21.0343 9.88868 21.0343C9.68314 21.0343 9.10907 20.6006 8.5456 20.0198C8.34758 19.8156 8.10675 19.7286 7.97137 19.8123C7.82797 19.9009 7.7866 19.8781 7.8639 19.753C7.93304 19.6411 7.85555 19.4155 7.69169 19.2517C7.52784 19.0878 7.44685 18.8679 7.51173 18.7629C7.5766 18.6579 7.52521 18.5721 7.39754 18.5721C7.26986 18.5721 7.21525 18.5222 7.27619 18.4613C7.33713 18.4003 7.30641 18.1193 7.20792 17.8368C6.87384 16.8784 7.80143 15.0866 8.93313 14.5043C9.19355 14.3703 9.79016 14.1991 10.2589 14.124C12.3856 13.7829 13.9026 12.5519 14.6375 10.571C15.0287 9.51648 15.1304 8.12174 14.8621 7.49216C14.5228 6.6959 13.8102 5.69286 13.5838 5.69286C13.4539 5.69286 13.095 5.56689 12.7864 5.41293C12.4778 5.25896 11.8894 5.11322 11.4788 5.08905C10.7232 5.04455 9.31193 5.42077 9.31193 5.66671C9.31193 5.74035 9.03493 5.9617 8.69638 6.15861C8.35782 6.35552 8.02565 6.59916 7.95821 6.70002C7.78517 6.95884 6.29623 7.14958 5.61863 6.99973C5.30612 6.93062 5.13334 6.864 5.23469 6.85167C5.33603 6.83935 5.1461 6.58006 4.81263 6.27548C4.42486 5.9213 4.29017 5.68776 4.43897 5.62753C4.57127 5.57398 4.58353 5.52692 4.46739 5.51841C4.134 5.49401 4.57999 3.22159 5.05779 2.51017C5.6619 1.61071 6.4973 1.05719 7.94694 0.595886C9.76752 0.0165427 11.8052 -0.157395 13.1779 0.149358C14.5911 0.465139 16.5487 1.39234 17.2503 2.07822C18.0429 2.85301 19.1704 4.55744 19.2918 5.16433C19.3499 5.45502 19.466 5.69286 19.5498 5.69286C20.0358 5.69286 20.2189 9.5296 19.8288 11.5406C19.6051 12.6941 18.0554 15.4297 16.9353 16.6485C16.7009 16.9035 16.5104 17.1637 16.512 17.2266C16.5175 17.4434 16.8358 17.8467 16.9514 17.7833C17.0151 17.7483 17.8744 18.4692 18.861 19.3851C20.5382 20.9424 20.6932 21.1505 21.2485 22.5903C21.7744 23.9541 21.8308 24.2834 21.7414 25.4706C21.6209 27.0706 21.3255 28.3583 20.9451 28.9417C20.7922 29.1761 20.7166 29.3679 20.777 29.3679C20.8373 29.3679 20.7357 29.6236 20.5511 29.9361C20.3665 30.2486 20.1513 30.5043 20.0728 30.5043C19.9944 30.5043 19.9753 30.6218 20.0305 30.7656C20.0856 30.9093 19.9125 31.1985 19.6457 31.4084C19.379 31.6182 19.1607 31.8377 19.1607 31.8961C19.1607 32.27 17.0566 33.9309 15.8412 34.5163C15.0439 34.9003 14.5803 34.9786 12.9886 34.9983C11.9433 35.0111 10.9731 34.9507 10.8327 34.8639ZM0.978325 28.7997C0.978325 28.6955 1.06355 28.6103 1.16772 28.6103C1.27189 28.6103 1.35712 28.6955 1.35712 28.7997C1.35712 28.9038 1.27189 28.9891 1.16772 28.9891C1.06355 28.9891 0.978325 28.9038 0.978325 28.7997Z" fill="#252422"/>
</g>
<defs>
<clipPath id="clip0_86_9907">
<rect width="20.7977" height="35" fill="white" transform="translate(0.978325)"/>
</clipPath>
</defs>
</svg>
