<svg width="25" height="35" viewBox="0 0 25 35" fill="none" xmlns="http://www.w3.org/2000/svg">
<g clip-path="url(#clip0_86_9904)">
<path d="M20.9354 34.904C20.7943 34.7629 19.3666 34.5643 18.198 34.5232C17.5841 34.5017 17.0655 34.3642 16.9029 34.1799C16.7118 33.9634 16.6752 33.9566 16.7789 34.1571C16.8979 34.387 16.7757 34.4133 16.1409 34.2941C15.4032 34.1557 15.373 34.1694 15.6407 34.5219C15.8848 34.8433 15.8845 34.8603 15.6386 34.6409C15.4807 34.5 14.963 34.3848 14.488 34.3848C14.0131 34.3848 13.5938 34.3008 13.5563 34.1982C13.4438 33.8906 11.8401 33.8477 11.9061 34.154C11.937 34.2977 11.8682 34.3571 11.7532 34.286C11.3361 34.0281 10.6454 33.9898 10.3803 34.2098C10.1833 34.3735 10.1092 34.3734 10.1092 34.2097C10.1092 34.0758 9.77752 34.0033 9.29111 34.031C8.84118 34.0566 8.47257 34.158 8.47199 34.2563C8.47138 34.3546 8.35574 34.3445 8.21495 34.2339C8.07417 34.1233 7.36 34.0139 6.62791 33.9908C4.38202 33.9199 3.9986 33.8828 4.08372 33.745C4.12886 33.672 3.93648 33.5683 3.65622 33.5147C3.36143 33.4584 3.14534 33.5133 3.14352 33.645C3.14164 33.7818 3.07299 33.7663 2.97151 33.6063C2.87863 33.4598 2.60754 33.3252 2.3691 33.3073C2.13065 33.2893 1.97329 33.2368 2.0194 33.1907C2.15702 33.053 1.62477 32.6055 1.14051 32.4517C0.892336 32.3729 0.689294 32.1764 0.689294 32.0149C0.689294 31.8535 0.55396 31.7214 0.388551 31.7214C0.205357 31.7214 0.133881 31.6013 0.205681 31.4141C0.270511 31.2451 0.244582 31.1067 0.14806 31.1066C-0.0561444 31.1064 -0.0467797 29.7629 0.161672 29.1539C0.294673 28.7653 1.2166 28.206 1.91797 28.0884C3.95255 27.7473 8.07034 27.6434 8.45903 27.9234C8.66616 28.0726 8.7151 28.0705 8.62294 27.9163C8.54096 27.7792 8.73787 27.6914 9.14678 27.6829C10.6437 27.6516 10.9271 27.5456 10.9476 27.0094C11.0431 24.5093 11.1045 23.7384 11.2237 23.5456C11.2997 23.4224 11.259 23.3216 11.1331 23.3216C10.9981 23.3216 10.9721 23.2165 11.0698 23.0655C11.2871 22.7296 11.2855 17.7903 11.0681 17.7901C10.976 17.7901 10.9592 17.6056 11.0307 17.3803C11.107 17.1397 11.0675 16.9705 10.9349 16.9705C10.7778 16.9705 10.7714 16.854 10.9139 16.5877C11.1658 16.1168 11.018 15.9505 10.331 15.9318C9.85169 15.9187 9.84046 15.9008 10.2115 15.7413C10.6023 15.5733 10.6 15.5646 10.1604 15.5508C9.90694 15.5429 9.6996 15.609 9.6996 15.6977C9.6996 15.7864 9.52054 15.8725 9.30169 15.889C9.03397 15.9091 8.94063 15.8228 9.01643 15.6253C9.07838 15.4637 9.02707 15.3315 8.90239 15.3315C8.77771 15.3315 8.6757 15.43 8.6757 15.5502C8.6757 15.6824 8.49721 15.7122 8.2245 15.6256C7.78273 15.4854 7.78135 15.4904 8.15868 15.8679C8.53601 16.2454 8.53597 16.255 8.15684 16.3281C7.94391 16.3691 7.73547 16.3 7.69364 16.1744C7.65189 16.0489 7.52776 15.9462 7.41787 15.9462C7.30798 15.9462 7.28727 16.0614 7.37186 16.2023C7.49124 16.4011 7.45946 16.4049 7.22978 16.2192C7.00306 16.0359 6.85104 16.0407 6.57931 16.2395C6.38428 16.3821 6.29239 16.5714 6.37511 16.66C6.45783 16.7487 6.31307 16.7105 6.05341 16.5753C5.79375 16.44 5.47122 16.3741 5.33668 16.4289C5.20214 16.4837 5.25332 16.5357 5.45042 16.5446C5.64752 16.5535 5.80879 16.6684 5.80879 16.7998C5.80879 16.9313 5.74815 16.9782 5.67404 16.904C5.59993 16.8299 5.42533 16.8639 5.28604 16.9795C5.10011 17.1339 5.04066 17.0926 5.06242 16.8241C5.08331 16.5663 4.95602 16.4656 4.6313 16.4829C4.22252 16.5047 4.08356 16.3445 4.1393 15.916C4.14879 15.843 3.97651 15.8304 3.75648 15.888C3.50567 15.9536 3.3091 15.8693 3.22962 15.6621C3.15989 15.4803 2.95143 15.333 2.76638 15.3347C2.47433 15.3374 2.47046 15.364 2.73709 15.5364C2.90603 15.6457 2.99819 15.7435 2.94187 15.7538C2.88556 15.7642 2.6846 15.8026 2.4953 15.8392C2.28103 15.8806 2.18967 15.8052 2.25328 15.6394C2.30947 15.4929 2.24278 15.3033 2.10507 15.2182C1.93309 15.1118 1.90419 15.1535 2.01278 15.3511C2.09973 15.5094 1.93386 15.3759 1.64418 15.0544C1.24526 14.6118 1.14564 14.3292 1.23353 13.8896C1.3319 13.3975 1.29151 13.3243 0.968233 13.4089C0.630726 13.4972 0.586904 13.3802 0.586904 12.3909C0.586904 11.7762 0.654599 11.3151 0.737335 11.3662C0.820072 11.4174 1.07049 11.1586 1.29382 10.7912C1.60157 10.2849 1.63951 10.0814 1.45056 9.95058C1.28526 9.83611 1.33864 9.79973 1.60897 9.84262C2.15777 9.92968 3.77119 8.13127 3.66044 7.55592C3.61696 7.33003 3.66788 7.09174 3.77358 7.02638C3.87928 6.96102 3.97304 7.07433 3.98194 7.27817C3.99194 7.50744 4.03858 7.54785 4.10424 7.38414C4.19098 7.16787 4.26937 7.16787 4.53314 7.38414C4.81315 7.61373 4.84018 7.58772 4.73718 7.18782C4.64968 6.84811 4.70768 6.72603 4.95764 6.72372C5.1442 6.722 5.43506 6.6211 5.60401 6.49952C5.85367 6.31984 5.83567 6.30328 5.50786 6.41105C5.28603 6.48397 5.17005 6.4781 5.25011 6.398C5.33017 6.31791 5.28128 6.11383 5.14148 5.94451C4.91694 5.67258 4.94177 5.67038 5.35428 5.92566C5.75973 6.17658 5.84999 6.17417 6.03913 5.90736C6.22156 5.65002 6.23794 5.65911 6.13988 5.96332C6.04311 6.26353 6.08841 6.29145 6.40081 6.12418C6.60872 6.01286 6.81509 5.94158 6.8594 5.96579C6.90372 5.98999 6.82154 5.90587 6.67678 5.77885C6.46775 5.59543 6.49892 5.52557 6.8282 5.43943C7.08939 5.37109 7.19311 5.4114 7.10849 5.54837C7.02882 5.67734 7.07172 5.70549 7.21394 5.61755C7.34581 5.53601 7.39101 5.36781 7.31438 5.24377C7.22619 5.10101 7.2939 5.06386 7.49887 5.14255C7.69106 5.21634 7.87214 5.13794 7.94435 4.94968C8.02908 4.72878 7.97405 4.6678 7.76307 4.7488C7.59646 4.81276 7.40567 4.77693 7.33911 4.66917C7.27231 4.56105 7.49508 4.47324 7.83621 4.47324C8.2473 4.47324 8.6291 4.2847 8.97606 3.91034C9.26301 3.60074 9.41226 3.31891 9.30774 3.28405C9.01162 3.1853 9.7501 2.04934 10.1843 1.93575C10.4347 1.87023 10.5285 1.72123 10.4494 1.5148C10.3726 1.31473 10.4392 1.19527 10.6275 1.19527C10.7929 1.19527 10.9283 1.06156 10.9283 0.898135C10.9283 0.499482 11.5042 0.1992 12.0133 0.332396C12.3049 0.408699 12.38 0.366192 12.2695 0.187304C12.1507 -0.00496955 12.3452 -0.0401837 13.0796 0.0406135C14.1425 0.15755 15.6382 1.01763 15.6382 1.51191C15.6382 1.68287 15.7842 1.87878 15.9625 1.94726C16.1891 2.03423 16.2154 2.11599 16.0498 2.21837C15.8798 2.32351 15.908 2.46029 16.1497 2.70205C16.338 2.89049 16.3845 3.03913 16.2551 3.03913C16.1245 3.03913 16.0912 3.14858 16.1787 3.29016C16.4276 3.69307 16.3298 7.82789 16.0693 7.91476C15.9448 7.95627 15.843 8.07186 15.843 8.17161C15.843 8.27137 15.9812 8.29992 16.1502 8.23506C16.3191 8.1702 16.4573 8.21919 16.4573 8.34392C16.4573 8.46866 16.3783 8.57072 16.2816 8.57072C16.1177 8.57072 16.1089 8.86439 16.2126 10.8876C16.2346 11.3168 16.3366 11.616 16.4394 11.5525C16.5421 11.489 16.5952 11.5988 16.5574 11.7965C16.5196 11.9942 16.474 12.156 16.4562 12.156C16.4383 12.156 16.38 12.4326 16.3266 12.7706C16.2732 13.1087 16.2004 13.5696 16.1648 13.795C16.1291 14.0204 16.1868 14.372 16.2929 14.5764C16.4163 14.8143 16.4112 15.0379 16.2785 15.1979C16.1558 15.3458 16.1441 15.5657 16.2498 15.7368C16.348 15.8958 16.3792 16.3537 16.3191 16.7543C16.1468 17.9031 16.1343 20.8926 16.3015 20.9959C16.3847 21.0473 16.3152 21.2994 16.1472 21.556C15.9791 21.8127 15.8968 22.0779 15.9644 22.1455C16.0826 22.2638 16.265 24.6017 16.2874 26.2864C16.3 27.2392 16.641 27.5636 17.6763 27.6078C21.5921 27.7747 22.5704 27.9212 22.7409 28.3657C22.8 28.5199 22.9123 28.6065 22.9903 28.5582C23.2281 28.4112 23.5033 28.7115 23.9177 29.5703C24.3415 30.4483 24.4526 32.777 24.0768 32.9023C23.9646 32.9397 23.9203 33.1517 23.9782 33.3733C24.0619 33.6935 24.0084 33.7474 23.7181 33.636C23.5026 33.5532 23.4029 33.577 23.4751 33.6939C23.5425 33.803 23.5115 34.0261 23.4063 34.1897C23.2399 34.4486 23.1889 34.4474 23.0134 34.1799C22.8666 33.9562 22.8109 33.9455 22.8086 34.1408C22.807 34.2883 22.7208 34.3566 22.6172 34.2926C22.5137 34.2285 22.3055 34.2997 22.1546 34.4506C22.0038 34.6015 21.766 34.6869 21.6262 34.6403C21.4864 34.5937 21.372 34.6554 21.372 34.7775C21.372 35.0025 21.1098 35.0785 20.9354 34.904ZM4.60552 15.8915C4.40327 15.6907 4.37975 15.7142 4.49088 16.0062C4.56779 16.2083 4.68229 16.322 4.74534 16.2589C4.80839 16.1958 4.74544 16.0305 4.60552 15.8915ZM6.42313 15.9242C6.42313 15.6592 5.84223 15.5635 5.74661 15.8128C5.69182 15.9556 5.81655 16.0632 6.03683 16.0632C6.24929 16.0632 6.42313 16.0007 6.42313 15.9242ZM7.6518 15.6608C7.6518 15.6165 7.51358 15.5272 7.34463 15.4623C7.17569 15.3975 7.03746 15.4337 7.03746 15.5429C7.03746 15.652 7.17569 15.7413 7.34463 15.7413C7.51358 15.7413 7.6518 15.7051 7.6518 15.6608ZM11.0307 15.3315C10.9611 15.2189 10.7022 15.1332 10.4554 15.1411C10.0229 15.155 10.0215 15.1618 10.4163 15.3315C10.98 15.5739 11.1804 15.5739 11.0307 15.3315ZM1.1364 12.0092C0.989455 11.8622 0.894074 11.8501 0.894074 11.9784C0.894074 12.2519 1.13625 12.4942 1.27292 12.3575C1.33111 12.2992 1.26967 12.1425 1.1364 12.0092ZM5.39923 7.12451C5.39923 7.01848 5.30708 6.93173 5.19445 6.93173C5.08182 6.93173 4.98967 7.07546 4.98967 7.25113C4.98967 7.4268 5.08182 7.51355 5.19445 7.44391C5.30708 7.37427 5.39923 7.23054 5.39923 7.12451ZM3.38076 16.7881C3.22795 16.6913 3.18188 16.5641 3.27837 16.5055C3.37487 16.4469 3.57264 16.5275 3.71787 16.6847C4.01048 17.0015 3.81288 17.0621 3.38076 16.7881ZM1.91797 9.27569C1.91797 9.10001 2.01163 9.01419 2.12609 9.08497C2.24056 9.15574 2.28119 9.29947 2.2164 9.40437C2.04085 9.68854 1.91797 9.63555 1.91797 9.27569Z" fill="#D3831D"/>
</g>
<defs>
<clipPath id="clip0_86_9904">
<rect width="24.3056" height="35" fill="white"/>
</clipPath>
</defs>
</svg>
