<svg width="61" height="19" fill="none" xmlns="http://www.w3.org/2000/svg"><path d="m56.793 6.714-3.55-.124c-12.056-.165-24.07.951-36.042 2.15-4.129.496-8.34.745-12.427 1.365-1.486.579-1.032 2.935.578 2.893 15.977-1.818 31.996-3.307 48.056-3.803 1.363-.083 2.725-.207 4.046-.248.33-.041.743.04 1.073-.124.413-.124.66-.579.66-.992-.081-1.282-1.486-1.075-2.394-1.117Z" fill="#252422"/><path d="M57.495 3.861c-2.229-.992-4.541-1.818-6.812-2.728-.702-.29-1.404-.538-2.105-.827-.372-.124-.785-.372-1.198-.29-1.445.166-1.569 2.274-.165 2.647 2.973 1.198 6.977 2.646 8.876 3.514.578.29 1.157.579 1.734.91-.99 1.033-3.178 2.894-4.459 3.969-.784.66-1.61 1.322-2.394 1.984l.041-.042c-.04 0-.04.042-.082.042-.62.537-1.445 1.033-1.404 1.984 0 .869.785 1.654 1.652 1.654 1.197-.206.867-.33 1.403-.661 1.074-.827 2.065-1.778 3.056-2.646 1.196-1.117 2.394-2.191 3.55-3.39.66-.786 1.445-1.571 1.734-2.564.33-1.985-2.023-2.77-3.427-3.556Z" fill="#252422"/><mask id="a" style="mask-type:luminance" maskUnits="userSpaceOnUse" x="0" y="0" width="16" height="19"><path d="M.953.456h14.413v18.022H.953V.457Z" fill="#fff"/></mask><g mask="url(#a)"><path d="M15.136 16.389c-.453-.745-1.403-.745-2.146-1.075a86.497 86.497 0 0 1-4.624-1.488c-1.94-.745-2.932-.952-4.129-1.654 1.239-1.447 4.583-4.63 6.564-6.45l2.808-2.563c.248-.249.413-.662.413-1.034.041-1.282-1.693-2.026-2.56-1.075C8.283 4.027 4.94 6.92 2.05 10.187c-2.6 2.77.248 4.672 2.89 5.5 1.57.578 3.18 1.157 4.79 1.653 1.444.372 2.93 1.075 4.417 1.116.95-.083 1.486-1.282.99-2.067Z" fill="#252422"/></g></svg>