<svg xmlns="http://www.w3.org/2000/svg" width="500" height="500" version="1.0" viewBox="0 0 375 375"><defs><clipPath id="a"><path d="M34 147.59h303v62.25H34Zm0 0"/></clipPath></defs><g clip-path="url(#a)"><path d="M56.402 188.41h-4.574c-1.203 0-1.867.063-1.324 1.684.36 1.02-2.77 2.64-3.672 1.86-1.383-1.142-.36-1.923.66-2.642.305-.18.543-.421.844-.66-.36-.12-.723-.242-1.023-.3-1.684-.18-2.887.418-3.91 1.8-.481.66-1.567.84-1.688-.242-.18-1.62-1.504-2.281-2.227-3.48-1.203-1.922-1.14-3.063.242-4.801.782-.961 2.047-1.563 1.868-3.121-.063-.602.539-.844 1.082-.66 3.25 1.02 4.394.418 7.101-.66 3.61-1.504 7.102-3.606 11.254-3.485 1.024.063 1.684-.36 2.469-.66 3.851-1.441 7.703-2.402 11.793-3.121 3.308-.602 6.68-.899 9.992-1.5 2.527-.36 4.152-2.64 6.137-4.203 1.926-1.559 3.73-3 6.32-2.88 1.805.118 3.25-.78 4.574-1.62 2.164-1.383 4.57-2.164 6.86-3.242 2.047-.961 4.632-.903 6.98-1.204 1.383-.18 2.77-.18 4.211-.117 1.266 0 2.41.059 3.133-1.441.36-.723 1.32-1.68 2.465-.48.664.66 1.082.18 1.504-.36.785-1.023 1.203-.36 1.746.3.543.72 0 2.16 1.625 2.16 1.324 0 2.527-.12 3.308-1.44.243-.48.602-.903 1.145-.602.242.121.3.66.363 1.023.48 2.52.48 2.7 3.008 2.399 1.504-.18 2.527 0 3.129 1.383.723 1.558 2.047 1.68 3.492 1.62 1.383-.062 2.766-.062 4.211-.062 1.145 0 2.047.063 2.527-1.5.36-1.261 2.168-1.082 2.59.301.48 1.379 1.203 1.441 2.285 1.32 5.055-.601 10.172-.359 15.227-.66.36 0 .96.059 1.14-.12 1.688-1.923 3.313-1.86 4.997-.06 2.226-1.14 4.632-.3 6.922-.3 5.054.058 10.23-1.2 15.285.18.843.242 1.804.359 2.648.12 2.887-.84 5.777-.18 8.606-.359 2.77-.18 5.835.48 8.484-1.14.664-.422 1.324-.903 2.11-.301.117.058.238.12.359.12 1.746.36.78-2.163 2.586-2.222 1.445 0 1.566 2.16 3.191 1.32 2.168-1.14 4.453-1.32 6.922-1.32.902 0 1.863-.48 2.828.059.3.18.781 0 1.14.18 1.747.722 2.532-2.16 3.794-1.32 1.504 1.023 2.949 1.26 4.632 1.26 1.504 0 3.07-.12 4.516.54.54.242 1.082.121 1.324-.36.602-1.14 1.262-1.019 2.047-.238.18.239.719.66.781.301.48-2.941 2.348-.543 3.43-.96.723-.243 1.145.116 1.383.839.601 1.922 2.226 2.16 3.914 2.281 1.383.059 2.766.059 4.21.117.782 0 1.688 0 2.048-.718.722-1.38.96-2.403 2.527-.48.902 1.14 4.934.3 6.02-.72.78-.722-.543-1.382.117-2.043.363-.359.664-.84 1.207-.78.719.062.66.66.539 1.14-.18.601-.48 1.14-.66 1.742-.363 1.262.422 1.86 1.324 1.383 1.14-.602 1.625-.301 2.586.36 2.047 1.32 4.574.839 6.68.3 4.636-1.203 9.328-1.383 13.964-1.984 3.067-.36 6.196-.059 9.266.363.664.058 1.203.297 1.805-.063 1.746-1.078 3.012.243 4.574.66 1.324.364 3.191-1.14 4.332-.117 2.11 1.801 5.54 2.282 6.078 5.762.184 1.078 1.145 1.621 1.867 2.34 1.805 1.742 2.887 3.484 2.106 6.305-.48 1.738 0 3.84-1.684 5.16-2.828 2.281-5.719 4.504-8.547 6.726-1.144.84-2.164-.12-3.25-.3-2.765-.543-5.355-1.442-7.101-3.782-.602-.843-1.504-.781-2.348-1.082-2.527-.781-4.871-1.922-7.281-3-2.766-1.261-6.016-1.62-9.145-2.043-6.02-.781-12.097-.601-18.117-1.5-1.863-.3-3.789-.12-5.715-.12-3.613-.06-7.222-.122-10.773-.661-1.504-.238-2.047.723-2.047 1.98 0 1.204-.059 2.403-1.504 2.704-1.566.3-3.07.117-4.21-1.141-.544-.543-.786-1.32-1.325-1.8-.902-.903-2.11-1.743-3.371-1.442-5.117 1.262-10.172-.18-15.285-.059-3.192.117-6.38.36-9.57.598-2.47.18-4.876-.3-7.403-.18-3.488.18-7.102 0-10.652.18-4.153.242-8.305 0-12.395.18-3.25.18-6.5.601-9.691 1.082-.602.058-1.082.238-1.746.058-2.286-.777-4.57-.48-6.68.422-3.008 1.262-6.258.238-9.328 1.32-3.73 1.32-7.762.899-11.613.899-.903 0-1.926-.117-2.59.3-3.91 2.165-8.242 1.383-12.336 2.102-4.453.723-8.965 1.02-13.36 2.043-4.754 1.078-9.75 1.438-14.562 2.461-3.793.84-7.766.781-11.434 2.16-.242.059-.543.121-.722.059-3.43-1.5-6.68.84-9.993.601-2.828-.18-5.414.961-8.304.782-2.465-.121-5.055 1.14-7.524 1.98-.66.238-1.14.899-1.984.781-.48-.062-1.082-.062-.961.72.059.358.3.722.781.722 2.528-.063.903 1.617.723 2.219-.422 1.62-1.266.421-1.988.058-.723-.297-.961-.297-1.203-.418-1.024-.48-.961-2.34-2.47-1.98-1.081.238-2.105.78-2.886 1.68-.543.538-1.203 1.14-1.867.242-.48-.602-.66-1.204.183-1.922 1.141-1.02.418-1.5-.722-1.5-1.805-.121-3.551-.063-5.356-.063ZM109 194.535c-.063.598-.121 1.559-.844 1.442-1.867-.243-3.43.777-5.176.957-2.585.18-4.632 1.921-7.043 2.703-.84.238-1.683 1.199-1.44 2.46.179 1.083 1.202 1.262 1.983 1.563 1.082.418 2.168.059 3.31-.12 4.214-.724 8.425-1.321 12.64-1.864.902-.117 1.746 0 2.527-.54 1.262-.898 1.984-.359 2.586.962.3.66.723 1.922 1.867 1.5 1.203-.418 1.324-1.32.543-2.403-.484-.66 0-1.199.719-1.257 4.094-.422 8.246-.723 12.34-1.204 3.668-.418 7.582.844 10.953-.597 3.789-1.621 7.64-.301 11.37-1.082 1.567-.36 2.29 2.222 3.673 1.082 1.144-.961 2.347-1.32 3.73-1.563.723-.12 1.508-.48 2.227-.36 1.144.24 2.648.122 2.59 2.04 0 .48.422.96 1.023.902.54-.058 1.082-.601.961-1.02-.781-2.761.602-2.702 2.59-2.1.3.12.84.058 1.082-.18 2.828-1.922 5.598-1.743 8.305.12.48.297 1.023.419 1.382.06.907-.724 1.207-.423 1.926.48 1.207 1.5 1.867 1.261 2.59-.782.3-.898.723-1.379 1.504-1.32 1.504.18 3.43-1.86 4.633.719.062.12.785.18 1.023 0 3.192-2.219 6.32-.66 9.39.12 1.442.36 2.645 1.083 3.552 2.583 1.625 2.582 1.804 2.402 4.332.66 2.047-1.441 3.91-2.582 6.98-1.742 2.77.723 5.957.601 9.086.062 2.711-.48 5.418-1.023 8.426-.242 2.289.602 4.996 1.262 7.644.36 2.828-.957 2.887-.84 4.754 1.8.961 1.32 1.805 2.102 3.73 1.32.966-.417 2.891-.84 3.192 1.442.117.902 1.02 1.14 1.805.723.96-.48 1.14-1.203.422-2.164-.485-.598-.785-1.32-1.024-2.04-.183-.6-.12-1.261.54-1.68 1.144-.66 4.995.36 5.84 1.56.96 1.382 2.527 2.101 4.152 2.101.48 0 1.023.18 1.503.242 1.625.239 3.008-.12 3.852-1.683 1.203.84 2.469 1.382 3.91.543 1.086-.602 2.168-1.262 3.25-1.922.723-.422 1.504-.602 2.106-.063 1.023.961 2.109 2.524 3.37 1.563.844-.602-.78-2.04-1.023-3.242-.058-.36.063-.782.242-1.079.36-.66.844-.242 1.262-.062.242.121.422.3.606.422.718.418 1.382.597 2.043-.121.601-.602 0-1.082-.118-1.68-.543-2.16-2.23-3.96-1.925-6.426.058-.66-.485-1.199-1.086-1.437-1.262-.48-1.985-1.504-2.887-2.461-.902-.961-1.867-1.383-3.313-1.504-5.234-.54-10.347-1.32-15.644-1.14-1.746.062-3.371.542-5.117.48-4.153-.18-8.242.902-12.278 1.62-1.863.36-3.488 1.263-5.414.302-.3-.121-.722.058-1.086.18-2.886.84-5.773.421-8.722.48-1.324.062-2.89.18-3.672-1.442-.242-.539-.965-.718-1.266-.359-1.203 1.32-2.886.48-4.332 1.02-2.285.902-4.394.3-6.136-1.438-.485-.543-1.145-.723-1.688-.543-1.262.48-2.285 3.422-3.789.242-.184.117-.484.239-.602.418-.964 1.563-2.168 1.32-3.851 1.203-2.168-.12-4.453 0-6.621.059-1.989.059-3.973-.719-5.899-.18-6.257 1.742-12.757 1.442-19.078 2.04-6.015.6-11.855 2.163-17.812 2.94-1.926.243-3.79-.058-5.657.364-2.828.598-5.656.957-8.546 1.258-3.13.363-6.317.722-9.45.84-1.804.062-3.488 1.082-5.113 1.082-3.973-.059-7.644.718-11.133 2.46-2.406 1.262-5.176.723-7.644 1.622Zm183.55 6.66c-.3-.66-1.144-.84-1.507-.117-.719 1.442-1.863 2.52-2.828 3.723-.422.539-.059.898.543 1.078 1.805.18 4.512-3.121 3.793-4.684Zm-249.027 1.383c.18 1.2.84 2.582 1.864 2.34 1.386-.36.785-1.68.18-2.7-.18-.3-.301-.722-.239-1.023.059-.718-.121-1.199-.965-1.199-1.023 0-1.203.66-1.082 1.5.121.363.18.723.242 1.082Zm7.461-2.223c-.058-.238-.66-.359-.96-.359-.422 0-.606.422-.606.781.062 1.621.785 3.063 1.387 4.5.12.301.48.602.902.422.36-.18.543-.48.48-1.441-.3-.899-.722-2.399-1.203-3.903Zm9.387-7.921c-.719-.961-1.684-1.02-2.766-.723-.421.121-1.503 3.062-1.265 3.305.18.18.422.297.601.359.723.121 3.493-1.563 3.614-2.223-.063-.238-.063-.539-.184-.718Zm222.367 11.105c.063.719.364 1.68 1.325 1.379.902-.238 1.988-.598 1.925-1.922-.058-.957-.902-.539-1.383-.66-.902-.059-1.984-.18-1.867 1.203Zm-32.855-54.328c-.723.18-1.567.723-1.508 1.8 0 .782.543.66 1.023.723.844.059 1.504-.18 1.387-1.261-.183-.54-.363-1.442-.902-1.262Zm-5.961-.059c.183-.718-.18-1.382-.723-1.441-.719-.121-1.383.48-1.562 1.14-.18.66.36 1.083 1.023 1.32.723 0 1.082-.358 1.262-1.019Zm28.527 53.547c0-.722-.242-1.14-1.023-1.203-.965-.059-1.324.48-1.266 1.383 0 .84.363 1.379 1.266 1.5.844-.242 1.023-.902 1.023-1.68Zm13.18-49.824c0 .777.601 1.02 1.324 1.02.48 0 1.203.058 1.203-.54.059-.84-.48-1.32-1.324-1.562-.723-.059-1.203.3-1.203 1.082ZM54.113 191.172c.063.723.48 1.2 1.203 1.02 1.024-.239.965-1.02.844-1.801-.058-.54-.36-.899-.902-.961-.844.242-1.203.902-1.145 1.742Zm54.766 3.422c.3-.719 1.324-1.5.058-2.223-.539-.297-1.261-.238-1.804.121-.48.301-.543.903-.36 1.383.36 1.258 1.325.777 2.165.719Zm172.297 8.105c-.063-.722-.664-1.441-1.504-1.383-.664 0-1.086.543-1.086 1.262 0 .84.601.961 1.387.961.48-.062 1.324.059 1.203-.84Zm-240.242.66c-.059-.48-.422-.96-1.024-.902-1.082 0-1.082.781-1.082 1.563 0 .539.18.96.844 1.02.723-.36 1.383-.84 1.262-1.68Zm128.246-48.445c.36-.059.78-.418.601-.84-.3-.66-.722-1.441-1.625-1.082-.48.184-.844.602-.781 1.14.3.962 1.082.962 1.805.782ZM56.28 207.56c-.843.12-.843.722-.781 1.382.059.54.36.899.96.602.544-.3.966-.723.966-1.383-.184-.601-.606-.66-1.145-.601Zm-13.48-15.848c-.422-.238-1.024.543-1.086 1.203-.059.719.484 1.258 1.023 1.441.485.18.844-.363 1.145-.96-.36-.48-.602-1.383-1.082-1.684Zm192.215-41.117a.883.883 0 0 0-1.203.418c-.301.601.12.781.664.84.48 0 .96.12 1.203-.54-.184-.238-.364-.601-.664-.718Zm-1.082 28.933c-.121-.539-.723-1.082-1.446-.902-.543.121-.66.66-.66 1.203 0 .54.18.961.902.719.301-.48 1.383-.238 1.204-1.02Zm43.57 24.91c-.48-.117-1.024.063-1.145.602-.12.602.301.84.844.899.48 0 .961.062 1.203-.477-.058-.543-.422-.902-.902-1.024ZM34.855 191.352c-.12.421.122.78.48.902.544.117.907-.242 1.145-.723.243-.539-.058-.96-.359-1.32-.664.062-1.086.48-1.266 1.14Zm249.872 15.43c-.485-.063-.664.296-.723.66-.063.597.238.898.844.898.418 0 .96.12 1.203-.48-.242-.54-.602-1.02-1.324-1.079Zm-207.383-16.63c-.242 0-.48.059-.723.121.363.239.664.48 1.024.66.242.118.359.06.421-.242 0-.418-.3-.539-.722-.539Zm70.351 10.024c-.18.062-.3.36-.3.601 0 .36.238.418.48.121.18-.18.3-.363.48-.543-.238-.117-.539-.238-.66-.18Zm0 0"/></g></svg>