<svg width="31" height="31" fill="none" xmlns="http://www.w3.org/2000/svg"><g clip-path="url(#a)"><mask id="b" style="mask-type:luminance" maskUnits="userSpaceOnUse" x="8" y="1" width="23" height="23"><path d="M8.58 1.678h21.545v22H8.58v-22Z" fill="#fff"/></mask><g mask="url(#b)"><path d="M8.792 12.555c.13.219.059-.054.189.165l.159-.109c-.052-.224.098.043.062-.114.218-.176.435-.307.593-.488.528-.61 1.516-.51 2 .252.462.726.886 1.477 1.317 2.222.636 1.098 1.264 2.201 1.964 3.422.199-.688.36-1.256.524-1.822.96-3.25 1.79-5 2.325-5.893.728-1.355 3.108-4.427 5.696-6.462.93-.731 2.02-1.259 3.054-1.85.224-.128.592-.34.647.223l1.27-.249-.853.722c.834-.028 1.433-.774 2.381-.54a5.687 5.687 0 0 1-.482.312c-3.44 1.678-7.189 6.137-7.917 7.547-1.675 2.573-2.538 5.02-3.88 10.135-.17.646-.36 1.28-.543 1.918-.374 1.285-1.933 2.032-3.159 1.49-.191-.085-.416-.28-.466-.466-.489-1.823-1.489-3.398-2.38-5.026-.743-1.356-1.496-2.707-2.224-4.07-.198-.374-.325-.78-.485-1.17l.208-.15Z" fill="#D3831D"/></g><path d="M22.344 2.873C19.99 1.62 17.356.963 14.68 1.078a15.051 15.051 0 0 0-7.394 2.356C2.743 6.32.422 11.862.899 17.142c.238 2.632 1.128 5.174 2.745 7.281 1.625 2.12 3.822 3.665 6.3 4.638 4.81 1.884 10.46 1.17 14.384-2.254 1.914-1.67 3.319-3.897 4.14-6.292.806-2.353 1.111-5.077.329-7.474-.207-.631-.507-1.121-.898-1.645-.161-.22-.407-.356-.685-.279-.243.067-.47.323-.449.586.093 1.09.168 2.2.224 3.343.03.554.029 1.107-.004 1.661-.01.15-.022.3-.037.449-.007.07-.05.433-.02.206a10.8 10.8 0 0 1-.15.847 13.873 13.873 0 0 1-.733 2.423c-.065.165.066-.15-.005.015l-.081.186c-.062.14-.127.277-.194.414a13.792 13.792 0 0 1-.838 1.499 15.413 15.413 0 0 1-.586.827c.118-.15.01-.014-.013.014-.107.13-.214.26-.325.388a12.665 12.665 0 0 1-1.515 1.482c-.054.043-.329.256-.172.138a11.585 11.585 0 0 1-2.177 1.299l-.187.083c.179-.079.018-.006-.016.007a12.233 12.233 0 0 1-2.946.785c.236-.033-.156.016-.21.02a13.626 13.626 0 0 1-3.01-.035c-.18-.02.17.026-.008 0l-.202-.03a15.05 15.05 0 0 1-1.307-.268 14.39 14.39 0 0 1-1.995-.667c.188.08-.19-.088-.25-.114a13.636 13.636 0 0 1-2.252-1.316c-.054-.04-.334-.25-.182-.133a12.733 12.733 0 0 1-2.139-2.118c-.11-.138.092.124-.013-.018l-.123-.165a11.591 11.591 0 0 1-.749-1.163c-.14-.247-.27-.498-.393-.754-.062-.127-.12-.256-.178-.385-.075-.164.056.139-.013-.028a15.215 15.215 0 0 1-.65-1.966c-.56-2.187-.53-4.563.044-6.785.587-2.267 1.733-4.326 3.455-5.977C8.55 4.202 10.632 3.097 13 2.634c2.347-.46 4.84-.253 7.1.515.574.196 1.132.428 1.675.697.645.318 1.214-.63.57-.973Z" fill="#D3831D"/></g><defs><clipPath id="a"><path fill="#fff" transform="translate(.5 .958)" d="M0 0h30v30H0z"/></clipPath></defs></svg>