<svg width="90" height="90" fill="none" xmlns="http://www.w3.org/2000/svg"><path d="M83.333 39.44c-.004-.133-.074-.092-.132 0-.07.126.144.102.132 0ZM53.767 35.236c.156-.016-.108-.316-.093-.088 0 .048.042.088.093.088ZM48.512 23.935c0-.113-.176-.113-.175 0-.001.114.176.114.175 0ZM47.773 21.745c-.075 0-.136.04-.136.088.01.228.4-.064.136-.088Z" fill="#252422"/><mask id="a" style="mask-type:luminance" maskUnits="userSpaceOnUse" x="3" y="42" width="1" height="1"><path d="M3.041 42.48H3.6v.48h-.559v-.48Z" fill="#fff"/></mask><g mask="url(#a)"><path d="M3.329 42.726c.313-.196-.136-.144-.185-.039-.095.155.006.176.185.04Z" fill="#252422"/></g><path d="M3.673 45.4a.517.517 0 0 0-.218.085c-.277.207.354-.025.218-.086ZM6.96 40.404c.157-.016-.109-.316-.094-.088 0 .05.042.087.093.087ZM34.519 42.856c-.045 0-.107.04-.136.087-.065.146.415-.1.136-.087ZM36.876 11.41c.002-.115-.177-.115-.176 0 0 .113.177.113.176 0Z" fill="#252422"/><mask id="b" style="mask-type:luminance" maskUnits="userSpaceOnUse" x="3" y="4" width="84" height="67"><path d="M3.12 4.352h83.76V70.8H3.12V4.352Z" fill="#fff"/></mask><g mask="url(#b)"><path d="M5.612 49.222c.114-.087.156.04.046.136-.151.151-.108-.083-.046-.136Zm12.41.818c.058-.093.127-.133.13 0 .012.101-.2.126-.13 0Zm15.091-.175c-.003.132-.073.093-.13 0-.071-.127.143-.102.13 0Zm.57-5.607c.057-.092.126-.133.13 0 .012.102-.2.126-.13 0Zm5.6-39.243c.056-.093.126-.133.13 0 .012.102-.201.125-.13 0ZM38.8 12.41c0 .123.048.224.105.224.17-.015-.163.303-.167.11-.255-.058-.203-.43-.533-.41-.66-.007.106.184-.214.212-.318-.07-.026-.622.114-.745.441-.2-.183-.173.125-.51.144-.247.306-.255.14-.022-.21.094.229.644.01.544-.097-.06-.276.248-.206.357.448.392.187-.574.697-.132.284.369-.1.043-.07.372Zm-.155.573c-.328.308-.775-.051-.98-.381.018-.097.244.153.293.058.095-.067.15.36.25.325.12-.014-.042-.427.04-.47.07-.069.159.012.159.146-.058.132.67.36.238.322Zm-.003.721c-.152.151-.107-.082-.045-.136.113-.087.155.04.045.136Zm-.843 2.642c-.075-.028-.136-.066-.136-.086.002-.15.405.15.136.086Zm.054-5.094c.265-.263.108.23-.024.244-.11 0-.097-.121.024-.244Zm.635-.447c-.076.123-.213.09-.213-.051-.016-.173.277-.055.213.05Zm1.66-4.141c-.262.011.22.334.092.458-.283.107-.184-.671-.477-.713-.023-.167.712.115.385.255Zm-.13-1.152c.438.01-.048-.156.044-.313.242-.144.338.37.127.5-.008.206-.547-.366-.172-.187Zm.147-.661c.368.355-.242-.01-.227-.104 0-.124.042-.105.227.104Zm.21 1.914a.521.521 0 0 1 .219-.084c.136.06-.495.292-.219.084Zm.263-1.62c.003.17-.265.17-.263 0-.002-.17.266-.17.263 0Zm.052.505c.069.033-.032.36-.046.115-.003-.092.018-.144.046-.115Zm.373.492c.024-.069.074-.03.126.102.114.437.202-.423.324.144.103.243-1.092-.073-.7.246.08.034.031.125.022.176l.054.03a.365.365 0 0 0 .041-.014c.235.139.133.11-.04.014-.052.014-.06-.001-.055-.03-.31-.18-.75-.514-.092-.53.155-.013.3-.075.32-.138Zm-.141-.992c.329-.43-.082.555-.105.276a.454.454 0 0 1 .105-.276Zm-.058.796c.03-.08.09-.145.133-.145.266-.062-.28.427-.133.145Zm.479.907a.09.09 0 0 1-.092-.088c-.016-.228.248.072.092.088Zm.59-1.67c.036.187-.218.015-.23-.076-.034-.187.22-.016.23.075Zm4.438 31.436c-.027.028-.098 0-.157-.06-.209-.18.232.002.157.06Zm.567-16.85c.004.04-.175.18-.176.053-.013-.098.154-.12.176-.054Zm2.8 7.85c-.02.133-.188.092-.176-.055.004-.189.18-.035.175.055Zm.966 2.973a.09.09 0 0 1-.092-.088c-.016-.227.25.073.092.088Zm9.546 11.476c.19.014-.051.38-.073.127 0-.07.033-.127.073-.127Zm.335.538c.312.009-.02.103-.109.045-.06-.025-.011-.044.109-.044Zm18.837-5.845c.17-.304.656.191.236.094-.133-.042-.178-.032-.137.033.065.141-.294-.001-.099-.127Zm.499-.432c.15-.18.23-.08.087.088-.15.181-.23.08-.087-.088Zm-.153 22.71c.16-.046.128.218.312.174.601.158-.84.411-.312-.175Zm-.021.723c-.003-.114.176-.114.174 0 .002.114-.177.114-.174 0Zm-.177-1.002c0-.154.054-.177.129-.055.068.1-.129.238-.129.055Zm1.575-4.954c.002.113-.176.113-.174 0-.002-.114.176-.114.174 0Zm.09-5.081c.157.024.073.468-.033.132-.029-.073-.013-.132.033-.132Zm3.848-15.987c0 .17-.176.17-.175 0-.001-.17.176-.17.175 0Zm-6.03 26.873c-.011.105-.131.084-.169-.028-.044-.147.187-.04.169.028Zm-67.457-.638a.09.09 0 0 1-.092-.087c-.016-.228.248.072.092.087Zm1.006-8.058c-.075 0-.136-.04-.136-.088.01-.227.4.064.136.088Zm3.368 6.394a.09.09 0 0 1-.092-.088c-.015-.227.249.073.092.088Zm2.62 12.215c.004.04-.173.181-.175.053-.012-.097.154-.119.175-.053Zm-.097.75c-.09 0-.095-.06-.023-.327.192-.492.198.312.023.327Zm.493.07c-.027.028-.097 0-.156-.059-.21-.18.231.002.156.06Zm.35-.438c-.026.028-.098 0-.157-.06-.209-.18.232.002.157.06ZM3.546 42.183c.27-.008-.042.589.057.701-.197-.028-.324.535-.37.805-.066.156-.058.162.074.055.232-.241.149.25.043.321-.082.082-.072.105.047.105.212.15-.137.723.228 1.003.203.51.276 1.015.522 1.45.068.285.462.312.205.666-.136.136-.132.142.047.085.227-.14.277.487.305.625-.108.248.267-.06.18.162-.06.17.144.087.146.229 0 .056.064.174.144.263.245.363-.131-.013-.179-.005.238.477.798.948.838 1.535-.01.287 0 .305.103.164.176-.309.02.328.311.303.459.152-.065.555.488.704.252.021-.137.129.008.361.167.458.067.364.453.29.034.164-.493.462.03.487.117 0 .165.05.147.154-.067.22.38.148.369.345-.094.23-.597-.04-.038.293.184.302.53.607.615.938-.045.13-.032.127.078-.015.393-.468-.038.406.155.38.174-.109.6.34.412.363-.287.209.329.16.226.25.014.143.17.675.236.661.15-.058.294.224.157.308-.144.09.203.552.322.336.118-.098.128-.088.077.076-.09.314.158.262.262.604.257.509.42.005.512.59.11.705.833 1.326 1.14 1.813-.145.25.407.117.23.255.684 1.29 1.529 2.384 2.177 3.793-.003.135.254-.132.15.096-.076.155.117.206.065.33.213.115.354.724.528.957.104-.05.723.716.349.58-.11-.041-.117-.019-.04.124.098.227.609.366.474.794-.045.072.08.116.25.089.156.032-.066.722.19.742.391 1.003.7 1.585.999 2.73.485.165.139.452.748.547.394.25.825-.065 1.246.058-.278-.662.604-.236.567-.978-.12-1.322.013-2.263-.315-3.348-.247-.265-.059-1.326-.297-1.581-.055-.02-.101-.105-.101-.192.088-.234-.607-.242-.215-.339.419-.227-.223-.314-.135-.628.084-.273-.367-.548-.188-.693.148-.28-.306-.517-.195-.853.036-.144.025-.211-.03-.178-.339.088-.372-.754-.563-.881-.13-.035-.144-.07-.064-.166.079-.181-.224.123-.185-.358-.208-.325.076-1.156-.35-1.236-.78-.139.238-.433-.57-.715.032-.136-.182-.037-.045-.26.07-.221-.241-.549-.282-.764-.45-.378-.091-.817-.533-1.007-.262.092.037-.358-.162-.29-.267-.044.032-.446-.095-.491-.25-.117-.103-.547-.314-.623-.119.043-.45-.163-.257-.257.092-.058.09-.072-.005-.074-.212-.004.065-.455-.145-.527-.291-.165-.03.203.029.221-.432.22-.262-1.025-.728-1.05-.133-.082.395-.3-.053-.31-.5-.439-1.007-1.361-1.248-2.142.155-.321-.609-.392-.445-.672-.149-.096-.176-.618-.404-.827-.145-.22-.166-.248-.225-.43.085-.183-.16-.048-.16-.176.04-.466-.645-.438-.535-.84-.108-.198-.06-.958-.226-.804-.151.125-.256.061-.189-.114.031-.177.528.023.593-.117.265-.303.143.156.342.167.503.33 1.162.611 1.632.778.049.178.705.261.625.35-.154.097.008.205.198.132.418.492.583-.03 1.015.363 0 .028-.05.021-.11-.016-.236.04.368.192.371.219-.046.083.48.427.32.132-.035-.071 1.29.691 1.654.677.641.446 1.965.564 2.973.962.256.096.926.43 1.27.225.19-.17-.124.313.175.161.357-.021.311.11.652.024.268-.004.157.296.335.07.189-.253.16.232.676.127.43-.122.774.43.976.226.07-.163.822-.023.926.115.219.303.113-.246.498-.148.301.012.52.444.598-.044.427.241 1.899-.35 2.224 0 .184.058-.128-.354.182-.215.158-.066.808.108.828-.083-.053-.136.114-.154.196-.022.07.15.283-.148.387-.05.29-.16.734-.36 1.125-.276.262-.124.083-.208.314-.345.049-.288.323.21.38-.013.002-.14.538-.065.506-.192-.124-.256.618-.176.742-.29.249-.69.495.007.698-.458.324-.407.938-.364 1.375-.724.19-.215-.06.12.108.053.079-.162.341-.255.455-.382-.002-.365.431-.176.513-.355 0-.137.298-.324.382-.24-.013-.352.661-.527.81-.824.15-.324.724-.28.67-.704-.1-.256.216.149.347-.125.018-.142.222-.558.49-.598.058.017.359-.5.31-.154-.036.063-.03.079.016.039.2-.124-.046-.657.31-.538.286.097-.011-.13.203-.135.141-.103.35-.152.4-.351.016-.258.199-.121.173-.465-.01-.554.485-.532.532-.915-.014-.53.19.385.158-.109-.05-.627.122-.281.346-.622.086-.138.088-.168.006-.117-.15.128-.005-.442.11-.26.161.077-.069-.357.168-.342.218-.005.06-.35.151-.395.393.062.376-.905.8-1.155.05-.061.294-.495.202-.488-.164-.077-.133-.186.067-.239.312-.058.16-.64.39-.675.368.094-.22-.337-.07-.32.4-.3.08-1.197.5-1.478.34-.075.027-.583.228-.522.157.094-.051-.179.102-.282.232-.259-.404-.203.115-.447.363-.098.013-.555.256-.74.149-.15.193-.371.058-.287-.125.02.145-.583-.03-.587-.124-.112.442.088.374-.058 0-.13.257-.139.087.035-.188.2.12.064.039.229-.484-.202-.386.639.053.485.084-.079.098-.067.058.045-.084.192.21.192.18.355.05.148.61.075.4.441-.033.055-.015.067.045.03.105-.136.34.677.028.264-.19-.197-.263-.015-.102.034.112-.03.053.54.167.487.178.37.457.799.883.822-.31.23-.37.181.045.272.03.098-.33.209.02.26.554.141.409.291.11.165.153.324.59.428.82.759.336.042.016.38.264.494.118.067.128.11.046.208-.147.069.327.386.397.169.096-.29.235.357.262.494-.103.283.629.118.572.357-.471.087-.286.13.145.249.19.073.216.11.117.17-.238.13.224.195.307.144.202-.224.099.772.309.36.049-.137.192.252.132.278-.059.123.555.161.444.317-.029.076 0 .101.082.07.08-.03.127.006.127.097.02.205.17-.01.26.22.15.294.547.037.445.511-.095.188.734-.047.694.101-.333.239-.36.212-.048.381-.202.197.663.035.792.237-.03.048.012.087.093.087.269-.045-.255.54.173.201.13-.264.363.094.325.238-.029.105-.02.108.048.012.082-.185.68.211.662.309-.006.056.044.081.11.056.187-.054.06.2.295.104.228-.164.147.326.233.241.314-.387.157.467.624.05.304-.164.12.103.018.196.134.06.64-.126.613.261.47.207-.198-.509.703.108.296.01.283.123-.008.163-.07.132 1.137.042 1.019.258-.068.067.427.035.539-.036.134-.145.1.282.166.138.192-.251.398.37.73-.041.226-.095.743.444.889.392.242-.056.37-.173.645-.093.205.24.564-.347.566-.074-.026.154.245.195.262.066.06-.404.67.205.819-.077.316-.211.006.1.01.152.285-.104 1.744-.195 1.88-.307-.158-.301.111-.094.179-.084.131-.062.055.33.174.307.14-.235.61-.005.784-.28.264-.473 1.279.258.765-.275-.09-.187.403-.038.376.053.273-.088 1.152-.428 1.374-.483.026.118.211.165.18 0-.026-.16.395-.047.371-.223-.043-.253.284.194.262-.013 0-.107.211-.356.301-.356.124 0 .034.254-.103.29-.152.081.386.071.328-.07-.023-.15.173-.177.174-.039.156.212.115-.258.178-.268.304.422.087-.073.452-.122.59-.164.23.088.507.06.26-.356.71-.539 1.109-.807.24-.284.42.074.457-.357.166.05.053.243.31.005.152-.211.555-.162.651-.312-.033-.304.03-.39.32-.444.25-.047.29-.08.208-.18-.083-.099-.05-.12.178-.12.401-.006.09-.138.499-.256.389-.087.191-.3.297-.446.101-.157.723-.43.87-.424-.388-.262.352-.266.288-.514-.04-.17.236.037.27-.157.057-.198.235.033.23-.201-.073-.265.42-.02.438-.18.006-.161-.47.1-.153-.099.13-.022.16-.408.211-.286.194.388.16-.297.325-.213.195.028.19-.625.306-.078.565-.335-.565-.12.573-.743.344.074-.247-.334.094-.243.38.1.68-1.314.8-.847-.05.13-.039.139.07.047.28-.17-.309-.562.184-.482.316-.008.67.511.302.216.009-.1-.168-.117-.165-.022.11.221-.358 1.299-.032 1.275.122-.044.113-.01-.045.164-.292.19.014.473-.24.51-.337-.064.196.314-.02.231-.353-.138.242.336-.049.294-.233-.064-.066.474-.25.387-.063-.04-.077-.024-.036.042.109.108-.237.38-.006.36.122 0 .117.042-.037.317-.235.316-.032.416-.25.63-.25.81-.322 2.704-.702 3.616-.08.286.236.592-.055.843-.11.11-.115.152-.025.209.236.168-.4.1-.046.353.287.281-.166.052-.085.296.087.136-.3.746-.159.85.032.719.05 1.938-.143 2.677-.372.235.425.13.057.437-.045 1.383.135 3.446.27 4.664.108.004.157-.401.17-.022.044.3-.234.26-.088.364.312 1.267.153 3.4 1.513 4.104.202.086.31.219.51.284.213.021.122-.269.307-.208.084.033.131 0 .131-.09.154-.485.216.606.879-.707.195-.315.208-1.937-.003-2.236.507-.305.015-.22.104-.941.057-.669-.1-.451-.138-.653.195-.401-.063-.877.122-1.147.14-.12.155-.187.083-.378.037-.455-.285-1.113-.058-1.676-.208-.35.306-1 .076-1.215.17-.19-.297-.588-.006-1.015-.073-.681.028-.077.133-.709-.052-1.466.546-3.071.515-4.238.168-.026.1-.748.287-.884.201-.189.031-.104-.116-.2.498-.345.214-1.322.535-1.81.266-.128-.237-.47.027-.427.043.027.076 0 .074-.06-.09-.648.193-.255.199-.673.232-.288.014-.616.219-.85.145-.056.18-.294.043-.294-.45.009.49-.824.361-.944-.109-.037-.139-.2-.033-.183.422.036-.138-.163.098-.264.212-.1-.172-.149-.01-.178.145-.001.07-.363.218-.36.247-.02-.274-.124.002-.243.16-.174.01-.685.267-.836.144-.122.154-.15.037-.112-.177.07-.192-.098-.076-.12.249 0-.058-.626.12-.497.415.118-.186-.314.09-.292.195.026.009-.248.142-.263.053 0 .097-.059.097-.13.402-.543-.318.054.04-.576.118-.2.253-.64.304-.87.228-.153-.074-.073-.019-.268.47-.436.26-1.224.636-1.757-.226 0 .03-.549.11-.604.096-.013.005-.516.219-.377.303.15-.282-.428.022-.28.048.03.087-.003.087-.074.01-.186-.303-.17-.065-.345.185-.11.114-.52.24-.631.116-.05.045-.39.197-.397.15-.04-.273-.193-.195-.287.096-.06.307.262.227-.276.043-.326.36-.475.178-.832-.217-.125.47-.388.08-.352-.277-.017.143-.183-.118-.321-.14-.106-.138-.114.025-.118.28.027-.086-.139-.005-.175-.328-.093-.034-.485-.307-.664-.223-.075-.081-.572-.29-.398-.172.18-.165-.203-.356-.112-.182.089-.194-.262-.365-.193-.391-.49-.226.196-.669-.062-.154-.072-.395.322-.657.235-.43-.09-.165.322-.398.404-.301.024-.433.485-.584.613-.391.04-.245.46-.483.526-.249-.028.025.254-.13.218-.366.696-1.058 1.281-1.6 1.905-.047.236-.363-.041-.283.149.093.15-.124.276-.308.178-.28-.185.098.508-.246.313-.175-.056-.235.017-.195.244-.354-.084-.84.584-1.048.585-.126.028.012.371-.136.446-.1.084-.114.076-.07-.04.073-.492-.716.846-.932.596-.133-.001-.213.55-.418.486-.257-.038-.24.382-.346.406-.096-.06-.37.261-.294.346.057.083-.322-.106-.184.13-.09.314-.797.273-.763.783-.237-.46-.088.087-.275.32-.076.093-.12.1-.167.023-.078-.164-.18.315-.27.27-.358.201-.68.738-.97.942-.412-.126-.13.498-.335.306-.2-.185-.296-.121-.118.078.165.187.165.188-.025.088-.455-.28-.163.184-.478.326-.164.102-.18.1-.134-.024.046-.396-.285.163-.084.243.151.078-.47.002-.25.23.109.254-.218.101-.17-.008-.054-.18-.798.427-.831.666-.044-.11.063-.481-.13-.194-.116.198-.313.045-.353.238-.167.17-.616.448-.885.257-.213-.188-.019.283-.35.127-.245-.117-.314.57-.65.579-.51.531-.646-.015-1.285.539-.43-.121-.79.503-.767.228.075-.135-.368-.134-.345-.052-.11.163-1.09.014-1.11.086-.572.232-.455.575-.699.163-.18.08.185.434-.246.265-.344-.158-.254.208-.464-.012-.255-.242-.333.295-.598-.033-.357.12.662.477.178.341-.508-.177-.959.107-1.037.071-.412-.378-1.327-.043-1.413-.369-.152.023-.041-.589-.17-.22.014.556-.867.063-1.078.11-.66.259-1.117-.479-1.76-.521-.119-.024.136-.324-.165-.195-.438.174.308-.363-.13-.188-.222.051-.317-.395-.613-.278.355-.28-.62.03-.432-.229.026-.33-.108.002-.208.031-.072-.106-.045-.594-.335-.557-.592.014-.682-.488-1.19-.644.129-.091.717-.22.197-.195-.447-.242-.542.13-.477-.12.155-.278-.326.038-.251-.136.105-.35-.529-.539-.548-.678.088-.314-.529.042-.102-.307.541-.247-.907-.155-.528-.644.37-.316-1.019-.318-.172-.935-.145-.034-.548-.02-.503-.23-.3.334-.337-.49-.612-.704-.205-.21-.261-.33-.11-.237.336-.01-.332-.46-.437-.481.143-.108.322-.162.174-.407-.074-.021-.204.073-.342-.027-.382-.107.108-.692-.164-.572-.451.252.348-.935-.127-.69-.13.006.083-.268-.199-.336-.344-.103.032-.254-.125-.375-.08-.077-.283.367-.223-.046.038-.125.015-.175-.082-.175-.426-.015.266-.367.17-.524-.624.23-.09.099-.398-.31-.054-.523-.696-.24-.347-.612.136.084.104-.016-.058-.176-.16-.166.203-.724-.147-.75-.588.38.311-.511-.866-1.553-.542-.42.542-.45.03-.627-.217-.234-.15.409-.271-.13-.077-.595-.318-.873-.362-1.558 0-.195-.14-.282-.277-.17-.08.067-.105-.045-.105-.47.033-.697-.231-.616-.328-1.034-.17-.103.162-.01.108-.256-.002-.381-.144.234-.258-.064-.056-.087-.054-.143.003-.163.145-.052-.17-.255-.01-.317.157-.098.1-.31-.083-.31-.16.04-.254-.191-.088-.131.265-.012-.155-.168-.084-.306-.192-.308.28-.752-.15-.788-.137.111-.161.523-.187-.044.001-.383-.08-.416-.2-.707-.168-.139.272-.17-.013-.333-.292-.272-.174-.509.021-.587-.06-.147-.642.066-.34-.267.244-.166-.606-.713-.271-.88.074-.132-.669-1.072-.319-1.037-.26-.402-.011.006-.078-.451-.062-.731-.268.19-.251-.475.186-.358-.498-.014-.118-.303.064-.002.041-.054-.053-.126-.422-.688.042-.872-.65-1.954-.242-.421.191.04.254.068.149-.03-.163-.254-.048-.36.036-.058.028-.083-.016-.055-.084.084-.349-.413-.179-.376.094-.093-.277-.229-.148-.393-.167-.617-.458-1.283-.647-1.856-.018-.34-.298-.672-.185-.912.092-.059.085-.075-.034-.076-.232-.032-.118-.209-.298-.367-.11-.12-.117-.16-.028-.16.077 0 .06-.048-.051-.137-.121-.097-.138-.15-.061-.183.417-.356-.513.038-.232-.412.077-.436-.201-.716-.314-1.02.159.058.36-.33.1-.187-.448.14-.29-1.013-.97-.834-.18.069-.175-.027.01-.162.386-.219-1.16.06-.876-.18.05-.129-.069-.174-.176-.067-.058.186-1.13-.142-.879.255.054.215-.094.307-.163.102-.048-.206-.341.146-.27.242.004.307-.412.237-.263.675.068.425-.267.506-.275.835.247.421-.319 1.456.13 1.743.193.101.136.168-.108.128-.212-.005.347.572.108.735-.375.59.181.452-.077.77-.117.129-.185.286-.156.361-.007.51-.205-.312-.516.096-.164.127-.164.13-.002.072.475-.1-.625.417-.437.256-.081-.4-.565.289-.65.382 0 .111.028.121.12.043.11-.185.469.214.157.166-.196-.046-.346.447-.459.253-.094-.15-.093-.151-.12.47-.196.742-.06.935.178 1.562.06.22.273.675.307.868-.138 0-.075.192.117.356.351.53-.354-.207-.094.301.42.24.245.785.572 1.326.39.256-.229.829.148.787.115-.044.13.01.096.345-.12.729.237-.061.197.393-.052.537.315.694.305.94-.318.31.019.426-.106.655-.096.118-.086.147.073.199.291.127.029.663.3.897.008.942.315 2.768.438 4.248.018.472.195.48.177.944-.09.404.188.034.177.39 0 .235-.085.29-.168.111-.104-.137.08.585-.127.392-.217-.071.036.193.132.155.19.016.022.247.14.386.169.32-.303-.122-.102.29.172.258-.16.298-.015.388.075.024.076.104.006.307-.236.293.368.917.007 1.071-.544.31.423.276-.071.452-.31-.02.287.23.088.446-.1.313.036.948-.337 1.054-.06.092.206-.067.105.331-.037.42.051.187.181.409.048.28-.342.359-.178.604.023.406.114-.14.174-.106.02.478-.489 1.22-.306 1.65.276.104-.589.536-.142.514.29.169-.309.243-.187.57.097.4-.283.211-.127.429.22.213-.232.628-.24.805-.23.402-.141.875-.365 1.235.015.184-.217-.056-.158.123.08.188-.432.37-.206.545.199.221-.59.635-.526.796.352.204-.263.221-.208.396-.194.422-.282.715-.64 1.155-.553.561-.343.933-.838 1.305-.213.045-.18.448-.493.303.026.351-.385.126-.12.351.31.228-.575.17-.403.646-.06.153-.876-.004-.558.37.13.107.129.122-.02.176-.6-.103-.065.257-.477.41-.326-.082-.441.33-.596.394-.239-.416-.226.25-.393.188-.209.103-.327.309-.608.438l-.164.184c.03-.11.221-.555-.016-.312-.182.093-.023.403-.174.443-.643.134-.918.675-1.41.669-.217-.058-.17.224-.44.14-.16-.03-.213-.002-.213.11 0 .119-.05.14-.227.095-.146-.037-.206-.026-.17.034.184.207-.572-.017-.541.206-.018.196-.593.003-.733.115-.216.087-.576.337-.809.22-.399.187-1.701.267-2.58.04-.093.11-.786-.009-.939.046-.08.128-.212.088-.16-.05.156-.252-.578.144-.432-.1.064-.167-.053-.155-.254.027-.2.23-.227-.036-.361-.07-.219.03-.318-.01-.318-.13.075-.256-.69.116-.504-.016.285-.139-.288-.24-.217-.068-.009.086-.257-.18-.362-.077-.442-.5-.262.208-.738-.229-.311-.25-1.044-.09-1.128-.38-.962-.416-2.122-.862-3.098-1.253-.241-.282.213.073-.03-.155-.253-.116-.45-.208-.578-.353-.438.077-.584-.23-.926-.354-.081-.17-.616-.135-.36-.342.065-.059-.351.1-.284-.09-.436-.618-1.563-.652-1.914-1.276-.18.263-.57-.195-.732-.262-.178-.212.132-.05.072-.166-.174-.186-.27.237-.512-.074-.518-.315-1.023-.613-1.53-.992-.227-.386-.232.319-.497-.077-.637-.69-1.875-.332-2.586-.67-.301.017-.283.258-.634.236-.036-.005-.066.052-.066.125-.045.265-.363-.231-.401.17-.03.122-.095.221-.143.221-.158-.027.133-.35-.158-.174-.33.154.03.33-.084.337-.596-.026-.211.255-.693.606-.297.308-.32.36-.178.397Z" fill="#252422"/></g><path d="M46.804 49.52c.02.283.382-.62-.159-.298-.274.359.286.115.159.299ZM45.987 49.4c.249-.025.19.292.225.223.036-.156.214.041.145-.148.04-.17-.842-.13-.37-.074ZM40.65 43.79c-.064.072-.094.153-.064.183.157.13.36-.437.065-.182ZM45.718 49.774c.563-.24-.4-.267-.378-.199.212.105-.012.438.378.199ZM26.114 60.727c0 .113.176.113.175 0 .001-.114-.176-.114-.175 0ZM26.946 61.34c-.088.223.334-.038.141-.089-.048 0-.111.04-.141.089ZM31.277 59.413c-.002.113.176.113.174 0 .002-.113-.176-.113-.174 0ZM45.712 50.14c-.037-.12-.433-.28-.525-.242-.029.036.513.351.526.241Z" fill="#252422"/><path d="M41.798 49.82c.374-.349.012.283.502.406.31.178-.152.176-.29.202-.12-.128-.326-.442-.212-.608Zm.105-.738c.208-.401.446.49.148.24-.126-.122-.239-.086-.148-.24Zm.448.225c.03-.078.09-.143.133-.143.266-.062-.28.425-.133.143Zm-.059 2.79c.081-.093.09.282.23.188.314.203-.52.298-.23-.187Zm.06-1.168c.067.163-.164-.053-.083-.147.099-.277.341-.01.114.046-.052 0-.065.045-.03.1Zm-.183.775c.058-.093.126-.132.131 0 .012.102-.202.127-.131 0Zm-.053-.262c-.043 0-.078-.08-.078-.176-.017-.456.216.132.078.176Zm-.166-.609c-.012-.098.153-.12.175-.054.004.04-.174.182-.175.054Zm.84 1.684c.069.033-.032.36-.046.114-.003-.093.017-.144.046-.114Zm1.377 1.688c.03-.075.093-.136.143-.136.165.035-.308.582-.143.136Zm.32-.31c-.01.132-.167.091-.218 0-.067-.13.236-.1.218 0Zm.006-.352c-.052 0-.093-.039-.093-.087-.016-.228.25.072.093.087Zm.081-6.745c.002.114-.176.114-.174 0-.002-.113.176-.113.174 0Zm1.406 3.767c-.05 0-.093-.04-.093-.087-.015-.228.25.072.093.087Zm.038-.35c.058-.092.127-.133.131 0 .013.102-.201.126-.13 0Zm-.393-1.412c-.047-.186-.591.152-.13-.213.357-.383.255-.017.315.296.633-.895.892-.133 1.568.018.269.037-.25.525.031.407.26-.104.054.283.234.382.156.043-.11.576-.146.193-.047-.168-.21-.286-.21-.152-.04.19.508.518.195.645-.244.267-.25.84-.76.807.053-.132.192-.475-.124-.494-.432.017-.217-.035-.273-.345-.066-.173-.056-.22.046-.22.309-.21.04-.408-.256-.125-.332.083-.444.691-.132.716.569.027.306.79-.008.47-.412-.08-.311-.811-.408-.82-.213.434-.2-.402-.265-.131-.285.603-.36-1.42.323-1.434Zm2.198 4.303c.193.05-.23.31-.142.088.03-.049.093-.088.142-.088Zm.208 1.313c-.064-.132-.558.337-.266-.083.175-.383.586.334.266.083Zm-.301.35c-.05 0-.093-.039-.093-.086-.016-.228.25.072.093.087Zm-.18-.919c-.049-.03-.088-.09-.088-.136.077-.276.303.18.088.136Zm-.438.788a.13.13 0 0 1 .129-.13c.257.024-.122.476-.129.13Zm-.131-.831c-.07-.127.143-.102.131 0-.005.132-.073.093-.131 0Zm-1.509.673c-.135-.136-.135-.148-.002-.148.317.002.284.439.002.148Zm2.865-7.944c-.005.132-.074.093-.132 0-.07-.127.144-.102.132 0Zm.138 7.259c.056-.09.076-.09.106-.001.076.265-.244.22-.106 0Zm.423-6.94c.125.258-.221-.092-.212-.111 0-.098.165-.012.212.11Zm.052 7.04c.012.101-.202.126-.133 0 .059-.094.128-.133.133 0Zm.235-.383c.176-.2.286.166.12.207-.112 0-.19-.137-.12-.207Zm.377-5.968c.154.196-.08.145-.12 0-.074-.209.01-.13.12 0Zm.262.569c.165-.107.176-.107.176 0 .021.105-.429.13-.176 0Zm.35 3.547c-.215.283-.402.008-.11-.071.164-.03.269-.122.11.071Zm.35-.355c.004.04-.174.18-.175.053-.012-.097.153-.12.175-.053Zm-.35.662c-.172.111-.287.111-.218 0 .017-.09.471-.143.218 0Zm.175-1.996c.129-.319.227.458-.015.419-.134-.041.048-.31.015-.42Zm.228.295c.136-.393.3.202.073.212-.141 0-.148-.017-.073-.212Zm-9.327-.58c.173.1.758.625.319.793-.055 0-.041.04.032.086.257.154-.235.009-.12.22.051.176.492.141.342.375-.336-.292-.51.105-.11.28-.268-.459.683 0-.093.215-.625.298.931.027.374.45-.215.25-.094.361-.393.39.346.339.291-.364.699.085.197.123.016.342-.087.395-.122-.078-.054.252-.175.175-.048-.03-.063.005-.034.081.036.308.765-.472.424.086-.244.64.186-.084.343.13.343.348.356.54.228.798.123.406.063-.015.308-.088.298-.114.31-.112.25.044-.068.407.431-.313.349.087.068.25.13.606.397.22.073.086.022.608.273.24-.033-.03.675.212.546-.183.03-.407.374.458.048.621-.23.331.413-.196.296-.334-.031-.103-.016-.105.08-.014.238.093-.211.463.03.458.648-.56.645.557.908-.438.097.076.926.713.847.35-.062-.04-.833-.278-.412-.35.273.137.675.29 1.088.288-.02-.112-.156-.554-.028-.552.266 1.295.264-.75.693-.29.399.4.21-.56.508-.103.028.072.086.131.129.131.299-.036-.29-.64.056-.502.215.107.49-.604.587-.105-.056.09.075.112.16.027.116-.305-.912-.28-.397-.533.443-.085.035-.568.368-.681.242-.142.114-.433.273-.686 0-.314.251.344.21-.15-.048-.154-.024-.173.17-.139.467-.064.682-.847.007-.11-.008-.46-.328-.385-.594-.187.235-.293 1.294-1.049.463-1.308.095-.183.437-.023.138-.405-.117-.158-.13-.16-.185-.017-.264.325-.2-.325.134-.287-.09-.296-.454.165-.577.154.485-.496-.18-.724.122-.855.138-.003.138-.012-.004-.12-.488-.43.403.036-.015-.365-.45-.135-.458-.258-.57-.652-.155.003-.127-.486-.325-.218-.22.299-.463-.235-.14-.162.144-.164-.692-.4-.646-.56.046-.513-.93.29-.653-.105.426-.806-.32-.013-.79-.332-.073-.144-.496.07-.213-.148.357-.222-.203-.145-.252-.059.212.88-1.122-.393-1.172.385.178.067-.23.042-.19.146-.917.459-.16-.415-.764.087-.215.321-.875-.083-.35-.042.382.137-.33-.484-.357.002-.028.315-.685.12-.323.356.213.24.342-.31.333.125-.043.423-.33-.112-.375.07.002.149.187.065.174.24-.153.32-.265-.368-.36.272-.178.315-.29-.382-.377.083-.082.55.085.123.29.161.146.09.118.227-.034.17-.256-.088.003.43-.306.1-.337-.688-.427-.187-.734.043-.413.223.69.02.66.294.214.396-.244-.258-.34.016-.142.122.01.627-.246.547-.068-.126.218-.563.043-.594-.102-.008-.12.493-.272.283-.11-.122-.353-.169-.108.035.351.204-.126.732-.361.737-.067.126.562.037.459.193 0 .152-.67.017-.676.15ZM26.114 56.784c0-.095.037-.175.08-.175.137.044-.096.632-.08.175Zm1.313 2.495c.007.18-.269.04-.263-.05.017-.12.278-.096.263.05Zm-.088-3.77c.005.04-.173.181-.175.054-.012-.098.154-.12.175-.054Zm.475 2.492c.618-.458 1.9 1.179.544 1.368-.56.349-.255-.402-.669-.32-.084.349-.263-.227-.36-.25-.326-.104.367-.205.344-.371.049-.27-.293.084-.24-.254-.056-.28.355.154.38-.173Zm-.343-1.304c.057-.093.126-.133.13 0 .012.102-.2.126-.13 0Zm.573-.469a2.094 2.094 0 0 1-.092-.28c.328-.284.362.862.092.28Zm.32.53c.528.094-.01.731-.007.07-.017-.096-.014-.128.006-.07Zm.375-.762c.002.228-.176.228-.175 0-.001-.227.177-.227.175 0Zm.121-.11c.148-.302.192-.068.294.005.205.005.503.066.443.417.172.605-.706-.007-.365.046.3-.112.234-.636-.145-.172-.596.846-.418.062-.227-.296Zm.853 1.18c.109.252.372-.485.336-.04.003.284-.316.168-.446.372-.068 0-.064-.04.01-.132.227-.206-.638-.11-.372-.43.322-.237-.042.337.242.18.096-.038.189-.017.23.05Zm.356-.702c.339-.35-.119.894-.367.279.104-.274.177.319.367-.279Zm.194.912c.074.029.146-.029.184-.147.213-.36.094.175.092.297.196.44-.704-.285-.277-.15Zm.149.998c-.048 0-.112-.04-.142-.088-.087-.222.335.037.142.088Zm-1.28-.964c.206-.212.022.02.143.145.176.27-.3.021-.142-.145Zm-1.399 2.278c-.072-.06-.131-.124-.131-.142.174-.211.428.35.131.142Zm3.368-.614c-.004.133-.073.093-.132 0-.069-.125.145-.101.132 0Zm-5.642.593c.342.16.027.653.318.587.307-.159.023.795.403.385.152-.187.242.43.119.444.204.127 1.143.122 1.133.367.058.49 2.223-.675 1.832-.317-.316.4 1.344-.583.902-.715-.087-.072-.11-.105-.049-.074.157.073.071-.151.24-.13.462.5.088.193.482-.263-.013-.525.504.38.367-.018-.277-.27.264-1.05.164-1.343.137-.11.212.238.285.01-.356-.548.414-.25.132-.752-.016.199-.575.42-.295.144.217-.125-.021-.284.175-.374.248-.08-.158-.266.035-.413.09-.098-.273-.732-.337-.758-.21 0-.292-.234-.105-.305.3-.074-.221-.175-.1-.336.034-.057-.008-.048-.092.022-1.014.142-.412-.535-.704-.553-.195.157-.121-.458-.198-.208-.238.436-.118-.129-.21-.197-.162.528-.32-.02-.648.088-.124.217-.502-.417-.356-.018.089.205-.093.259-.126.1-.07-.092-.627.039-.577-.222.08-.207-.073-.2-.232.012-.342.463.017.113.11.305-.11.289-1.1-.267-.533.375-.03-.04-.383-.106-.51-.268-.145-.24-.028.148-.248.026-.26-.104.324.386-.11.434-.19.256-.438.183-.48.519.07.223-.337.412-.144.243.077-.053.087-.103.028-.14-.26-.243-.092 1.12-.205 1.226-.09.048-.15-.428-.23-.274.108.061-.176.408-.008.398.148.018-.445.618-.054.35.378-.297-.214.401.022.413.344.253-.465.156-.103.642.484.642-.651.008-.093.588Z" fill="#252422"/><path d="M30.75 55.417c0 .02.063.059.137.088.27.063-.134-.236-.136-.088ZM29.352 54.594c.001-.113-.177-.113-.175 0-.002.115.176.115.175 0ZM27.515 58.849c.003.19.18.036.174-.054-.018-.134-.187-.092-.174.054ZM43.584 46.195c-.032.228-.201.038-.234.16.048.434.663-.662.234-.16ZM51.136 49.776c.002-.113-.176-.113-.174 0-.002.115.176.115.174 0ZM50.896 49.052c-.06.022-.11.103-.11.182-.055.317.512-.363.11-.182ZM51.097 50.653c-.074 0-.135.04-.135.087.01.228.399-.064.135-.087ZM50.962 49.52c.001.126.179-.014.174-.055-.02-.065-.187-.044-.174.055ZM50.437 47.588c.012-.103-.202-.128-.132 0 .058.092.128.13.132 0ZM49.912 47.762c-.001.114.176.114.175 0 0-.114-.176-.114-.175 0ZM50.81 53.04c-.055-.143-.153-.139-.278.013-.214.186.366.122.278-.013ZM48.96 54.61c-.138.358-.056.157.12.072.288-.031.027-.391-.12-.073ZM48.397 55.033c.374.079.174-.784.118-.39.051.139-.24.36-.118.39ZM50.318 52.694c.271.105.48-.572-.015-.133-.358.277-.055.84-.021.277-.013-.112.003-.177.036-.144ZM44.88 55.033c-.07.127.144.101.132 0-.004-.132-.073-.094-.131 0ZM49.868 47.15c.03.047.093.087.142.087.193-.05-.23-.31-.142-.087ZM49.712 53.894c.1.455.182-.137.033-.175-.043 0-.058.078-.033.175ZM45.712 45.747c.012-.101-.201-.125-.13 0 .056.093.126.133.13 0ZM43.939 45.45c.081-.068-.34-.057-.168.006.063.026.139.023.168-.006ZM44.356 45.838a.521.521 0 0 0-.218.084c-.277.208.354-.023.218-.084ZM44.8 46.185c.155-.172-.176-.262-.26-.034-.105.219.217.018.26.034ZM45.1 46.185a.09.09 0 0 0 .092.088c.158-.016-.108-.315-.092-.088ZM43.2 47.152c.057-.241.063-.158-.143-.117-.459.03-.468.772-.232.382-.027-.33.337.038.374-.265ZM46.553 45.421c-.03-.03-.05.023-.046.114.013.246.113-.081.046-.114ZM49.365 46.81c.326.29-.19-.344-.153-.154 0 .018.069.088.153.153ZM47.724 45.835c.013-.102-.201-.126-.13 0 .057.093.126.133.13 0ZM41.6 48.725c-.004-.133-.073-.092-.13 0-.07.126.142.103.13 0ZM47.3 45.738c-.073.046-.085.095-.031.13.127.072.298-.365.03-.13ZM49.737 47.105c.001-.17-.147-.17-.146 0-.001.17.147.17.146 0ZM58.384 82.693c-.013.005-.027.008-.04.014.017.007.031.004.04-.014ZM45.318 81.75c.058.093.127.132.132 0 .006-.05-.045-.082-.088-.085l-.057.036c-.001.014.002.03.013.05ZM26.335 75.513c.011-.008.01-.02.002-.033-.01.014-.018.029-.027.044a.04.04 0 0 0 .025-.01ZM19.465 70.362c-.004-.132-.074-.093-.13 0-.071.127.142.102.13 0Z" fill="#252422"/><mask id="c" style="mask-type:luminance" maskUnits="userSpaceOnUse" x="20" y="55" width="60" height="31"><path d="M20.88 55.68h59.04v29.987H20.88V55.68Z" fill="#fff"/></mask><g mask="url(#c)"><path d="M44.312 59.89c.005.04-.173.18-.174.054-.013-.099.153-.12.174-.055Zm2.013 5.167c.004.041-.174.182-.176.054-.012-.097.155-.12.176-.054Zm1.75-6.433c-.005.133-.074.092-.131 0-.072-.126.142-.102.13 0Zm8.967-2.015c.052-.091.21-.133.22 0 .017.1-.286.13-.22 0Zm2.342-.257c.058-.366.26.162.07.17-.046 0-.077-.076-.07-.17Zm1.994 5.951a.09.09 0 0 1-.092-.087c-.016-.229.249.071.092.087Zm2.096-6.307c0 .114-.178.114-.176 0-.002-.114.176-.114.175 0Zm5.073.088c.001.113-.176.113-.175 0-.001-.114.176-.114.175 0Zm1.313.35c0 .114-.177.114-.176 0 0-.114.177-.114.176 0Zm1.53 6.658c.059-.093.127-.133.132 0 .012.101-.202.126-.131 0Zm2.357 2.33c-.115-.068-.25 0-.17-.14.103-.284.437.227.17.14Zm5.56-2.856c-.003.133-.072.093-.13 0-.07-.126.143-.102.13 0Zm.147.059c.115-.087.157.04.045.135-.15.15-.107-.083-.045-.135Zm-6.263 3.758c-.004-.092.017-.143.046-.114.068.034-.032.36-.046.114Zm-9.754 7.647c.054-.09.075-.09.105 0 .076.265-.245.219-.105 0Zm-4.076 2.294c-.012-.098.153-.12.175-.054.004.04-.174.181-.175.055Zm-2.379 4.334c-.028.027-.077-.022-.11-.11-.12-.264.183.063.11.11ZM52.1 82.45c-.001-.114.176-.114.175 0 .001.114-.176.114-.175 0Zm-1.762.825c-.046-.236-.059-.126-.225-.277.135-.373.611.17.225.277Zm-.176.616c-.41.25-.602-.014-.18-.133.122-.005.116-.02-.025-.079-.269-.168-.326.368-.523.036-.166-.22-.166-.302.003-.302.133.135.36.193.388-.147 0-.196-.012-.203-.137-.078-.826.57.181-.716-.64-.158-.197.14-.2.138-.104-.043.178-.325.345-.063.562-.263.475-.444-.355-.243-.009-.581.365-.369.254.978.552 1.066.08.35.787.33.113.682Zm-.806.354c.288-.397-.003.204.3.132.5.082-.447.138-.3-.132Zm-.274-.218c-.07-.127.142-.102.131 0-.005.132-.074.093-.131 0Zm0 .613c-.07-.127.142-.102.131 0-.005.132-.074.093-.131 0Zm1.006-2.54c-.005.133-.073.092-.131 0-.07-.126.142-.103.13 0Zm-.087.525c0-.048.088-.087.197-.086.389-.026-.275.31-.197.086Zm-1.75 2.365c-.002-.114.176-.114.175 0 .002.114-.177.114-.176 0Zm-.615-3.195c.126-.152.44-.181.44-.04-.088-.006-.697.474-.44.04Zm-.96-3.03c.006.09-.171.244-.176.054-.012-.145.158-.186.175-.053Zm.146-.373c.113-.088.155.039.045.135-.151.15-.107-.083-.045-.135Zm.466.516c0-.117.027-.122.176-.029.424.31-1.08.217-.596-.178.34-.44.149.654.42.207Zm-.35.388c-.001-.113.177-.113.175 0 .002.114-.176.114-.174 0Zm-25.078.526c.012.197-.21.187.056.489.095.112.362.396.446.513.07-.043.12.145.09.334.039.101.352.039.364.24.018.233.439.102.383.303-.032.082-.007.11.069.082.18-.064.024.317.245.247.106-.018.152.032.152.163-.021.34.223-.103.263.072.191.234.745.572 1.05.643.05.205.755.273.875.455.156.316.703.19.932.36.065.09.118.115.118.057.133-.399.179.421.423.166.243-.2.213.21.328.014.26-.406.373.45.632.16.368-.134.615.28 1.036.057.155-.114.29.31.401.095.063-.09.09-.091.124-.004.476.435 1.436.098 1.88.201.206.22.025-.275.6.039.784-.249 1.76-.03 2.274-.153.215-.14.487 0 .702-.13.14-.011.274.413.312.163.72-.315 2.257-.402 3.245-.619.39-.029.445-.23.97-.245.785-.016.779-.016.633-.12-.11-.08-.105-.087.026-.044.469.032.95-.21 1.237-.287.23-.129.22.09.336-.162.636.046.313-.143.622-.26a6.482 6.482 0 0 0 2.622-.95c.002-.028.028-.04.057-.037.41-.265.792-.573 1.154-.922.78-.472 1.14-.967 1.657-1.747-.552-.061-.498-.458-.897-.682-.26-.108-.089-.837.011-.324.027.23.865.291.569.694.748.469-.113-1.872-1.531-.694-.046.271-.39-.383-.388.099.081.278-.524.074-.61.354-.106.142-.16.165-.196.083-.084-.17-.428.444-.557.375-.68.108-1.464.829-2.146.88-.479.032.006.185-.883.244-.25.014-.054.198-.25.267a.722.722 0 0 0-.78.02c-.102.002-.453.179-.49.037.007-.136-.207.008-.137.066.128.424-1.886.338-2.155.466-1.734.395-3.366.281-6.51.161-1.148.031-2.715-.726-3.861-1.219-.107.062-.487-.387-.548-.278.012.132-.219.14-.145-.024.047-.189-.22.027-.265-.193-.09-.404-.492-.407-.521-.447.187-.259-.23-.35-.266-.43-.078-.325-.063-.77-.232-1.087.536-.263-.08-.263.292-.651.387-.427-.296-.34.358-.84.114-.116.2-.233.275-.35-.034.004-.086-.023-.131-.07-.177-.151.11-.044.158.027.275-.458.347-.901.893-1.228.453-.017.152-.254.59-.386.27-.232.624-.355.68-.67.415-.388.91-.428 1.347-.86.243-.384.571-.1.525-.347-.116-.264.225.038.205-.2 0-.077.024-.117.053-.087.079.09.327-.296.367-.12.037.163.385-.248.498-.137.083.032.133.01.124-.054a1.91 1.91 0 0 1-.003-.28c-.028-.333.39.308.36-.107-.014-.196.148.004.274-.23.142-.166.157-.17.105-.024-.238.249.733.031.409-.037-.248-.104.498-.232.471-.567.048-.132.08-.145.134-.059.254.271.376-.35.664-.198.404.153-.045-.304.243-.203.195.15.595-.686.596-.222.007.27.135-.338.158-.164-.01.246.303-.24.272.044-.05.28.34-.182.286-.23.05-.021.67-.677.552-.262-.034.096.014.071.128-.067.275-.373.183.15.404-.17.37-.389.16.18.307-.014.35-.389.59-.267 1.05-.547.198-.27.59.126.542-.099-.08-.213.275-.063.23-.326 0-.15.023-.169.104-.087.128.127.277.14.2.018-.073-.122.075-.11.2.014.107.05.778-.586 1.118-.541.41-.392.67.19.828-.228.191-.416.273.344.547-.057.265-.13.03-.57.274-.304.202.327.415-.312.646-.278.845-.069 1.013-.266 1.562-.488-.04-.255.798.369.56.001-.307-.475.497.155.523-.231.233-.3.022.258.215-.035.14-.273 1.04-.127.921-.345.21-.427 1.633-.354 2.085-.64.46-.082.683-.53 1.068-.11.046-.066.123-.347.26-.162-.004.174.339-.263.211.018-.083.374.354-.122.511-.106.118-.038.46.012.502-.13.188-.158.899.007 1.086-.201.042-.108.088-.106.32.014.415.283.913-.46 1.233-.4.413.285.52-.442 1.004-.044.346.298-.033-.345.241-.303.143-.058.337.459.343.095.094-.24 1.197-.21 1.351-.402.14.264.6-.164.738.075.08.145.256.203.236.079-.052-.512.502.128.72-.372.085.52.184.176.603.181-.128-.283 1.15.082.678-.207-.083-.03-.086-.066-.009-.148.474.463.732-.204 1.5.034.178.147.46-.244.456 0 .086.22.767-.29.935.127.1.132.11.13.111-.009-.005-.216.48-.278.456-.066-.002.163.372-.32.447-.26.18.035-.428.307-.08.26.12.047.483-.252.494-.069.001.088.017.087.075-.005.09-.242.45.254.538-.014.045-.072.084-.104.084-.07 1.517-.409.384.486 1.663-.008.463-.274.76.465.964.174-.02-.097.366-.01.313.067.077.237 1.375-.26 1.436.12-.005.133.27-.176.263-.039 0 .05.071.071.16.049.24-.08.502.458.65.123.038-.197.274.157.371.044.087-.042-.075.188.175.189.33.17.473.319.744.496.172.071.971.115.995.296.024.323.759.01.615.553-.046.4.082-.143.263.102.188.187.12.376.314.533.349.131-.577.3 0 .612.462.378-.143.09-.17.277.106.618-.317.209-.453.6-.17 0 .24.303-.023.262-.52.385.875.063-.61.701-.312.117.135.099.162 0 .081-.216.652.042.274.06-.427.15-.778.372-.928.831-.105.397-.879.721-.917.806-.111-.042-.141-.016-.12.108.178.25-.817.106-.321.297.072 0 .131.042.131.091.01.2-.683-.078-.438.216.217.21-.255.075-.262.204.041-.006-.677.68-.63.522.07-.087.08-.162.028-.194-.376.115-.47.84-.845.914-.153-.001-.205-.034-.16-.105.008-.1-.888.549-.295.324.394-.156-.2.358-.257.063-.25-.373.035.605-.25.24-.418-.24-.584.352-.741.563-.131.399-.692-.063-.936.462-.338.115-.256.299-.463.248-.266-.131-.107.283-.262.306-.202-.267-.176.093-.418.057-.089-.096-.27.163-.121.083.06-.036.1-.006.1.074-.014.206-.74.061-.836.225-.256-.059.108.584-.158.234-.346-.368-1.07.703-1.552.592-.176-.1.141.23-.115.108-.662.146-1.118.743-1.857.915a5.182 5.182 0 0 1-1.015.486c.156.063.135.292-.027.292-.081 0-.111-.04-.075-.101-.058-.222-.075.27-.122.311-.148-.035-.332-.55-.32-.027.108.278-.469.11-.598.343-.366-.027-.516.373-.756.308-.231-.166-.61.368-.763.24-.059-.146-.292-.141-.292.005-.189.363-.716.572-1.038.652-.114-.001-.488.081-.386.172.117.246-.275-.062-.181.16.159.365-.434-.202-.407.082.007.254-.502-.11-.497.21-.05.191-.203.26-.203.091-.224-.242-.107.276-.445.147-.344-.086-.256.23-.528.163-.257-.018-.115.272-.404.188.323.366-.906.115-.782.334.157.174-.94.446-.685.227.067-.14-.15-.095-.131.024.012.324-.537.315-.594.417-.105.52-1.199.09-1.071.776-.72-.294-.134-.133-.662.26-.37.188.087-.354-.47.184-.858 1.007-.042.11.412 1.078 1.265.45-.4 1.027-.589 1.554-.452.765.103.21.278-.197.075.125.255.472.185.577-.06.149.278-.2.31-.084.057.103.518-.542.253-.312a.51.51 0 0 1-.343.087c-.606-.136.643-1.672.465-.4.067-.093.494-.197.214.005-.321.243.303.282-.017.668-.15.549-.582-.24-.733.13.01.356-.469-.16-.395.105-.017.317.501.576.534.465.112-.156.786.29.458.357-.203.248.64-.339.707-.113.14.087.174.073.218-.09.685-.134 1.716-.272 2.393-.546.192-.1 1.187-.104 1.434-.448.102-.332.833.153.622-.026-.416-.278.815-.498.853-.33.498-.415 1.266-.471 1.893-.768.06-.236.881-.003.294-.303.332-.061.776-.137 1.171-.274a.213.213 0 0 1-.077-.08c-.07-.127.143-.103.13 0a.137.137 0 0 1-.012.066c.244-.088.466-.202.627-.352.041-.14.103.17.292-.023.2-.102-.002-.308.183-.251.146.096.301.393.267.034-.06-.189.087-.248.163-.066.245-.075.866-.424 1.194-.548.16-.355 1.103-.21 1.303-.369-.07-.438.268-.263.392-.468.117-.265.269.208.44-.142.214-.107.29-.305.533-.16.274.196.028-.204.455-.284.124-.236.567-.01.638-.282-.034-.213.337.07.246-.141-.1-.188.428-.13.457-.065.569-.337-.392-.097.587-.562.165-.154.222-.17.28-.076.318.31.094-.34.29-.23.078.03.156.01.174-.042.028-.195.537.291.377-.055-.076-.139.081-.362.13-.173.349-.432 1.236-.301 1.552-.778.067-.19.1-.214.144-.108.118.26.697-.582.929-.445.165.158 1.09-.886.913-.522.897.2-.025-.56.478-.357.26.214.368-.065.181-.04-.137.084-.103-.098.04-.216.516-.053.667-.71 1.23-.743.557.15-.063-.442.207-.361.264.084 1.229-1 1.049-.498-.108.138-.105.141.027.037.218-.166-.02-.566.403-.26.409.29-.46-.578.003-.344.438.069.603-.549.937-.6.3.025.394-.445.215-.213-.064.1-.084.103-.085.014.016-.18.378-.162.354-.397-.012-.417.097.262.203.05.08-.072-.092-.335.046-.24.238-.008.198-.554.454-.127-.053-.175.425-.413.241-.585-.096-.117-.088-.132.06-.103.383.145.443-.591.462-.457.332.315.34-.52.386-.534-.118-.342.456.08.242-.293-.197-.368.844-.68.543-.898-.168-.038.103-.38.216-.31.227.081-.093-.583.126-.596.103-.067.1-.093-.01-.172-.105-.074-.092-.083.06-.04.406.076.084-.677.395-.749.227-.194-.028-.487.201-.696.286-.217-.157-.356.03-.545.285-.8.35-2.123.035-2.888-.299-.89.423-.517-.547-1.393-.01-.153.361-.271.068-.471-.15-.158-.16-.16-.103-.013-.22.698-.355-1.104-.558-.71-.21.454-.132-.36-.251-.345-.323.189-.13-.44-.292-.466-.183.016.104-.385-.123-.184-.171.211-.225-.226-.366-.145-.34.211-.176-.562-.476-.434-.291.095-.068-.54-.283-.44-.082.09-.541-.319-.59-.202.036.125.524.386.056.24-.252-.304-.286-.53-.718-.712-.353-.03-.056-.468-.428-.192-.357.335-.414-.096-.179-.066.284.03.082-.238-.208-.147-.164-.04.037-.24-.296-.234-.31-.027-.773-.434-.942-.277-.042.095-.565-.516-.694-.475.378.563-.03.176-.382.02-.127-.33-.797.232-.718-.236.044-.114.03-.117-.105-.01a1.558 1.558 0 0 0-.219.208c-.331.09.523-.782-.013-.323-.709.586-.115-.337-.473-.168-.216.09-.757.04-.897.14-.134-.04.064-.388-.082-.393-.127.013.03.172-.14.21-.627.248.236-.49-.433-.069-.545.152.302-.1-.409-.296-.185-.078-.227-.076-.194.008.118.167-.968.018-.895.197-.058.032-.46.257-.5.078-.22-.123-.183-.149-.368-.337-.391-.23-.044.395-.372.218-.808-.17-.555.405-1.302-.199-.347.117-.783-.132-1.09.08-.223.212.303-.065.024.235-.346.111-.063-.442-.34-.22-.36.227-.145-.338-.521-.03-.268.161-.37-.011-.578-.071-.035-.084-.065-.08-.132.015-.08.246-.307-.155-.363-.01.009.1.325.312.087.366-.179-.169-.08-.502-.54-.163-.383.362-.072-.263-.363.021-.363.133-1.25.391-1.45-.12-.256.02-.07.637-.352.287-.585-.51-.181.523-.808.005-.273-.284-.061.15-.293.145-.173-.015-.08.28-.24.24-.269-.59.185.008-.896-.154-.101.101-.372-.046-.477.13-.113.252-.322-.134-.355.037-.142 0-1.182.711-1.083.295.035-.106.025-.12-.03-.044-.258.236-.893.227-.99.022-.16-.03.179.412.013.313-.159-.089-.036.222-.215.05-.342-.23-.828-.017-1.297.26.033-.157.223-.606-.028-.203-.23.262-.45.063-.54.303-.357-.42-.161.394-.417.163-.526-.034-.517-.379-.651.253-.198-.31-.193-.14-.538-.133-.135-.07-.103.465-.29.11-.16-.148-.492.493-.578.023-.079.242-.453.168-.618.271-.3.337.03-.328-.313-.061-.44.385-1.468.174-1.874.528 0 .176-.125.176-.3 0-.195-.268-.02.274-.716.362-.273-.044-.379.432-.47.083-.005-.184-.182-.166-.114.043.07.217-.145.226-.15.044-.019-.306-.339.058-.481.075-.287.898-.767-.16-.875.407-.364.672-.012-.365-.498.438-.163-.032.164-.44-.14-.149-.435.41-.087-.208-.356.13-.233.284-.554.167-.801.445-.079.131-.093.13-.178-.01-.341-.432-.1.457-.848.074-.394-.09.172.226-.597.327-.41.229-.893.26-1.35.598-.194.217-.955.125-.59.37.06.026.004.026-.124 0-.567-.09-1.03.888-1.561.57-.151-.12-.476.266-.524.361-.148-.045-.049-.216-.276-.006-.17.221-.294.027-.387.209-.32.11-.775.31-1.043.466-.261-.041-.12.448-.51.335-.764-.158-.458.562-.818.303-.242-.065-.134.544-.62.363-.074.223-.492.135-.633.247-.07.23-.714.227-.676.385.042.11-.014.157-.241.2-.492.108-.096.447-.544-.08-.113.467-.551.63-.632.994-.168-.06-.063-.19-.31.046-.19.41-.773-.168-.747.178.023.212-.242-.07-.153.145.12.338-.436.292-.525.497-.407-.032.127.218-.248.42-.441.326-.024-.05-.067-.206-.09-.09-.596.492-.526.603.073.153-.453-.088-.406.09-.756.71-1.934 1.195-2.302 2.234.052.14.039.138-.133-.013-.329-.356-.07.211-.326.21-.413.44-.847 1.411-1.548 1.805-.076.02-.243.014-.066.121.365.277-.996.83-.748 1.125.182.038.172.167-.017.228-.352.588-.422 1.393-.78 2.038-.247.595.28.66-.17 1.626-.114.904.394 1.58.872 2.343Z" fill="#252422"/></g><path d="M44.225 55.069c-.016.011.257.287.262.16.022-.08-.224-.203-.262-.16ZM43.657 54.507c-.089.223.334-.037.141-.088-.049 0-.112.04-.141.088ZM48.23 83.112a.494.494 0 0 1-.057.07c-.02.242.062.115.058-.07ZM73.693 74.802c.063.025.138.023.168-.007.081-.067-.34-.058-.168.007ZM77.914 57.66c.156-.015-.108-.315-.093-.086 0 .047.042.087.093.087ZM79.484 62.128c.011-.102-.201-.126-.131 0 .057.093.126.133.131 0ZM63.127 51.704c.158-.016-.107-.316-.092-.087 0 .048.042.087.093.087ZM62.903 49.69c.059.092.128.133.132 0 .013-.103-.202-.126-.132 0ZM52.012 85.084c0 .127.179-.013.175-.055-.022-.065-.188-.043-.175.055ZM63.39 51.967c-.045 0-.106.039-.135.086-.065.147.414-.1.135-.086Z" fill="#252422"/><path d="M65.21 52.327c.093-.023 1.21-.042.857.11-.104.166-1.032-.05-.857-.11Zm.45-3.635c0 .174-.116.15-.242-.055-.264-.32.25-.118.243.055Zm.787.015c.006.088-.355.088-.35 0-.005-.088.356-.088.35 0Zm.263 3.172c.48-.302-.157.297-.176.414-.416.342-.098-.35.176-.414Zm-.087-2.666c0-.155.052-.177.127-.055.068.1-.128.238-.127.055Zm.138-.422c-.06.06-.227-.063-.227-.169-.002-.14.288.137.227.17Zm-.576 3.268c-.013-.098.154-.12.175-.054.005.041-.173.182-.175.054Zm.935-.263c.144-.194.37-.146.142.045-.232.176-.31.152-.142-.045Zm.19-2.68c-.017.016-.082-.025-.144-.092-.2-.275.248-.008.144.093Zm-.075 1.887c0-.163.023-.187.105-.104.18.103-.142.438-.105.104Zm.243-.371c.044.394-.163-.04-.154-.133-.003-.22.136-.101.154.133Zm-.155 2.298c-.002-.113.176-.113.174 0 .002.114-.176.114-.174 0Zm-4.269-2.73c-.021.066.024.082.127.045.278-.117-.1.186-.058.26.054.098.23-.163.33.025.094.102.09.123-.026.123-.2.007.03.194-.14.274-.268.114.393.321.066.39-.172.12-.026.29.11.479.462.199-.34.525.145.472.32-.078.085.184.21.184.384-.002-.15.233-.29.227.258.19.409.11.654.169.335.338-.18.272.388.514-.122.205.367-.11.302.141 0 .1.047.13.143.092.31-.06.317.233.436-.088.467.294 1.05-.243 1.544-.131.486.058.078-.076-.023-.182.132-.368.416.27.413.087-.028-.074.643-.639.561-.701-.319-.135.409-.194.447-.465.197-.012-.254-.321-.136-.285.173.055.167-.382.386-.273.441.024-.128-.232-.202-.328-.235-.49.433-.794-.075-1.166-.168-.075-.2-.507-.356-.549-.165-.015.182.27.028.262-.324.048.004-.466-.087-.49-.221.14-.495-.233-.172-.154.156.058-.074-.177-.145-.144-.272-.545-.792-.002-.714-.423-.408-.067-1.062-.593-1.605-.193-.01.69-.224-.093-.506.101-.208.184.151.406.129.567-.061.128-.498-.53-.356-.182.051.146.04.157-.069.07-.22-.246-.3.476-.48.107-.235-.43.054.66-.123.392-.12-.279-.207.231-.33.026-.25-.214-.366.256-.107.382.321.261-.35.194-.419.364ZM42.387 53.943c.004.19.182.037.175-.054-.017-.133-.187-.091-.175.054ZM41.752 52.769c-.212.131.017.17.256.042.474-.218-.174-.1-.256-.042ZM42.61 53.626c-.065.123.11.208.16.049.053-.142-.078-.183-.16-.05ZM43.263 54.332a.09.09 0 0 0 .092.087c.157-.015-.108-.315-.092-.087Z" fill="#252422"/><path d="M68.543 51.179c.187.014.16-.497 0-.526-.058.294-.058.526 0 .526ZM42.912 53.894c-.004-.132-.073-.093-.131 0-.07.127.143.102.131 0ZM41.688 53.194c-.001.112.176.112.175 0 .001-.115-.176-.115-.175 0ZM47.528 83.195c-.234-.026-.328-.001-.328.083-.093.386 1.299-.094.328-.083ZM60.59 55.947c-.211.19.276.13.196-.013-.056-.143-.068-.14-.196.013ZM64.435 48.463c0 .048.042.087.093.087.157-.015-.109-.315-.093-.087ZM61.286 55.772c-.021-.066-.188-.044-.175.054 0 .127.179-.013.175-.054ZM60.76 46.404c.157.066.086-.399-.04-.137-.027.045-.01.105.04.136ZM47.375 82.529c.116.26.243.077.415-.018.175-.075-.491-.055-.415.018ZM47.243 83.677c-.07.127.144.102.132 0-.005-.132-.074-.092-.132 0ZM68.81 62.654c-.004-.133-.073-.093-.132 0-.07.126.143.101.132 0ZM47.446 83.912c.063.026.139.022.168-.007.081-.066-.34-.057-.168.007ZM47.825 82.695c-.34.199.235.131.128.331-.104.198.203.037.275.045-.016-.169-.109-.363-.403-.376ZM48.228 83.071c0 .014.003.028.003.04.017-.027.014-.038-.003-.04ZM28.78 73.084c-.078.122.012.217.077.041.058-.154.009-.18-.078-.041ZM71.568 68.506c.075-.057-.367-.24-.157-.06.06.06.13.087.157.06Z" fill="#252422"/></svg>