<svg width="90" height="90" fill="none" xmlns="http://www.w3.org/2000/svg"><mask id="a" style="mask-type:luminance" maskUnits="userSpaceOnUse" x="4" y="6" width="82" height="78"><path d="M4.755 6.292H85.2v77.4H4.755v-77.4Z" fill="#fff"/></mask><g mask="url(#a)"><path d="M84.84 39.858c-.16 1.15.176 2.3-.16 3.434.247.885-.248 1.753-.142 2.584.106.78-.035 1.505-.16 2.23-.229 1.258-.07 2.533-.3 3.79a8.042 8.042 0 0 0-.088 1.734c.07 1.983-.32 3.93-.656 5.843-.23 1.345-.495 2.744-1.168 3.966-.407.725-.46 1.911-.672 2.708-.195.69-.743 1.133-.868 1.895-.495.3-.973.424-1.292.85-.337.46-.124 1.22-.478 1.645-.371.46-1.381.584-1.788 1.027-.389.443-.725 1.257-.973 1.859-1.044.372-1.877.797-2.814 1.345-.921.514-.337 1.257-1.329 1.647-.194.07-1.557.248-1.68.354-.266.266-.479.62-.94.514-.087-.018-.159-.036-.159.053.036.566-.424.407-.725.495-.655.195-1.257.514-1.876.815-.815.389-1.771.584-2.514 1.08-.779.514-1.681.637-2.478 1.062-.797.425-1.717.62-2.585.903-.247.088-.477.496-.778.071-.319.159-.638.336-.956.477-.124.054-.266.036-.39.072-1.239.194-2.46.424-3.664.76-.212.054-.39.036-.602.036-.513 0-1.027-.053-1.522.035-.46.09-.938-.088-1.31.018-1.08.319-2.213-.053-3.275.3-.319.108-.602-.193-.955-.159-.903.09-1.806-.123-2.69.195-.142.054-.409.072-.497 0-.496-.442-1.044-.141-1.558-.177-.53-.034-1.026-.212-1.575-.212-1.132.018-2.266-.266-3.38-.336-1.311-.071-2.532-.514-3.807-.691-.478-.07-.885-.407-1.399-.46-.23-.017-.495-.16-.76-.16-.089 0-.266-.017-.266-.07-.194-.691-.885-.46-1.328-.708-.849-.514-1.823-.797-2.601-1.47a3.433 3.433 0 0 0-.956-.566c-.16-.071-.32-.106-.425-.23-.584-.603-1.381-.886-2.035-1.38-.638-.479-1.293-.921-1.948-1.382-.708-.496-1.504-.886-2.054-1.593-1.096-.178-1.415-1.346-2.318-1.788-.301-.142-.337-.55-.62-.762-.389-.283-.672-.69-1.062-.991-.389-.32-.636-.78-.903-1.204-.265-.39-.602-.708-.85-1.15-.212-.373-.565-.691-.796-1.098-.212-.39-.548-.726-.69-1.134-.213-.62-.726-1.097-.85-1.752-.017-.071-.035-.16-.07-.177-.443-.283-.372-.815-.62-1.186-.301-.425-.549-.833-.549-1.363-.602-.55-.673-1.381-.973-2.072-.3-.69-.585-1.381-.868-2.071-.407-.974-.637-2-1.027-2.957-.318-.761-.672-1.505-.743-2.336-.018-.249-.177-.355-.337-.478-.052-.054-.176-.018-.194-.124.106-.018.194-.036.301-.053.088-.018.23-.054.16-.16-.32-.514.018-1.115-.301-1.646-.177-.301-.018-.797-.036-1.204-.035-.567.16-1.151-.088-1.7-.036-.07-.053-.088 0-.159.23-.336.353-.69.142-1.098.566-1.345.566-2.814.955-4.213.425-1.505.779-3.027 1.275-4.532.495-1.487.973-2.992 1.663-4.39.426-.85.886-1.7 1.328-2.55.177-.354.301-.39.567-.16.052.036.123.018.194.036.124.036.478-.106.513-.195a.887.887 0 0 1 .089-.177c.035.053.089.107.089.16.018.141-.018.283 0 .407.052.212.23.283.353.106.284-.336.85-.425.992-.743.177-.39.637-.566.672-1.01.036-.353.566-.07.566-.425 0-.265.143-.424.32-.602.85-.831 1.504-1.805 2.16-2.78.247-.37.247-.37-.214-.442-.123-.018-.318.036-.335-.106-.018-.088.176-.283.247-.283.443.036.496-.372.726-.566.213-.177.195-.602.637-.514.142.018.354-.195.354-.424 0-.249.107-.373.372-.355.548.054.708-.584 1.168-.69.142-.035.071-.248.088-.372.018-.142.018-.283.16-.337.938-.353 1.504-1.15 2.124-1.84.46-.531 1.116-.868 1.434-1.523.07-.142.23-.106.354-.124.177 0 .372 0 .46-.16.584-.99 1.718-1.132 2.55-1.752.442-.318.972-.496 1.327-.974.177-.247.62-.424.92-.496 1.328-.335 2.426-1.15 3.646-1.698.691-.301 1.363-.603 2-1.028.32-.212.727.107 1.045-.23.266-.265.638-.318.991-.442.372-.124.761-.249 1.098-.39.797-.337 1.593-.62 2.425-.814 1.063-.248 2.053-.726 3.116-.92 1.044-.195 2.124-.32 3.168-.585.283.425.23-.513.584-.124.16.16.602.16.85-.035.23-.177.53-.036.761-.23.195-.16.53.017.761-.196.053-.034.142-.088.178-.052.76.46 1.504-.125 2.248-.018.46.07.937-.248 1.345-.089.46.177.973-.141 1.362.249.55-.479 1.31.247 1.86-.32.07-.07.282-.053.37 0 .408.284.833.248 1.275.16.443-.089.832.177 1.275.212.354.018.708-.265 1.08.09.3.282.779.087 1.168.194 1.239.318 2.513.53 3.752.903.514.16.903.495 1.417.62.371.088.62.548 1.097.353.141.443.709.354.92.691.266.407.744.39 1.116.637a30.387 30.387 0 0 1 3.522 2.85c.425.407.867.814 1.328 1.204.265.248.85.248.708.832.284.23.531.514.85.69.247.142.407.337.495.585.16.424.426.743.832.938.142.07.212.124.248.266.195.832 1.009 1.275 1.275 2.054.142.389.176-.55.318-.054.071.248.142.514.23.761.088.231.32.284.46.496.266.425.354.921.603 1.346.247.424.548.831.796 1.257.266.46.495.955.655 1.416.372 1.15.831 2.266 1.204 3.417.318 1.044.389 2.124.707 3.168.16.514.249 1.098.249 1.664 0 .903.106 1.806.265 2.674.16 1.346-.018 2.673.106 3.984Zm-73.478 9.524c.017 0 .017 0 0 0 .017.885-.195 1.823.052 2.62.478 1.54.602 3.187 1.257 4.673.319.726.301 1.559.69 2.284.177.355.478.638.584 1.027.249.868.85 1.576 1.346 2.284a67.604 67.604 0 0 0 2.956 3.806c.991 1.187 1.982 2.373 3.045 3.488.743.778 1.646 1.346 2.39 2.107.619.637 1.434 1.08 2.23 1.399 1.735.672 3.416 1.522 5.221 2.053 1.222.354 2.408.832 3.665 1.115 1.505.354 3.026.638 4.549.939 1.558.319 3.15.371 4.726.602 1.186.177 2.39.335 3.611.265.78-.053 1.576.088 2.354.053.727-.035 1.452-.212 2.178-.3a13.898 13.898 0 0 0 2.407-.479c.921-.266 1.806-.584 2.691-.938.778-.319 1.61-.638 2.3-1.08.514-.337 1.063-.62 1.594-.92.106-.054.248-.036.372-.124.867-.674 1.823-1.222 2.69-1.913.584-.478 1.274-.885 1.788-1.38.726-.69 1.7-1.133 2.195-2.054 1.345-1.044 2.372-2.408 3.346-3.77 1.062-1.47 1.876-3.081 2.69-4.693.513-1.026.974-2.07 1.523-3.097.477-.885.53-1.983 1.204-2.798.034-.69.548-1.204.654-1.859.142-.779.39-1.54.69-2.23.319-.726.372-1.523.69-2.248.213-.46.213-1.028.266-1.558.036-.602.018-1.222.018-1.824-.018-.566.018-1.151.036-1.717.017-.921-.301-1.77-.425-2.639-.213-1.397-.761-2.708-1.222-4.053-.372-1.133-.796-2.23-1.203-3.346-.514-1.381-.974-2.798-1.7-4.09-.177-.318-.46-.601-.548-.938-.266-1.027-.957-1.788-1.647-2.443-1.38-1.31-2.62-2.798-4.248-3.824-.478-.301-.938-.638-1.38-.973-.815-.638-1.788-.974-2.655-1.54-.213-.142-.39-.39-.656-.426-1.115-.194-2.053-.832-3.097-1.204-.974-.336-1.983-.46-2.94-.796-.884-.3-1.875-.372-2.831-.408-.655-.018-1.239-.283-1.894-.247-.638.018-1.292-.054-1.93 0-.584.053-1.15-.106-1.734-.036-.637.071-1.293.036-1.93 0-1.522-.07-3.009.283-4.478.514-1.115.177-2.266.371-3.364.708-.389.123-.707.372-1.096.424-1.54.195-2.94.903-4.39 1.347-1.063.317-2.054.902-3.098 1.31-.709.265-1.328.725-2.037 1.008-.725.283-1.415.655-2.106 1.01-.708.353-1.328.885-2.053 1.186-.938.389-1.629 1.044-2.283 1.77-.372.407-.709.85-1.098 1.257-.141.16-.283.372-.407.478-.567.53-.85 1.275-1.416 1.806-.744.69-1.31 1.558-1.912 2.371-.655.886-1.327 1.771-1.965 2.692-.513.743-.708 1.664-1.38 2.284-.248 1.132-.868 2.124-1.221 3.222-.284.903-.674 1.806-.815 2.726-.177 1.115-.478 2.213-.584 3.346-.071.797-.337 1.558-.265 2.39.034.425 0 .903 0 1.38Zm57.333-33.708c-.017-.035-.017-.07-.052-.088-.319-.195-.478-.514-.85-.691-.85-.425-1.681-.955-2.46-1.487-.991-.655-2.107-.761-3.17-1.08-.336-.106-.725-.07-1.044-.23-.602-.3-1.239-.177-1.876-.195-.159 0-.266.036-.266.213 0 .124.09.16.195.176 1.682.107 3.169.85 4.726 1.381 1.363.478 2.726 1.063 3.912 1.895.213.142.425.177.656.213.123.017.195 0 .23-.107ZM12.087 29.04c-.018 0-.053.035-.071.052.018.018.036.072.071.072.018 0 .053-.036.07-.054-.034-.035-.052-.07-.07-.07Zm73.035 10.781c-.018 0-.052.036-.07.053.018.017.035.07.07.07.018 0 .054-.035.071-.053-.035-.034-.053-.07-.07-.07ZM41.117 83.62c0 .018.036.036.053.071.018-.017.054-.035.054-.053 0-.018-.036-.036-.054-.053-.017 0-.053.017-.053.035Zm1.469-21.05c-1.274.054-2.55 0-3.805-.211a10.05 10.05 0 0 1-1.912-.496c-.974-.355-1.895-.867-2.814-1.381a9.135 9.135 0 0 1-1.453-.991c-1.221-1.028-2.248-2.231-3.185-3.541-.16-.23-.071-.549-.337-.691-.513-.283-.76-.761-1.026-1.239-.532-.938-1.186-1.788-1.664-2.761-.301-.602-.373-1.275-.762-1.86-.177-.265-.07-.707-.195-1.062-.105-.336-.265-.707-.052-1.115.177-.354-.177-.69-.177-1.08-.018-.85.247-1.647.247-2.496 0-.372.177-.797.16-1.187-.018-.389.212-.708.177-1.062-.018-.425.247-.761.265-1.15.62-.23-.018-.656.16-.956.035-.053.053-.124.089-.178.353-.46.3-1.008.265-1.54-.018-.336-.018-.336-.514-.443-.07-.016-.124-.016-.194-.052-.62-.283-1.116-.885-1.947-.638-.195.072-.496-.283-.585-.601-.035-.142-.176-.213-.318-.106-.3.247-.673.442-.868.76-.336.603-.726 1.24-.814 1.895-.195 1.31-.797 2.496-.903 3.842-.07.867.088 1.805-.212 2.584-.336.885.354 1.718-.106 2.532.389.991.053 2.054.318 3.08.16.566.32 1.151.46 1.718.16.584.018 1.291.567 1.752-.106.567.514.779.602 1.24.106.513.354.92.62 1.328.354.548.813 1.044 1.15 1.61.39.62.903 1.15 1.345 1.718.337.424.78.743 1.134 1.15.335.372.707.691 1.06 1.044.267.267.603.496.887.744 1.238 1.08 2.743 1.789 4.07 2.762a7.98 7.98 0 0 0 1.824 1.01c1.558.601 3.097 1.273 4.726 1.663 1.151.284 2.32.567 3.487.62 2.62.106 5.24.16 7.789-.567 1.097-.318 2.123-.796 3.133-1.328 1.08-.566 1.965-1.363 2.92-2.053a19.466 19.466 0 0 0 2.514-2.177c.336-.355.584-.868.956-1.08.814-.479 1.256-1.222 1.77-1.912.78-1.027 1.434-2.125 2.16-3.17.212-.318.425-.654.53-.99.089-.302.302-.514.39-.78.107-.336.354-.531.496-.867.46-1.187.956-2.373 1.204-3.647.088-.39.406-.69.389-1.115-.035-1.134.354-2.248.212-3.4-.089-.743.23-1.487.054-2.266-.09-.407.495-.92-.036-1.398-.018-.018.018-.142.053-.178.177-.247.107-.495 0-.76-.16-.372.017-.815-.283-1.151-.089-.106.496-.407-.124-.39-.407.018-.496-.619-.867-.584-.337.035-.567.442-.974.425-.053 0-.142.106-.159.106-.55-.478-1.098.124-1.63.036-.459-.09-.654.3-.955.46-.3.16-.123.495-.141.744-.018.566.052 1.168-.036 1.716-.088.55.337 1.205-.3 1.63.035.035.053.106.087.106.231.053.284.212.16.354-.176.247-.106.513-.106.779 0 .336.035.69-.018 1.009-.052.247.195.637-.265.743l.053.903a.635.635 0 0 1-.035.195c-.266.885-.46 1.788-.815 2.62-.336.78-.584 1.593-1.027 2.354-.424.744-.85 1.488-1.398 2.09-.62.672-1.221 1.381-1.876 2.035-1.717 1.7-3.646 3.01-5.912 3.86-.867.319-1.682.655-2.603.832-1.646.318-3.274.655-4.797.531-.142.07-.212.07-.283.07Zm6.196-24.27c.141 1.062.708 1.893 1.716 2.23.373-.371.355.372.62.213.16-.09.301-.249.478-.32.124-.035 0 .497.337.196.3.23.548.16.69-.177.088-.213.195-.355.442-.301.266.052.425-.124.62-.249.78-.512.99-1.38 1.168-2.159.177-.76.213-1.593.213-2.39a56 56 0 0 1 .07-2.443c.018-.602-.106-1.222.036-1.806.319-1.24.071-1.965-.939-2.744-.105-.088-.247-.16-.283-.283-.177-.638-.796-.478-1.203-.708-.212.513-1.08-.426-1.15.513-.019.177-.266.053-.408-.053-.549-.39-.566-.39-.92.124-.16.23-.301.425-.602.46a.509.509 0 0 0-.425.39c-.213.92-.514 1.84-.566 2.761-.036.496-.107 1.009-.053 1.523.053.531.017 1.08.017 1.61a18.945 18.945 0 0 0 .142 3.613ZM38.09 40.052c.459-.584.831-1.15.99-1.912.106-.531.23-1.115.407-1.611.266-.762-.105-1.505.142-2.213a.627.627 0 0 0-.053-.584c-.23-.319-.194-.726-.089-.974.284-.655-.177-1.222-.053-1.841.036-.16-.07-.266-.176-.354-.337-.248-.425-.673-.709-.974-.247-.265-.318-.797-.885-.424-.106.07-.194-.107-.265-.231-.142-.23-.32-.46-.584-.53-.213-.054-.32.229-.479.318-.088.035-.211.07-.283.035-.389-.212-.672-.035-.955.213-.141.123-.23.177-.408.053-.335-.213-.62.142-.937.177-.284.035-.125.407-.195.602-.124.301-.407.513-.566.761-.142.248.052.672-.107.973-.212.373-.354.726-.142 1.17.071.123.053.335-.052.477-.231.336-.231.797-.072 1.062.23.425-.23.85.124 1.204-.495.744.142 1.487.053 2.249-.035.3.32.654.054 1.026-.09.124.018.195.088.23.319.23.39.603.53.92.072.143.054.39.32.46.725.196 1.363.71 2.036.62.955 0 1.68-.176 2.266-.902Zm25.4-20.907c.018.034.054.07.054.07.088-.036.088-.088.035-.124-.017-.018-.035 0-.07 0 0 0-.019.036-.019.054ZM39.95 32.9c-.018 0-.054.035-.07.053.016.018.034.053.07.053.018 0 .053-.035.071-.053-.036-.018-.053-.053-.071-.053Zm-25.277-9.932c-.39-.212-.55.07-.709.354-.177.319-.495.638.018.974.337.23.531.248.62-.071.195-.478.796-.85.07-1.257Zm-2.815 2.16c.089.123.159.283.266.336.371.195.778.726 1.132 0 .054-.123 0-.3 0-.424-.46.035-.938.052-1.398.088Zm-1.169 1.63c-.177.034-.53-.019-.495.264.017.16.284.425.46.443.354.035.514-.248.567-.655-.107-.354-.372-.089-.532-.053Zm1.86-3.737c.035.354.088.708.123 1.044.142-.07.319-.088.39-.195.194-.265.318-.548-.071-.76-.16-.035-.3-.053-.443-.089Zm1.823 3.505c-.071-.141-.107-.336-.195-.389-.195-.089-.425-.089-.655-.124.07.141.123.266.177.372.213.213.442.23.673.141Zm.035-2c-.018.141-.07.265-.07.408 0 .158.14.194.3.07.053-.053-.018-.23-.035-.354a1.132 1.132 0 0 1-.195-.124Zm67.937 45.746c.036-.018.124-.036.124-.053.018-.124.071-.301 0-.372-.407-.601-.637-.601-.903-.017-.07.177-.159.336-.23.512-.035.072-.035.143-.035.231.088 0 .177.018.248 0 .141-.036.265-.088.39-.142.141-.07.265-.123.406-.159Zm1.487-1.098c.177-.053.32-.141.23-.389-.053-.16-.16-.213-.3-.177-.195.053-.337.142-.23.39.035.176.159.212.3.176Zm-1.398-1.576c-.07-.123-.178-.176-.337-.106-.248.09-.23.249-.142.425.072.125.178.195.32.107.248-.09.248-.266.159-.426Zm1.45-1.168c.25-.088.231-.247.143-.425-.07-.123-.177-.177-.336-.105-.249.088-.213.247-.16.406.106.124.195.178.354.124Zm-2.973 6.905c-.176.106-.176.265-.212.407-.035.177-.195.424.018.531.248.124.3-.107.371-.3.036-.108.213-.142.301-.231.142-.124.054-.23-.018-.337-.106-.247-.265-.176-.46-.07Zm-3.681 3.063c.017.035.141.035.177.017.07-.053.177-.195.16-.212-.232-.266-.196-.514.035-.744.018-.018-.054-.141-.107-.16-.265-.087-.425.142-.602.248-.212.142.018.284.071.408.088.16.16.301.266.443Zm2.443-3.01c-.213.212-.213.495-.231.744-.018.247.3.212.478.265.054.018.213-.124.195-.16-.053-.282-.124-.548-.195-.832-.018-.034-.106-.052-.16-.07-.035.018-.052.036-.087.052Zm4.46-.903c-.035-.035-.124-.017-.177-.017-.053 0-.283.813-.247.867.088.177.194.124.389 0 .141-.071.23-.638.035-.85Zm-2.106-.46c-.072.017.035.159.07.248.071.16.177.283.372.141.088-.071.124-.141-.018-.336-.088-.018-.265-.088-.424-.054Zm-4.39 1.876c-.107-.16-.213-.124-.318-.035-.09.07-.107.141-.036.248.106.16.212.124.319.052.07-.088.088-.159.034-.265Zm1.31 1.806c-.16.107-.125.213-.036.319.07.089.142.105.248.035.16-.106.124-.213.053-.319-.089-.07-.16-.088-.265-.035Z" fill="#252422"/></g></svg>