<svg xmlns="http://www.w3.org/2000/svg" width="500" height="500" version="1.0" viewBox="0 0 375 375"><defs><clipPath id="a"><path d="M19.68 24.09h309V351h-309Zm0 0"/></clipPath></defs><g clip-path="url(#a)"><path d="M291.57 250.512c1.11-.133 1.762.652 1.567 2.023-.067.39-.914.977-.914.977-1.371-1.043-2.676-.258-3.457.59-1.5 1.761-3.133 2.414-5.348 2.09-.2 0-.457.195-.719.324.324.195.653.328.914.523.782.652 1.172 2.938.52 3.262-.914.457-1.824.39-2.738-.457-.524-.52-1.305-.324-1.438.785-.195 1.828.652 3.785-.586 5.48-.066.133.067.59.133.59 2.41.063 1.562 2.543 1.238 2.805-1.633 1.633.067 2.808.39 4.113.196.653 1.044 1.176.263 1.762-.391.328-1.11.262-1.633.195-.39-.066-.653-.586-1.043-.719-.781-.261-1.371-.261-1.434.852-.066.977.457 2.086-.652 2.805-.785.523-1.567 1.304-2.48 1.437-.653.063-1.372-.785-2.087-1.176-.59-.328-1.242-.523-1.828-.98-.847-.652-.976-.066-.847.523.195.914.324 2.024.914 2.676.976 1.11.715 2.414.847 3.656.196 1.239-.652 1.829-1.437 2.48a8.851 8.851 0 0 1-.977.653c.39.13.977.063 1.176.324.258.457.453 1.11.324 1.567-.066.39-.652.719-1.043.914-.39.133-.847 0-1.304.066-2.348.13-2.414.13-1.633 2.48.195.587.652 1.177-.258.977-1.895-.52-2.219 1.766-3.656 1.829-1.5.066-2.414.59-2.61 2.156 0 .195-.457.52-.586.52-2.347-.587-1.828 1.437-2.347 2.546-.328.586-.457 1.5-.98 1.695-.391.2-1.173-.652-1.762-.652-2.02 0-3.715-1.629-5.739-.976-.785-1.047 1.5-1.7.262-2.938-.523-.523-.328-2.285-1.566-.59-1.11 1.504-2.676.656-4.047.852-.977.129-.781.52-.258.976 1.172.914 1.824 1.895.324 3.133-.262.195-.262.719-.39 1.11-.13-.457-.262-.977-.524-1.434-.195-.39-.52-.98-.848-1.11-1.628-.394-2.933.587-4.304 1.172.523 1.7-1.89.98-1.828 2.223.066 1.172-.13 1.957-1.5 1.957.132.324.195.652.328.914.52 1.371.847 2.871 1.629 4.176.652 1.11-.391 1.305-.715 1.566-1.242.786-1.371.786-.59 1.633.914.98 1.242 1.828.394 3.067-.328.457-.261 1.046-.523 1.566-.195.39-.586.719-.914 1.11-.262-.262-.652-.458-.848-.72-.261-.324-.324-.78-.523-1.109-.453-.715-1.043-.976-1.5-.062-.586 1.238-1.762 2.219-1.5 3.785 0 .129-.457.324-.652.457-1.172-2.156-3.325-1.242-5.086-1.566-1.7-.262-3.524.324-3.852 1.5-.195.652.066 1.5-.062 2.152-.067.328-1.11.785-1.11.785-1.828-2.285-4.828-1.043-6.98-2.352-.133-.062-.524.067-.586.133-.133.262-.2.653-.067.848.977 1.633 1.11 2.351.52 3.066-.977 1.176-2.02 1.243-3.324.457-.59-.324-2.22-.195-2.22 0-.523 2.48-1.5 1.438-2.542.395-.195-.195-.395-.59-.652-.59-.524 0-.98.195-1.438.328.262.39.457.914.785 1.238.13.196.52.133.782.262-.524 1.043-1.239 2.024-1.5 3.133-.196 1.043-.72.914-1.434 1.11-1.242.327-2.676.456-3.066 2.09-.067.195-1.047.456-1.372.323-.98-.52-1.957-1.043-2.738-1.824-.914-.98-1.7-1.633-3.004-.656-.195.133-.586.066-.847 0-1.63-.324-1.63-.324-1.63 1.309v1.304c-1.175 0-2.284-.066-3.456 0-.328 0-.914.39-.914.586-.133 2.024-.786.59-1.371.328-.325-.195-.848 0-1.305 0 0-.98.262-2.285-1.5-1.566-.524.195-.977.52-1.5.652-1.371.457-1.89 1.11-1.238 2.285.39.782 1.367 1.63.195 2.024-.785.258-2.285.781-3-.652-.2-.329-.328-.657-.524-.981-.129.262-.261.457-.328.719-.652 2.543-3.261 1.629-4.761 2.676-.13.066-.782-.72-1.239-1.11.39-.195.782-.394 1.239-.59.394-.129.847-.195 1.175-.39.13-.13.196-.524.067-.782-.067-.199-.457-.523-.457-.457-1.567 1.11-3-.652-4.633-.195-.848.195-2.805 1.11-2.871-1.242-.781.262-2.281.39-2.348.785-.39 2.414-2.805 2.024-4.11 2.934-.718.457-2.675.457-3.523-.586-1.304-1.5-2.738-1.828-4.566-1.762-1.824.066-3.652.262-5.152-1.5-.586-.652-2.48-.133-3.786-.262-.652-.066-1.304-.328-1.957-.523.133-.39.133-.848.391-1.176.523-.586 1.11-1.566 2.09-.652.457.394.914.914 1.043-.196.195-2.218-1.371-3.718-2.48-5.418-.063-.062-.52.067-.782.196-.781.394 1.762 1.308-.262 1.566-1.629.262-.261.785-.129 1.242.13.325.067.914-.132 1.176-.196.195-.782.262-1.172.13-.653-.196-1.238-.72-1.89-.72-1.048-.062-1.177-.52-1.11-1.37 0-.391-.196-.782-.328-1.173-.196.258-.457.52-.52.848-.328 1.5-.59 3-.914 4.438-.066.261-.523.652-.848.652-.328 0-.847-.586-.847-.586 1.433-2.024-.785-2.09-1.567-2.871-.261-.262-.718-.328-1.109-.457.129-.133.195-.262.324-.328.395-.262 1.11-.782 1.176-.72 1.043 1.048 1.371.134 1.043-.519-.39-.914-.977-2.285-2.543-1.175-.39.324-1.043.457-1.566.457-2.153.195-2.48 0-3.524-1.957-.262-.457-.39-1.047-.652-1.504-.195-.39-.586-.653-.914-.914-.13.394-.324.718-.453 1.109-.2.523-.2 1.11-.524 1.566-.98 1.504-2.086 1.633-3.652.653-2.48-1.567-4.371-2.414-6.461-2.414-1.305 0-1.758-.325-1.758-1.696 0-.914-2.676-1.828-3.656-1.957-1.238-.199.066 2.477-1.5 1.239-.715-.586-1.5-1.5-1.567-2.352-.128-1.11-1.367-2.934 1.176-3.328.13 0 .13-.914.196-1.434-2.348.13-4.176-1.242-6.262-1.96-.39-.13-1.043.261-1.434.523-.066.066.258.719.324 1.11.196.652 1.957.913.782 1.698-.52.325-2.348.848-2.868-.652-.261-.656-1.828-1.96.586-2.09.13 0 .457-1.761.196-1.894-2.153-1.434-1.696-3.524-1.696-5.547 0-1.043-.457-1.11-1.304-1.176-.653-.062-1.305-.457-1.762-.914-.262-.262-.195-1.371-.195-1.371 2.804-.457-.196-2.086.586-3 0 0-.391-.652-.72-.785-1.562-.52-3.456-1.696-4.566-2.871-.257-.262-.585-.653-.847-.653-1.305.067-2.414-.328-3.653-.847-.718-.328-1.824-.328-1.695 1.175 0 .13-.328.325-.523.457-.13-.851-.258-1.699-.324-2.48 0-.328.39-.656.652-.914.066-.066.324 0 .457 0 .781-.328 2.152.848 2.414-.914.258-1.305-.457-1.7-1.566-1.961-1.829-.39-.262-2.871-2.415-3.195-.066-.133.13-.329.391-.524-.195-.129-.39-.457-.586-.457-.39 0-.719.195-1.11.328.263.196.524.39 1.305.586.325.719.782 1.895-.718 1.633-.781-.133-1.5-.719-2.281-.848-1.305-.199-1.243-.785-.72-1.765.329-.586.391-1.305.524-1.957.195-.98.52-.457 1.043-.262.914.328 1.957.262 2.934.395.394.062 1.11.062 1.176.257.324.98.457 2.22 1.761 1.11.457-.39.262-1.63.13-2.48-.063-.259-.849-.454-1.306-.653-.585-.258-1.238-.586-1.824-.848-.261-.129-.785 0-.785-.066-.195-.652-.129-1.434-.457-2.024-.652-1.238-.91.457-1.5.329-.652-.196-1.305-.262-2.02-.457-1.699-.391-2.218-.915-1.632-1.762.652-1.043.98-1.242-.524-1.371-1.043-.067-2.086-.524-3.129-.848.13-.262.13-.59.325-.719.523-.328 1.699 0 1.437-1.11-.523-1.956-.98.458-1.695.13-.59-.324-1.438 0-2.156-.13-.258-.065-.52-.651-.52-.98 0-1.433 0-1.433-.98-1.566-2.153-.262-2.868-1.11-3.52-3.457-.395-1.305-1.11-2.48-1.762-3.656-.195-.328-.59-.848-.718-.781-1.696.585-3.196-1.047-5.024-.133-1.238.586-1.762-.325-1.371-2.024.066-.39.066-.847.066-1.304 0-1.043-.78-1.305-1.37-.786-.716.59-1.11.72-1.567-.062-.258-.457-.586-1.371-.453-1.438 1.957-1.37 1.629-4.175 3.652-5.613 1.172-.848.914-1.5-.457-2.805-.195-.195-.328-.523-.262-.785.13-.523.457-1.043.457-1.566.067-1.89-.652-.914-1.304-.39-.067.066-.586-.786-.914-.786-1.696-.129-1.567-.781-.72-1.89 1.763-2.352 1.763-2.743 0-5.09-.519-.72-2.019-1.176-3.194-.98 0-.587-.13-1.243.066-1.763.129-.394.719-.59 1.11-.914 1.109 1.5 2.085.653 3.261 0 .848-.457 1.824-.59 2.672-.914.262-.066.719-.328.719-.328-.848-2.219 2.414-2.87 4.504-4.176 2.804-1.109 2.41-2.09.91-2.609-.977-.328-1.762-1.047-2.61-1.633-.257-.195-.39-.586-.52-.914-.39.39-.98.719-1.175 1.238-.324.852 1.176 3.07 2.152 3.07 1.305-.066 1.438.587 1.372 1.567-.13 1.5.976 1.238 1.695 1.043.457-.129.785-.848-1.762-1.762-3.262-.914-4.238-.39-4.371-1.5-.324-2.546-.715-5.027-.848-7.574-.066-1.11-.39-1.433-1.5-1.5-.78 0-1.5-.586-2.28-.847-1.11-.329-.458-.786-.067-1.043.847-.72 1.37-1.504 1.11-2.614-.196-1.11-.59-.39-1.044-.129-.394.196-.98 0-1.504 0 .067-.39-.062-.847.133-1.175a5.478 5.478 0 0 1 1.238-1.239 20.59 20.59 0 0 1 2.024-1.242c-.98-.39-1.957-.914-3-1.238-.524-.2-1.371.195-1.7-.067A5.33 5.33 0 0 1 41.528 209c-.195-.652-.132-1.242.914-1.5 1.825-.395 1.696-2.023 1.63-3.46.78-.067 1.827.39 1.761-1.11-.066-.98-.195-2.743.129-2.871 3.133-.98.98-2.743.719-4.18-.262-1.5.586-1.695 1.761-1.5.196 3.133.524 3.46 2.938 3.523h1.758c1.957 0 2.023-.062.98-1.761-.652-1.043.524-1.434.719-1.5 1.238-.196 2.61-.328 3.781-.13 2.547.458 2.871.325 3-2.023 0-.59.067-1.175 0-1.765 0-.258-.258-.457-.39-.715-.196.324-.262.715-.52.976-.195.196-.457.262-.719.395-.129-1.633-1.633-2.285-2.48-3.395-.653-.851-.977-.457-1.63.063-.194.133-.847-.324-1.37-.52.262-.394.652-1.175.847-1.109 1.895.52 1.958-2.547 4.047-1.961.586.133.457-2.61-.59-3.328-.847-.586-2.347-.848-.847-2.285-.262-.13-.457-.258-.715-.39-.262-.13-.523-.13-.785-.263.195-.195.39-.457.652-.652 1.238-1.043 1.371-1.957 0-2.61-1.433-.718-1.695-1.632-1.762-3.066 0-1.175.458-1.699 1.5-1.37 2.153.652 3.329-1.243 4.961-1.829.848-.328.91-3.004.196-3.328-.328-.133-.98.324-1.5.457-.457.062-1.305.195-1.438 0-.261-.457-.261-1.11-.129-1.633.063-.262.52-.523.914-.652.258-.133.586 0 .848 0 .652-.133 1.629.39 1.695-.719.067-1.5-1.109-.848-1.828-1.043-.52-.133-1.043-.262-1.566-.394.394-.391.785-.782 1.11-1.239.26-.328.327-.718.589-1.043.848-1.242 1.563-1.11 2.672.196.328.324.848.52 1.242.78.195-.39.457-.718.457-1.108.195-2.805-.851-3.458-4.047-3.458-.976 0-2.347 2.676-2.87.13-.391-1.829 2.48-.067 2.87-1.696 2.348.652 4.371-2.223 6.852-.457.91.652.652-.394.715-.785.132-.652-.258-1.5.914-1.567.523 0 1.11-.195 1.633-.324-.457-.199-.915-.394-1.305-.656-.133-.063-.195-.52-.067-.586.977-.781.457-1.894.848-2.676 1.176-.195 1.762-.457 2.285-.652-.523-.39-.98-.914-1.566-1.176-.133-.066-.785.524-.914.914-.067.196.261.653.261.98-.59.063-1.109.325-1.109.587-.195 1.304-.785 1.37-1.695.652-.457-.324-.785-.848-1.242-1.238-.653-.524-.391-.785.066-1.305.652-.785 2.348-.523 2.219-2.09 0-.066.719-.262 1.172-.262 2.156-.066 2.09-.066 2.218-1.695.196-2.09.59-4.18.848-6.27.066-.714-1.762-2.085.785-1.824.324 0 .914-.59.977-.98.39-2.48.719-5.027.914-7.57.066-1.047.652-.914 1.305-1.176 2.218-1.043 2.152-1.11 2.218-3.395 0-.847-.066-1.828.325-2.48.195-.324 1.37-.067 2.023-.262 1.305-.457 2.61-1.828 2.738-2.676.133-1.172 1.828-1.957.785-3.457-.39-.59.325-1.894.262-2.87 0-.657-.394-1.31-.785-1.829-1.172-1.828-.652-3.266 1.566-4.047.653-.195 1.176-.719 1.828-.851 1.368-.325 1.11-1.043.457-1.825-.59-.652-.718-1.37.13-1.699.847-.324.913.653 1.304 1.11.652.718 1.434 1.304 2.086 2.156.523.715 1.957.976 3.004 1.043 1.367.129.848-.586.258-1.11.394-.195 1.11-.586 1.176-.523.847 1.633 1.628-.324 2.414-.063.195.063.457-.261.652-.394-.262-.129-.523-.457-.719-.39-2.152.456-2.086-.915-1.89-2.286.066-.457.457-.847.78-1.238.067-.067.391-.067.391 0 .2.457.457.976.395 1.433 0 .395-1.176.72-.195 1.176.52.262 1.957-.261 1.957-.261-.395-3 1.824-2.22 3.39-2.348.39 0 .782-.262 1.176-.39-.262-.329-.59-.59-.851-.915-.586-.785-1.434-1.504-1.696-2.351-.195-.72-.062-2.09.39-2.348 1.243-.656 1.048.781 1.505 1.367.586.719 1.629 1.047 2.347 1.633.325.262-.457 1.828.914.848.715-.457 1.434-1.172.52-2.086-.129-.133-.195-.196-.324-.328-.524-.586-1.567-1.11-.848-2.09.52-.653 2.543-.325 3.324.457.328.328.653.851 1.043.98.785.262 1.371 1.696 2.547.457.848-.847 1.305-1.5.195-2.48-.261-.196-.195-.781-.195-1.239.063-2.351.13-2.351-1.762-4.18-.785-.78-1.175-1.237-.328-2.48.914-1.37.395-2.937-.976-4.175-1.043-.915-.719-1.305.914-1.7.39-.062.781-.257 1.172-.39-.325-.196-.715-.262-.977-.52-.328-.394-.719-.851-.719-1.308-.066-1.11.13-2.086-1.5-2.48-.847-.259-.261-2.024.914-2.349.262-.066.653.13.848-.066.652-.52 1.305-1.176 1.957-1.762.195.785.195 2.153.653 2.285 2.542.848.976 1.434 0 2.09-.329.196-.72.325-1.043.457.39.13.78.258 1.171.391.524.195 1.043.39 1.567.52.781.199 1.566.394 2.414.656-.328 1.043-1.043 1.5-2.086 1.629-.2 0-.457.785-.328 1.11.066.26.719.589.98.522.91-.195 1.825-.585 2.739-.847.39-.067.847.062 1.238.129-.13.328-.195.719-.39.914-1.63 1.305-1.434 2.09.523 2.87.586.196.715 1.505 1.304 2.024.586.457 1.368.457 1.434-.652.652-.129 1.566.457 1.762-.719.066-.457-.067-.914 0-1.304.129-1.11.324-2.153.523-3.262 1.695.457 1.043-1.371 1.758-1.895 1.371-.976 2.547-2.543 4.047-2.937 1.824-.52 3.914-.195 5.87-.063.325 0-1.437.848-.132 1.368.652.261 1.438 0 2.219.066 1.11.066 2.347 0 3.328.457.848.39 1.043-.066 1.238-.39.59-.848.785-2.024 2.153-2.09.132-2.024 1.632-1.434 3.523-.653 1.438.914 1.695.914 1.957.848.262-.063.457-.196.719-.324-.133-.196-.262-.457-.39-.524-.72-.324-1.438-.652-2.153-.848-.2-.066-.785.196-.785.391-.067.39 0 .98.261 1.11.457.261 1.043.195.457-.653-1.89-3.2-1.761-3.914.52-4.371 1.957-.394 1.633-.98.719-2.156-.196-.262.132-.977.261-1.434.524.196 1.239.258 1.434.653.395.652.457 1.566.785 2.285.13.257.653.586.914.586.258 0 .52-.457.781-.72-1.238-1.237.196-2.413 0-3.655.848.394 2.543-1.043 2.676 1.109 0 .133.586.328.715.262 2.219-1.5 3.004-1.63 3.524 0 .718 2.418 1.238.457 1.632.133.391-.329.457-.98.653-1.438.324-.914.39-2.285.976-2.547 1.043-.52 1.567.914 2.348 1.438.195.129.719.261.785.195.39-.52.715-1.043 1.043-1.633.195.395.39.852.652 1.242.325.586.586 1.239.914 1.828.063.13.196.196.325.325.132-.196.457-.457.457-.586-.325-2.352.457-4.176 2.285-5.68.715-.586 1.043-.652 1.629.066.523.653.847 1.176.133 1.829-.329.261-.786.457-1.243.652.391.129.848.129 1.176.324.13.067.13.719-.066.852-.39.324-.914.586-1.371.847-.453.262-1.63-.586-1.239.72.133.456 1.11.976 1.696.976.59.066 1.437-.325 1.828-.782 1.11-1.242 2.676-2.48 3-3.98.39-1.828 1.176-.457 1.695-.719.59-.261.067-1.761 1.5-1.504.98.2 2.024-.195 2.742.852.067.129.782-.133 1.172-.262-.195-.328-.586-.652-.586-.914 0-.457.262-.98.39-1.437.395.261 1.177.59 1.177.785-.262 1.633 1.043 2.285 1.89 3.199.262.258.914.52 1.11.39a54.172 54.172 0 0 0 3.718-2.675c.262-.196.391-.785.391-1.11-.195-2.156-.195-2.09 1.566-2.351.782-.129 1.567-.52 2.348-.781 1.633-.524 3.262.847 3.133 2.738 0 .262-.524.656-.848.656-1.437.195-.719 1.305-.847 2.024-.067.129.324.39.457.586.129-.262.257-.458.39-.72.196-.323.324-.847.52-.847 1.242-.133 2.48-1.5 1.957-2.414-.715-1.176-1.434-1.96.652-2.156-.062-.324-.062-.653-.129-.914-.129-.977-.261-1.957-.328-2.938 0-.129.2-.324.262-.324.195.066.59.129.59.262-.067 2.152 2.41 2.543 2.933 4.504.457 1.695 2.938 1.172 4.305 2.086.133.066.652-.262.652-.391.067-2.547 1.957-1.11 2.938-1.238.715-.067 1.629 1.238 1.629-.653 0-.132.261-.328.261-.328 1.829.719 1.957-1.5 3.133-1.828.39 1.895.457 3.98 2.672 4.961l3.719 2.676c.262-.196.59-.324.652-.524.328-1.043.457-2.218.98-3.132.52-.848.782-.196.848.394.13 1.11.914 1.11 1.5.586 1.176-1.043 2.48-2.023 2.086-3.98-.195-.98.133-.848 1.11-.524 2.218.785 3.914 2.152 5.48 3.852.719.718.129.78-.457.914-.39.066-.719.457-1.043.652-1.11.524-1.633.195-1.566-1.043.066-.785 0-1.566-1.043-1.371-1.11.195-.586 1.11-.719 1.762-1.566-.196-2.348.586-2.672 2.023-.262 1.238.258 1.633 1.629 1.043.652-.262.914-.523.98.328.063.848-.066 1.762.063 2.61 0 .328.328.847.59.914.324.066 1.105-.262 1.043-.328-.133-1.762 1.11-1.305 2.02-1.368 2.09-.066 4.113-.066 6.199-.718 1.175-.391 1.304-.98 1.828-1.7.52-.714 2.152.59 2.347-1.043 1.957.329 3.848.586 5.739.98.195 0 .394.458.394.653-.066.325-.262.782-.59.977-.324.262-.715.328-1.11.457.33.133.72.394 1.048.457 1.5.457 3-.324 3.847-1.172 1.762-1.7 2.872.39 4.305.324.133 0 .524.914.39 1.043-1.366 1.504-1.171 2.418.848 2.875.395.063.59.586.914.914-.39.13-.78.39-1.171.39-.848.063-1.762 0-2.61.063-.195 0-.394.329-.59.457.262.133.457.329.72.395 1.042.062 1.109.652.847 1.434-.195.59-.781 1.503-.52 1.761.52.59 1.367 1.176 2.086 1.176 1.762-.129 2.348.523 2.153 2.219-.067.394.328.851.523 1.242.129-.39.195-.785.324-1.176.067-.129.262-.328.262-.328.195.067.39.2.586.395.066.062-.063.324 0 .39.914.914-1.89 2.024 0 2.48 1.242.325 1.043-1.632 1.762-2.413.457-.457.652-1.371 1.175-1.633.52-.328 1.762-.39 1.957-.067.586.848.848 1.961 1.239 2.938 0 .066-.457.328-.653.39-2.086.786-2.414.915-1.433 2.547.91 1.5 0 2.352-.457 3.461-.457 1.172.129 2.024 1.367 1.891 2.219-.195 4.504-.39 6.656-.914.848-.195 1.5-1.238 2.281-1.89.524-.458 1.7-.196 1.829.519.128.523.195 1.176.128 1.7-.195 1.565.72 1.632 1.829 1.5.457-.067 1.109-.13 1.238.065.262.391.39 1.239.195 1.434-.586.457-2.348.262-.586 1.633 1.176.98 1.305 2.09.262 3.328-.195.262.129.98.195 1.438.524-.196 1.043-.329 1.5-.586.328-.2.524-.657.719-.98.195-.329.324-.587.52-.915.132.39.132.914.394 1.176.39.324 1.106.324 1.367.719.262.324.067.976.067 1.433-3.262-.324-2.22 2.09-2.286 3.723 0 .258.458.586.72.781.195.066.585-.066.718-.195.652-.914 1.172-1.895 1.89-2.676.329-.328.981-.328 1.5-.523.067.523.329 1.175.067 1.5-1.176 1.503-.781 2.09.977 1.96 1.046-.066 1.175.586 1.046 1.372-.195 1.433 1.043 1.628 1.563 1.171 1.242-.976 2.219.067 3.262.133.394 0 .718.39 1.11.586-.392.133-.782.195-1.173.328.063.262.13.782.195.782 1.305.132 2.934-.52 3.196 1.632.328-.195.652-.586.914-.586.457 0 .976.258 1.433.391-.257.39-.457.914-.847 1.176-1.238 1.11-1.305 1.762-.063 2.676.653.52 1.305 1.043 2.02 1.566.59.39.719.781.066 1.238-.847.653-1.433 1.438-1.176 2.614.067.257 0 .586 0 .847.067 1.305-2.933 1.5-1.238 3.395 1.89-.262.98 2.152 2.414 2.543.524.133.848 1.11 1.239 1.633.847-1.438 1.304.523 2.023.195.195-.067.523.195.719.262-.262.195-.524.523-.785.523-1.63 0-3.067-.066-3.524 2.152-.324 1.371-1.89 1.5-3.262 1.438-.324 0-.976.586-.976.914.066 1.043.781.977 1.5.52.262-.13.523-.653.586-.586.719.324 1.437.78 2.152 1.175-.453.457-.91.977-1.433 1.368-.325.261-.782.261-1.11.523-.129.133 0 .59 0 .848 1.305-.13 2.543-.258 3.848-.457.199 0 .328-.325.457-.52-1.11-.652-.781-1.762-.715-2.742 0-.39.258-.719.457-1.043.129.39.195.848.453 1.11.59.585 1.305.976 1.957 1.5.262.195.328.327-.453.847-1.176.785-.851 2.156-.523 2.676 1.043 1.761.976 2.937-.457 4.504-.653.652-.457 2.156-.457 3.265 0 .848.718 1.824.523 2.61-.195.718-1.11 1.304-1.762 1.894-1.043.91.196 1.367.52 1.5.914.39 2.219 1.305 2.547-.785.062-.258.847-.586.914-.586 1.105 1.438 2.215-.262 3.261 0 .391.066.91.262 1.043.523.13.325-.066 1.043-.328 1.11-2.218.914-2.476 2.61-2.347 4.762.066 1.109-1.11.59-3.586.132-1.567-.132-1.371.391-1.047.782 1.566 1.828 1.566 1.828 2.414-.196.066-.195.262-.261.39-.457-.714-.39-1.367-.847-2.085-1.172-.262-.132-.586-.199-.782-.132-.261.066-.394.328 1.043 1.175 2.477 1.567 2.871 3.133 4.633 1.828.129-.132 1.434.72 1.5 1.239.063.719-.394 1.566-.848 2.219-.261.328-.98.394-1.503.523-.391.129-.715.328-1.106.457.39.129.781.39 1.172.39 1.305 0 2.348-.066 2.871 1.7.324 1.238.719 2.086-.328 3.066-.195.196-.39.39-.652.524-.13-.262-.391-.457-.391-.72-.063-.589 0-1.175 0-1.76-.063-.458.066-1.31-.781-.59-.328.261-.719.98-.586 1.175 1.043 1.762.258 3.719.52 5.547.195 1.371-.52 2.09-1.762 2.613-.391.13-.586.715-.914 1.11.457.195.98.652 1.37.586.915-.13 1.829-.72 2.743-.782.976-.066 2.086 0 2.867.457.652.391-.063 3.72-.848 4.371-.261.262-.847.524-1.109.391-1.043-.39-.063-.715.066-1.11.13-.519.196-1.109.196-1.695 0-.261-.262-.457-.39-.718-.13.261-.33.457-.458.718-.652 1.372-1.629 2.938-.586 4.309.781 1.043-.39 1.238-.262 1.629.524 1.762-2.414.914-1.761 2.285a14.75 14.75 0 0 0 2.87 4.047c.587.586 2.087.262.587 1.7-.848.78-3 1.566-.977 3.327-.262.196-.59.39-.848.52-.914.457-1.761.98-1.699 2.219 0 .394-.062 1.046-.324 1.175-.719.328-1.5.457-2.285.653.914.523 1.047 1.437.785 2.285a17.375 17.375 0 0 1-1.762 3.656c-.785 1.176-1.437 2.152-.328 3.395.067.062-.195.652-.39.718-1.305.258-2.282-.328-2.805-1.437-.129-.262.129-.848.39-1.11.262-.328.786-.457 1.176-.652-.59-.328-1.175-.652-1.828-.914-.129 0-.324.781-.652.977-1.824 1.113-.324 2.222 0 3.265.328.914-.977 2.414 1.176 2.61.976.132-.067.718-.196 1.11-.328 1.175.196 1.894 1.172 1.37.98-.586 1.043-1.043 1.438.457.457 1.828.78 3.524.847 5.418.063 1.242.586 2.414.782 3.59.066.39-.457.785-.72 1.242-1.304-1.176-1.956 0-3 .586-.913.524-2.218.195-3.39.324-.39.067-1.695 2.547-1.633 3.2 0 .261.067.718-.062.847-1.047.98-.848 1.309.52 1.309.718 0 1.828 0 2.023.324.586 1.043.781 2.352 1.043 3.523 0 .133-.324.524-.586.524-.848.129-2.938-1.305-2.871-2.219.195-1.762-1.5-.98-1.957-1.828 0-.066-.653.133-.719.262-.324 1.043-.715 2.09-.91 3.133-.395 2.351-.395 4.894-3.785 5.09-.262 0-.586.847-.586 1.304-.067 1.309 0 2.613 0 3.984 0 .586.195 1.239-.067 1.762-.457.914-1.109 1.762-1.695 2.61-.133.195.324.785.715 1.242.652.847 1.957 1.304 1.957 2.738 0 .395.851.785 1.176 1.242.261.457.328.98.457 1.5-.782 0-2.285.133-2.285.067-.196-1.305-.848-1.567-2.086-1.5-.524.062-1.567-.457-1.63-.457-.523 1.304.587 1.171 1.305 1.566-.066-.195-.132.652.13 1.762-.262 0-.458-.524-.587-.457-.457.066-.914.324-1.37.523.261.39.456.977.78 1.11.262.128.786-.329 1.176-1.176Zm17.942-98.426h.39c-.066-.195-.132-.457-.261-.652-.067-.067-.329.062-.524.129.133.195.262.328 1.633 1.042-.133-.195-.262-.324-.39-.52-.133.13-.262.263-.395.392.2.128.328.261.523.39 0 0 .13-.129-.976-.781Zm-145.41-88.113c-.196.129-.325.257-.52.39.129.13.258.262.39.39.13-.194.262-.323.391-.523 0-.062-.195-.195-.781.915v-.391c-.2.066-.457.133-.652.262-.067.066.062.324.129.523.195-.066.39-.2 1.043-1.566Zm118.464 20.625c0-2.352 0-2.352-2.476-2.157-.328 0-.719.329-1.043.457.39.133.781.262 1.172.391.457.2.914.328 1.37.523-.39.391-.78 1.043-1.237 1.176-.848.196-1.762 0-2.61.067-.195 0-.394.39-.394.652-.063.262.132.781.132.781 1.372-.129 2.348 1.176 4.043.457 1.567-.652.786-1.566 1.043-2.347Zm29.227 74.273c-.719-.715-1.5-1.5-2.348-2.281 0 0-.39.39-.586.457-1.699.715-1.699.715-.914 2.414.196.39.196.781.325 1.176.39-.2.847-.328 1.242-.524.129.39.195.782.39 1.176.063.195.325.262.52.457.457-.914.848-1.766 1.371-2.875ZM145.969 73.176c0 2.152.129 2.219 1.5 2.219.976 0 1.238-.457 1.11-1.31-.134-1.304-1.177-2.542-1.958-2.151-.394.195-.523 1.043-.652 1.242Zm-14.094 252.656c-.52 0-.457 0-.195 1.176.066.39-.52.847-.653 1.305-.062.328.196.914.457 1.042.262.133.848-.062 1.11-.261.261-.258.129-.781.328-1.11.976-2.152.976-2.152-1.047-2.152ZM308.141 190.66c-.067-.133-.262-1.37-.653-1.437-1.828-.262-.847 1.304-1.11 2.09-.065.128-.194.195-.26.324-.13.328-.325.851-.263.851.524.39 1.176.653 1.762.91.195-.39.39-.847.524-1.238.066-.262 0-.586 0-1.5ZM101.02 103.785c.59-.652 1.304-1.238 1.695-2.023.2-.39-.324-1.176-.52-1.762-.652.457-1.5.781-1.957 1.371-.261.324-.133 1.11 0 1.695-.066.196.325.329.782.72Zm158.39-32.832c-.457 0-.914-.129-1.305 0-.39.133-.785.59-1.109.852.39.261.719.78 1.11.847a8.852 8.852 0 0 0 2.609 0c.262 0 .652-.523.652-.847 0-.262-.328-.72-.652-.852-.39-.129-.848 0-1.305 0Zm6.785 217.742c.196-.132.52-.261.586-.457.328-.914.653-1.828.98-2.675.13-.395 1.173-.72.196-1.176-.457-.196-1.176-.133-1.7.066-.257.063-.456.977-.39 1.043 1.305.848 0 1.633 0 2.414 0 .262.195.524.328.785ZM218.965 52.81c-.133-.063-.457-.391-.719-.325-.586.13-1.172.391-1.762.586.457.653.848 1.371 1.305 2.024.328-.719.719-1.434 1.176-2.285ZM49.418 257.887c.133-.196.457-.457.457-.653-.063-.98.457-1.242 1.305-1.109v-.848c-.586-.066-1.434-.261-1.63 0-.39.457-.39 1.239-.523 1.891 0 .262.262.523.391.719Zm2.809 1.304c-.262 1.11-.457 1.762-.524 2.48 0 .196.262.458.39.653.458-.652.915-1.304 1.305-2.023 0-.13-.52-.52-1.171-1.11Zm7.175 12.403c.586-.59 1.106-.98 1.043-1.11-.133-.39-.523-.785-.847-1.046-.067-.063-.785.394-.785.656-.063.39.261.781.59 1.5Zm15.262-122.121c-.324-.52-.39-.782-.52-.848-.652-.262-1.37-.39-2.09-.586 0 0-.128.262-.062.324.262.395.52.852.914 1.047.39.195.977.063 1.758.063Zm24.727 163.566c-.457.652-.848.98-.98 1.371-.063.195.39.586.651.848.391-.324.848-.524 1.043-.914.067-.196-.324-.653-.714-1.305Zm-10.047-6.137c.586-.586 1.11-.976 1.043-1.109-.13-.39-.52-.781-.848-1.043-.066-.066-.781.39-.781.652 0 .328.324.786.586 1.5ZM74.926 136.355c.195-.39.39-.785.523-1.242.067-.195-.261-.457-.39-.652-.395.523-.786.98-1.176 1.504.195.062.457.129 1.043.39ZM52.68 250.578c-.196-.523-.39-.98-.586-1.504-.13.395-.457.719-.39 1.11 0 .523.26 1.046.39 1.566.195-.39.39-.715.586-1.172Zm215.082 29.957c.129.13.195.195.324.328.129-.199.262-.394.262-.59 0-.066-.196-.195-.262-.261a1.43 1.43 0 0 0-.324.523ZM152.035 65.996c-.133-.133-.195-.2-.328-.328-.129.195-.262.39-.262.586 0 .066.196.2.262.262.133-.13.195-.325.328-.52Zm2.153 1.305c.195-.133.39-.196.585-.328-.128-.13-.195-.262-.261-.262-.196.066-.39.195-.586.262.066.132.195.195.262.328Zm147.69 149.726c-.132-.195-.194-.39-.327-.586-.13.13-.262.196-.262.262.066.195.195.39.262.586.066-.066.195-.129.328-.262Zm2.282-1.433c-.129.129-.262.195-.262.258.067.199.196.394.262.59.133-.133.262-.196.262-.262 0-.196-.129-.39-.262-.586ZM91.43 307.883c.132.129.195.195.328.328.129-.2.262-.395.262-.59 0-.062-.196-.195-.262-.262a5.456 5.456 0 0 1-.328.524Zm1.761 6.137c.133.128.196.195.329.324.128-.196.261-.39.261-.586 0-.067-.199-.195-.261-.262-.067.195-.196.328-.329.524Zm52.32 23.234c-.132.133-.261.195-.261.262.066.195.195.39.262.586.129-.13.258-.196.258-.262 0-.195-.13-.39-.258-.586ZM128.028 67.562c-.586.196-1.175.458-1.828.653-.781.262-1.367.195-1.433-.852 0-.52-.067-1.238-.391-1.566-.457-.457-1.176-.652-1.762-.977-.129.52-.328 1.043-.457 1.5-.261.785-.457 1.567-.781 2.285-.457 1.239-.133 2.48.977 2.938 1.043.39 2.742 1.305 3.328-.914.066-.262.78-.586.976-.524 1.242.786 2.024 1.047 1.762-.976-.129-.524-.262-1.047-.39-1.567ZM95.54 79.18c-.324-.59-.977-1.11-1.562-1.567-.915-.785-3.329.196-3.59 1.305-.39 2.285.523 3.394 3.066 3.46 2.086.063 3.133-1.437 2.086-3.198Zm164-32.375c-.262.328-.715.457-.39 1.242.652 1.566 2.152 1.957 3.195 2.933.394.329 1.633-.128 2.414-.39.394-.13.847-.586.98-.977.325-.98.586-.523 1.11-.199.39.2.976 0 1.5 0 0-.715-.067-1.367-.067-2.086-.52.067-1.172-.133-1.5.129-1.957 1.633-3.98 1.633-6 .262-.394-.262-.394-.98-.59-1.5-.195.261-.457.39-.652.586ZM39.31 223.23c0 2.934 1.043 3.329 3.98 2.153.977-.39 1.367-.586 1.305-1.633-.067-1.176-.719-1.762-1.762-2.023-.39-.13-.848 0-1.305 0-2.218 0-2.218 0-2.218 1.503Zm134.84-183.148c1.042-.262 1.695-.848 1.828-2.09.128-1.172-.524-1.367-1.438-1.566-.781-.196-1.371-.848-2.152-1.172-.457-.195-.977-.133-1.5-.262.066.52.066.977.195 1.5.129.848.262 1.633.523 2.414.196.524.653.914.848 1.176.848 0 1.305.133 1.695 0Zm138.425 99.668c2.156-.195 1.242-2.547 2.285-3.59.13-.133.13-.59.067-.59-1.047-.39-2.024-.847-3.067-1.043-.914-.195-1.828.914-1.957 2.286-.132 1.37 1.305 3.066 2.672 2.937ZM81.973 111.488c.261-.133.586-.914.52-.98-1.5-1.238-1.305-3.395-2.61-4.7-.258-.261-.91-.585-1.043-.456-.324.328-.586.847-.715 1.304-.457 1.242.715 2.09.781 3.133.13 1.305.324 1.961 1.696 1.7.457.062.98.195 1.37 0ZM273.762 60.84c-.067-.2-.719-.457-.782-.395-.394.457-.652 1.305-1.109 1.371-.652.133-1.371-.324-2.09-.457-.066 0-.39.457-.39.653a8.699 8.699 0 0 0 1.695 4.894c.133.2.39.262.586.395.133-.262.262-.457.328-.719.066-.457.129-.914 0-1.305-.262-.59-1.762-1.437.262-1.304 1.566.062 1.629-.72 1.5-1.766 0-.52.129-.977 0-1.367Zm-44.035-11.88c.195-1.175-.325-1.96-1.172-2.546-.457-.328-.98-.39-1.438-.652-1.433-.719-1.695-.524-1.762.914v.847c0 2.22 0 2.22 2.352 2.22.652-.196 1.762.652 2.02-.782Zm24.855.52c.457.98 1.043 1.958 1.633 2.872.258.394.715.914 1.043.914 1.11-.13.586-1.11.719-1.696.195-.914-1.567-1.175-.59-2.61 1.043-1.565.718-1.765-1.11-1.765-1.89-.062-2.414.72-1.695 2.285ZM135.398 64.56c-.066 1.5 1.043 1.175 1.762 1.043 1.567-.262 1.762-1.5 1.762-2.872 0-1.042-.195-1.5-1.434-1.5-2.156 0-2.156-.066-2.156 2.024.066.457.066.914.066 1.305Zm56.493-14.098c.066-1.566-.715-1.633-1.825-1.5-.718.062-1.5-.133-2.152.062-.262.067-.523 1.11-.394 1.176 1.37 1.11 2.87 2.153 4.37 3.133.133.129.653-.328.981-.457-.457-.98-1.043-1.695-.98-2.414Zm54.992 250.7c-.52.066-.91.651-1.367.784-1.957.653.062 2.739-1.305 3.59-.133.063-.133.39-.195.586.257.067.52.262.78.195 1.892-.523 3.263-2.347 3.458-4.828-.39-.066-.914-.394-1.371-.328Zm-3.848-257.88c.067.196.524.39.653.324a69.344 69.344 0 0 0 3.59-2.414c.062-.066-.133-.847-.395-1.043-.653-.39-1.434-.785-2.215-.914-.719-.132-1.828-.457-1.762 1.043v1.7c0 .128 0 .714.13 1.304ZM40.223 168.664c.129-1.894-.653-3.46-1.762-3.328-1.305.195-1.89 1.11-1.762 2.414.067.914-.457 2.219 1.305 1.957 1.89.133 2.086 0 2.219-1.043Zm150.625 177.922c-.13-.258-.914-.258-1.371-.39-.196 2.156-1.891 1.503-3.13 1.699-.327.062-.652.78-.652 1.238 0 .457.39 1.305.586 1.305.719-.063 1.89.652 2.024-.782.129-1.047.914-1.242 1.433-.785 1.11.98 1.305.652 1.242-.586-.066-.586.13-1.242-.132-1.7ZM107.152 72.719c-.976-.2-1.828.129-2.152.976-.195.39.324 1.11.457 1.633.129.652-.39 1.695.719 1.695.586 0 1.238-.585 1.695-1.109.324-.39.39-.977.652-1.5.715-1.5.586-1.762-.914-1.762-.129.067-.328.13-.457.067Zm34.38-19.059c-.196-.457-.587-1.176-.782-1.11-.523.063-1.242.454-1.371.848-.328 1.11.848 2.414-.457 3.457-.067.067-.067.262 0 .395.066.129.195.324.262.324.714.067 1.433.262 2.02 0 .589-.261.98-.914 1.241-1.238-.328-1.176-.59-1.961-.914-2.676ZM303.964 247.38c-.914 0-2.086-.524-2.024 1.305.067 2.09-.062 2.218 1.567 2.218.914 0 2.219.524 1.957-1.304.133-2.153.133-2.286-1.5-2.22ZM132.789 38.32c-.066-1.828 0-1.695-1.957-1.828-1.434-.066-1.629.586-1.566 1.762.066 1.828 0 1.828 2.023 1.762 1.371.328 1.566-.457 1.5-1.696Zm-62.691 97.903c-.063-.325-.715-.848-1.043-.848-1.696-.063-2.672 1.047-2.414 2.613.066.39.523.715.652.91 2.152-.062 3.133-1.109 2.805-2.675Zm88.394-96.141c.324-.262.781-1.11.653-1.238-.72-.852-1.633-1.504-2.48-2.219-.13-.066-.716.063-.716.195-.133.977-.262 1.957-.133 2.871 0 .262.914.391 1.043.391.852 0 1.371.195 1.633 0Zm115.66 33.613c-.066 0-.066.39-.066.59 1.894-.066 1.437 2.543 3.066 2.805.262.066.72-.067.786-.13.128-.98.324-1.96.261-2.874 0-.195-.914-.324-1.437-.453-.262-.067-.586 0-1.305 0-.195 0-.781 0-1.305.062ZM43.746 203.258c-.066-.59-.652-1.371-.457-1.633.91-1.371-.262-.98-.785-.98-.848 0-2.543 2.023-2.219 2.808.2.457 1.047.586 1.567.848.652-.586 2.023.652 1.894-1.043ZM275.066 69.19c-.39 0-1.109.133-1.109.262-.066.457-.066 1.176.262 1.438.976.718 2.023 1.238 3.129 1.761.199.067.59-.328.851-.457 0-.523-2.676-3.004-3.133-3.004ZM80.796 304.684c-1.304 0-1.304 2.613-3.194 1.699-.067 0-.196.195-.329.324-.062.066 0 .195.067.328.328.586.586 1.238.914 1.828.39-.261 1.043-.457 1.238-.851.457-.977 2.61-.258 1.895-2.739.129.063-.2-.59-.59-.59Zm109.856-261.73c-1.304.327-.261 1.37-.652 1.96-.195.258-.652.457-1.043.52-.586.066-1.176 0-1.695.066-.262 0-.457.262-.719.39.195.196.39.391.523.59.977 1.172 2.348.782 3.52.52.262-.063.262-1.238.394-1.89-.066-.852-.199-1.505-.328-2.157ZM42.57 182.303c-.457-.066-1.175-.066-1.433.262-.719.977-1.242 2.024-1.762 3.133-.066.13.129.586.324.719.196.129.653.258.785.129.91-.914 1.758-1.895 2.61-2.871-.262-.653-.328-1.371-.524-1.371Zm51.864-90.202c-.457.195-.914.39-1.305.652.258.394.52.785.848 1.11.257.261.652.456 1.043.59.78.323 1.566.585 2.347.847-.262-.848-.39-1.828-.781-2.547-.262-.457-1.047-.586-1.305-.652h-.847Zm-20.746 32.18c.195.062.39.195.585.261.067-.262.329-.656.262-.719-.976-1.176-.847-2.547-.914-3.984 0-.13-.652-.39-1.043-.39-.195 0-.586.26-.586.456-.066.59 0 1.176 0 1.762-.328 1.437.195 2.352 1.695 2.613ZM197.108 44.52c.067.785.848 1.175 1.438.718.457-.324.914-.718 1.172-1.238.523-.914-.977-3.07-2.02-2.809-.328.067-.523.98-.59 1.176 0 .98-.062 1.567 0 2.153Zm-76.843 26.109c.062-.133-.329-.652-.653-.914-.652-.457-1.37-.914-2.09-1.238-.39-.133-.976.128-1.5.195.133.39.067.914.329 1.172.78.785 1.628 1.437 2.609 2.285.586-.586 1.043-.977 1.305-1.5Zm171.109 198.094c-.195-.328-.262-.72-.457-1.11-.129.325-.324.715-.457 1.043-.324.719-.719 1.438-.848 2.219-.195.98.457 1.242 1.239 1.11.523-.13 1.046-.458 1.699-.782-.457-1.047-.785-1.765-1.176-2.48Zm24.137-143.856c.129.328.129.653.324.914.394.719.719 1.438 1.242 2.024.195.261.715.457 1.043.39.262-.062.586-.52.586-.847.133-1.696-.586-2.48-2.414-2.61-.258.063-.52.13-.781.13ZM292.55 88.383c.453 1.11.976 2.219 1.562 3.328.067.129.196.195.328.324.391-.652.914-1.238 1.172-1.957.133-.39 0-1.176-.324-1.433-.652-.457-1.5-.657-2.414-.98-.129.194-.39.522-.324.718ZM161.82 47.59c-1.243-.457-2.481-.914-3.72-1.309-.195-.062-.652.262-.652.395 0 1.11 3 2.61 4.043 2.023.196-.066.196-.457.328-.719 0-.132.063-.328 0-.39Zm16.37 293.187c.59-.324 1.243-.586 1.762-.976.719-.59.39-1.242-.195-1.828-.39-.391-.848-.786-1.172-.72-1.176 0-.785.915-.914 1.567v.848c.062.195.324.652.52 1.11ZM327.06 108.875c-.98-.457-2.676.395-3.067 1.566-.066.329.13.914.39 1.047 1.177.586 3.134-.718 3.067-1.96-.066-.196-.129-.52-.39-.653Zm-13.047 16.059c-.785.062-1.957-.067-2.219.39-.523.785-.457 1.895-.652 2.871.39 0 1.043.067 1.109-.062.39-.852.586-1.766 1.828-1.766.063 0 .195-.457.258-.715-.129-.261-.258-.718-.324-.718ZM277.48 67.69c-.132.067-.195.524-.195.72.063.26.262.456.39.718 1.177-1.176 1.434-.719 1.372.652 0 .39.258.715.39 1.11.458-.914.915-1.895 1.239-2.871 0-.133-.977-.524-1.434-.786-.719.196-1.242.262-1.762.457ZM71.926 112.207c-.13-1.113-1.11-.59-1.696-.656-.457-.063-.914-.13-1.304 0-.262.133-.39.656-.457 1.047 0 .195.195.586.39.652.391.129.848 0 1.305 0 .719-.066 1.957.457 1.762-1.043Zm156.89 229.68c-.59-.653-1.242-1.305-1.828-1.957-.261.39-.718.718-.781 1.175-.2.98.063 1.696 1.89 1.372-.066 0 .325-.262.72-.59ZM46.81 229.69c-.454.13-.848.457-1.305.653.59.652 1.176 1.304 1.828 1.89.066.067.652-.586.719-.652.195-1.434 0-2.152-1.242-1.89ZM213.027 25.004c.586.652 1.305 1.242 1.957 1.828.196-.457.524-.848.653-1.305.261-1.238-.52-1.437-1.957-1.238-.13.063-.72.715-.653.715ZM21.238 205.867c.457 0 .914-.39 1.305-.652-.586-.653-1.176-1.371-1.828-1.957-.063-.067-.652.52-.781.652-.067 1.824.066 2.024 1.304 1.957ZM266.52 63.907c-.653.066-1.696-.262-1.5.847.132.652.914 1.305 1.5 1.762.195.132.785-.325 1.109-.457-.129-1.172.39-2.286-1.11-2.153ZM202.852 332.03c-.262.067-.391.653-.457 1.047 0 .195.261.586.457.652.718.067 1.5.13 2.152 0 .39-.066.586-.652.914-1.046-.39-.258-.785-.586-.914-.653-.977-.062-1.629-.129-2.152 0Zm-145.93-141.11c-1.176-.066-.914.911-.848 1.5.067.392.52.72.848 1.11.652-.586 1.371-1.176 2.543-2.219-1.305-.195-1.89-.39-2.543-.39Zm205.422 118.333c-.586-.652-1.239-1.305-1.824-1.957-.262.39-.72.715-.786 1.172-.195.98.067 1.699 1.895 1.37-.067 0 .324-.26.715-.585ZM119.223 62.274c-.98 0-1.957-.067-2.871.066-.196.066-.329.976-.262 1.5 0 .328.39.785.652.847.324.067 1.043-.257 1.043-.39 0-.848.133-1.371 1.176-1.305.195 0 .457-.262.652-.457-.195-.066-.328-.262-.39-.262Zm-18.918 17.82c-.328.719.78 3.066 1.562 3.195.195.066.653-.129.719-.258.328-.719-.781-3.004-1.566-3.265-.262.132-.586.132-.715.328ZM48.113 180.02c-.586-.196-1.172-.586-1.758-.586-1.437.062-.718 1.238-.851 1.957-.063.328.262.785.59 1.761 1.11-1.632 1.566-2.347 2.02-3.132Zm76.719-118.528c-.262-.394-.59-.785-.848-1.11-.328.391-.718.716-.847 1.11a3.656 3.656 0 0 0 0 1.696c.062.261.52.652.847.652.325 0 .715-.324.848-.653.129-.39.063-.847.063-1.304-.063-.067 0-.262-.063-.39ZM91.562 86.88c-.39.066-1.042.523-1.042.851-.067.848 1.238 1.957 1.957 1.696.39-.13.585-.781.52-.719.327-1.89-.52-2.023-1.434-1.828Zm-32.878 62.27c-.586-.196-1.176-.59-1.762-.59-1.434.066-.719 1.242-.848 1.96-.066.325.262.782.586 1.762 1.11-1.633 1.567-2.351 2.024-3.133Zm-30.856 69.706c0-.066-.785-.652-.848-.585a10.427 10.427 0 0 0-1.761 2.023c-.133.195.195.715.52 1.762 1.175-1.7 1.632-2.414 2.09-3.2ZM160.516 51.57c-.133.39-.196.848-.457 1.11-.329.324-.98.324-1.243.718-.257.391-.257.977-.324 1.434.524 0 1.176.195 1.434-.062.523-.524.847-1.31 1.304-1.961-.39-.586-.52-.914-.714-1.239Zm128.64 27.348c-1.11-.066-2.281 0-3.39 0-.133 0-.329.195-.329.262.067.195.067.52.262.586.586.328 1.176.914 1.762.847.719-.062 1.434-.586 2.219-.914-.262-.457-.39-.781-.524-.781ZM98.801 89.426c.199 0 .457-.457.394-.653-.066-.39-.195-.98-.457-1.043-.523-.132-1.175-.195-1.695 0-.457.196-.852.782-1.242 1.172.39.262.785.524.847.524 1.047.066 1.633.066 2.153 0Zm-25.375 36.226c-.653 0-1.63-.328-1.434.848.063.586.715 1.11 1.11 1.633.585-.457 1.109-.914 2.152-1.766-.98-.39-1.371-.715-1.828-.715ZM45.44 173.95c-.066-.195-.59-.457-.718-.324-.914.52-1.371 1.957-.848 2.938.066.195.457.257.719.257.258 0 .652-.129.715-.324.132-.39.132-.785.132-.914.063-.785.13-1.242 0-1.633Zm220.297 124.207c-.586-.457-1.11-1.304-1.761-1.367-1.11-.2-.786.91-.786 1.5 0 .39.329.781.72 1.633.847-.852 1.37-1.309 1.827-1.766Zm11.742-12.855c-.718.129-1.828-.59-1.957.847 0 .13-.066.329 0 .391.782.914 1.372.328 2.086-.262.391-.324.98-.39 2.153-.78-1.239-.134-1.762-.263-2.282-.196Zm-.39-225.18c.129 0 .258-.457.195-.719 0-.261-.262-.652-.328-.652-1.043.39-2.152.781-3.195 1.176l1.043.52c.914-.13 1.566-.13 2.285-.325Zm11.023 6.461c-.39.066-1.043.523-1.043.848-.132 1.175.848.847 1.5.847.457 0 .848-.324 2.282-.976-1.63-.457-2.215-.719-2.739-.719ZM217.332 46.48c-.062-.394-.52-1.046-.848-1.046-1.172-.13-.847.847-.847 1.504 0 .457.328.847.98 2.28.457-1.628.715-2.218.715-2.738ZM51.637 189.156c-.13-.39-.653-.847-.977-.847-.59-.067-1.566-.391-1.566.718 0 .391.718.786 1.11 1.239.651-.453 1.823.261 1.433-1.11ZM250.863 43.805c.457.195.848.586 1.305.652.785.195 1.5-.066 1.305-1.047-.067-.39-.72-.586-1.371-1.11-.52.653-.91 1.11-1.239 1.505ZM289.68 75c-.067.852-.067 1.7 0 2.547 0 .195.39.39.652.39.262.067.586 0 .781-.128.39-.329-.324-3.067-.914-3.266-.195.2-.52.328-.52.457ZM108.914 64.102c-.066-.391-.523-1.043-.848-1.043-1.175-.133-.847.847-.847 1.5 0 .457.324.847.976 2.285.457-1.633.785-2.156.72-2.742Zm191.332 29.046c0 .258.719.653 1.11.715.652.133 1.5.262 1.433-.847 0-.325-.324-.653-.453-.914-1.047.132-2.219-.457-2.09 1.046Zm5.285-.132c-.133 0-.328-.067-.39 0-.914.785-.329 1.37.257 2.09.329.39.395.914.59 1.433.196-.52.39-.977.586-1.566-.523-.653.457-1.825-1.043-1.957Zm-19.375 167.546c-.39.13-.847.653-.847.981-.067.586-.391 1.566.718 1.566.391 0 .782-.718 1.106-.98-.324-.781.328-1.895-.977-1.567Zm-61.71-219.109c0 .98.128 1.895.257 2.871.2-.129.457-.195.59-.324.324-.719.652-1.438.848-2.219.066-.261-.328-.59-.586-1.047-.457.328-1.11.524-1.11.72ZM45.702 273.813c-.394.066-1.047.523-1.047.847-.129 1.176.848.848 1.5.848.457 0 .852-.324 2.285-.977-1.632-.457-2.218-.719-2.738-.719Zm-3.851-53.262c-.586-.457-1.11-.977-1.696-1.434-.066-.066-.523.457-.781.653.39.39.715.847 1.11 1.238.585-.196.976-.324 1.367-.457Zm205.03-172.504c-.128.39-.39.715-.39 1.11 0 .652-.324 1.566.848 1.5.328 0 .652-.329 1.305-.587-.715-.785-1.239-1.437-1.762-2.023Zm60.802 43.273c.128-.652.324-1.37.457-2.09 0-.195-.262-.457-.391-.652-.457.652-.98 1.305-1.305 2.024-.132.261.196.78.325 1.109.328-.066.585-.262.914-.39Zm-90.352-49.476c.066-1.176-.848-.914-1.5-.848-.39 0-.715.262-1.11.39.59.524 1.176 1.048 1.895 1.762.39-.652.715-.976.715-1.304ZM38.395 204.168c-.653.066-1.5-.453-1.696.656-.066.324.262.715.39 1.11.72-.329 1.438-.653 2.544-1.176-.653-.39-.977-.653-1.238-.59Zm185.593 121.664c.13-.39.39-.719.39-1.11 0-.652.325-1.566-.847-1.5-.328 0-.652.325-1.304.587a39.775 39.775 0 0 1 1.761 2.023ZM153.926 54.246c-.067.524.129 1.043.262 1.566.457-.585 1.042-1.109 1.433-1.695.066-.133-.324-.59-.781-1.242-.39.652-.848.98-.914 1.371ZM252.3 51.7c-.457.59-.98 1.11-1.438 1.7-.066.062.457.519.653.78.39-.39.847-.718 1.238-1.109-.195-.652-.324-.976-.453-1.37Zm-65.367 284.707c-.196.067-.391.262-.391.39-.066.786 1.043 2.352 1.371 2.09.258-.195.324-.718.39-.847-.066-1.309-.585-1.894-1.37-1.633ZM326.73 151.234c-.062.2.395.59.653.852.394-.328.847-.524 1.047-.914.062-.133-.328-.59-.72-1.305-.522.653-.913.977-.98 1.367Zm-35.355-65.922c-.129-.39-.523-.78-.848-1.042-.066-.067-.785.39-.785.652 0 .39.328.848.653 1.566.523-.652 1.046-1.043.98-1.175ZM122.418 57.77c-.39.132-.785.523-1.043.847-.066.067.39.785.652.785.391 0 .848-.328 1.563-.652-.653-.523-1.043-1.043-1.172-.98Zm193.68 104.039c-.063.195.39.59.652.851.39-.328.848-.523 1.043-.914.066-.133-.324-.59-.715-1.309-.457.657-.848.981-.98 1.372Zm-262.633 2.808c0 .196.719.719.781.653.39-.262.719-.653.848-1.043.066-.133-.457-.524-1.043-1.11-.262.715-.586 1.11-.586 1.5Zm243.129-83.023c-.13-.067-.524.261-.781.39.453.72.976 1.438 1.433 2.09.129-.39.262-.719.524-1.304-.395-.391-.72-.848-1.176-1.176Zm4.5-.914c-.196-.067-.586.39-.848.652.328.39.524.848.914 1.047.13.062.586-.328 1.305-.719-.652-.457-.98-.847-1.371-.98Zm-178.09-28.914c-.129-.391-.52-.786-.848-1.043-.066-.067-.781.39-.781.652 0 .39.324.848.652 1.566.52-.652 1.043-.98.977-1.175ZM106.37 81.723c0 .199.715.718.781.656.391-.262.72-.656.848-1.047.066-.129-.457-.52-1.043-1.11-.262.72-.586 1.11-.586 1.5Zm-40.383 60.703c-.39.129-.781.52-1.043.847-.066.067.39.786.653.786.39 0 .847-.329 1.566-.657-.652-.52-1.043-1.043-1.176-.976ZM47.07 187.395c-.195 0-.715.718-.652.785.262.39.652.718 1.043.847.133.067.523-.457 1.11-1.043-.716-.261-1.11-.59-1.5-.59Zm235.563 79.367c-.067.199.39.59.652.851.39-.328.848-.523 1.043-.914.067-.133-.324-.59-.715-1.304-.457.652-.847.976-.98 1.367Zm-214.883 20.3c-.39.13-.781.524-1.043.848-.066.067.39.785.652.785.391 0 .848-.328 1.567-.652-.653-.523-1.043-1.047-1.176-.98Zm55.254-209.906c-.195-.39-.652-.652-1.043-.914-.195.262-.652.653-.652.848.129.39.523.719.976 1.37.395-.651.852-1.108.719-1.304ZM38.266 192.684c-.196 0-.72.718-.653.78.262.391.653.72 1.043.849.13.066.524-.458 1.11-1.043-.72-.262-1.11-.586-1.5-.586Zm1.824 46.21c-.195-.066-.52.13-.781.258.261.395.457 1.047.78 1.114.59.129 1.243-.067 2.548-.2-1.242-.652-1.895-.976-2.547-1.171ZM154.773 58.294c-.128-.457-.324-.914-.523-1.371-.129.523-.258 1.043-.324 1.566-.067.39-.067.848 0 1.242.066.258.262.454.457.653.129-.133.39-.262.39-.457.067-.395 0-.852 0-1.242 0-.13.067-.325 0-.391ZM27.043 197.969c-.063.195.395.59.652.847.395-.324.848-.52 1.047-.914.063-.129-.328-.586-.719-1.304-.523.652-.914.98-.98 1.37ZM280.352 76.242c.39-.39 1.171-.847 1.109-1.176-.133-.523-.719-.98-1.11-1.433-.195.324-.328.715-.59 1.172.196.457.395.914.59 1.437ZM123.07 73.176c.72.39 1.371.847 2.086 1.172.133.066.457-.13.524-.325.066-.261.129-.718 0-.785-.457-.261-.98-.39-1.438-.586a4.712 4.712 0 0 0-1.172.524Zm140.32-8.356c-.394.13-.785.52-1.046.848-.063.066.394.785.652.785.395 0 .852-.328 1.567-.656-.653-.52-.977-1.043-1.172-.977ZM40.68 213.828c-.457.067-.914.328-1.371.524.261.39.457.98.78 1.109.263.133.786-.324 1.306-.652-.391-.524-.586-.98-.715-.98Zm196.418-157.82a20.782 20.782 0 0 0-1.696-.848c-.062 0-.324.262-.39.39-.067.263-.13.786 0 .786.586.258 1.175.39 1.828.52.195.066.457-.196.715-.325-.13-.195-.258-.457-.457-.523Zm41.164 222.375c0 .195.718.715.785.652.39-.262.715-.652.848-1.047.062-.129-.457-.52-1.043-1.11-.329.72-.59 1.11-.59 1.505ZM188.043 33.945c-.195 0-.719.72-.652.785.261.391.652.72 1.043.848.132.067.523-.457 1.109-1.043-.652-.262-1.043-.59-1.5-.59ZM100.891 72.13c-.524-.129-1.043-.262-1.633-.324a4.297 4.297 0 0 0-1.305 0c-.129 0-.258.324-.324.586 0 .066.195.261.262.261.457.067.847 0 1.761 0 .196 0 .715-.261 1.239-.523ZM63.184 277.336c-.262 0-.586.328-.848.457.39.39.781.785 1.176 1.176.195-.262.39-.524.847-1.11-.523-.195-.847-.523-1.175-.523ZM259.477 43.672c-.196-.067-.457.262-.653.39.52.395.977.786 1.5 1.176.063-.261.196-.457.39-1.11-.456-.128-.847-.39-1.237-.456Zm-28.77 3.2c.39.128.781.323 1.172.26.394-.066.785-.327 1.242-.523-.39-.129-.785-.261-1.305-.457-.39.196-.718.457-1.109.72ZM44.398 192.683c-.199-.067-.457.261-.652.39.52.39.977.781 1.5 1.176.063-.262.195-.457.39-1.11-.39-.132-.784-.394-1.238-.456Zm246.715 73.882c.133-.39.328-.78.262-1.171-.066-.395-.328-.786-.523-1.243-.13.391-.258.786-.457 1.305.199.457.457.785.718 1.11ZM36.438 178.715c-.52.39-.977.781-1.5 1.176.195.129.457.457.652.39.457-.066.847-.328 1.238-.457-.258-.586-.324-.847-.39-1.11Zm275.226 37.336c0-.133-.328-.2-.523-.328-.13.39-.262.78-.262 1.175 0 .13.328.262.652.457 0-.523.133-.914.133-1.304Zm-24.66 43.664c-.067.262 0 .52 0 .848.328-.196.719-.329.848-.653.132-.328-.13-.719-.325-1.5-.261.715-.457 1.043-.523 1.305ZM248.187 54.703c0-.39-.128-.785-.195-1.11-.195.067-.586.13-.52.13 0 .457.063.98.13 1.761.39-.52.585-.652.585-.78Zm-58.12-16.578c.062.39.261.719.39 1.11.129-.196.39-.458.39-.653 0-.39-.195-.785-.324-1.242-.195.328-.457.59-.457.785Zm-67.063 42.098c0-.391-.129-.782-.195-1.11-.196.067-.586.13-.524.13 0 .456.067.98.133 1.765.39-.457.652-.59.586-.785Zm117.75 233.273c-.133.195-.457.457-.395.652.067.391.262.72.395 1.11.129-.195.324-.457.52-.781-.196-.329-.391-.653-.52-.98ZM294.44 82.441c-.39 0-.785.196-1.175.262.132.195.195.524.328.524.39 0 .781-.067 1.238-.133-.129-.262-.262-.653-.39-.653ZM129.984 337.84c-.261-.195-.457-.453-.78-.52-.196-.066-.458.196-.72.262.13.324.262.652.325.781.652-.324.914-.39 1.175-.523ZM117.328 59.469c-.129.195-.457.457-.39.652.066.39.261.719.39 1.11.133-.196.328-.458.524-.786-.196-.261-.329-.586-.524-.976Zm-14.871 27.476c-.195.262-.457.457-.523.785-.067.196.195.457.261.715.325-.129.653-.257.782-.324a14.27 14.27 0 0 0-.52-1.176Zm131.64-33.613c.133.652-.456 1.695.915 1.762-.13-.653.39-1.696-.914-1.762ZM90.583 97.715c.066.195.195.39.262.59.129-.133.261-.2.261-.262-.066-.195-.195-.395-.261-.59-.067.067-.262.195-.262.262ZM41.07 213.437c.13.133.262.262.39.391.13-.195.263-.324.392-.52 0-.066-.196-.195-.262-.261a3.523 3.523 0 0 1-.52.39Zm7.043-19.382c.133.129.262.257.395.39.129-.195.258-.328.39-.523 0-.067-.195-.195-.261-.262a2.205 2.205 0 0 0-.524.395Zm3.914-4.047-.39.39c.195.13.328.262.523.391.067 0 .195-.195.262-.262-.067-.195-.195-.324-.395-.52Zm52.711-109.914c.067.195.196.39.262.586.129-.13.262-.196.262-.262-.067-.195-.196-.39-.262-.586-.129.066-.328.195-.262.262Zm-59.234 103.32c-.195-.129-.39-.262-.586-.262-.066 0-.195.196-.262.262.196.129.395.195.59.328.063-.133.129-.262.258-.328ZM295.813 81.527c-.067-.195-.133-.457-.262-.652-.067-.063-.328.066-.524.133.133.195.262.324.391.52h.394ZM108.98 84.66c.13.133.258.262.391.395.129-.2.262-.328.39-.524 0-.066-.195-.195-.261-.261-.195.128-.39.261-.52.39Zm111.028-37.008c.129.133.262.262.39.395.133-.2.262-.328.391-.524 0-.066-.195-.195-.258-.261-.195.066-.328.261-.523.39ZM108.98 85.055c-.195.062-.457.129-.652.257-.066.067.063.329.129.524.195-.129.328-.262.523-.39v-.391ZM140.88 340.19c.066.196.195.391.262.586.129-.129.261-.195.261-.257-.066-.2-.199-.395-.261-.59-.133.066-.328.195-.262.261Zm161.976-248.48c.133.129.262.262.391.39.133-.195.262-.324.395-.523 0-.062-.2-.195-.262-.258-.195.13-.328.258-.524.39ZM187.391 48.895c-.067-.196-.13-.458-.262-.653-.063-.066-.324.063-.52.13.13.194.258.327.391.523h.39ZM55.16 228.777c-.977-.328-1.763-1.047-2.61-1.632-.262-.196-.39-.586-.524-.915-.39.391-.976.72-1.172 1.243-.328.847 1.172 3.066 2.153 3.066 1.304-.066 1.433.586 1.37 1.566-.132 1.5.977 1.239 1.696 1.043.457-.128.781-.847.914-.976.063-1.895-.328-2.875-1.828-3.395ZM280.155 82.441c-.328 0-.719.329-1.047.457.395.133.786.262 1.176.391.457.2.914.328 1.371.523-.394.391-.785 1.043-1.242 1.176-.848.196-1.762 0-2.61.067-.195 0-.39.39-.39.652-.066.262.133.781.133.781 1.367-.129 2.348 1.176 4.043.457 1.566-.718.781-1.566 1.043-2.347-.067-2.352-.067-2.352-2.477-2.157Zm29.356 74.149s-.395.39-.59.457c-1.695.715-1.695.715-.914 2.414.199.39.199.781.328 1.176.39-.2.848-.328 1.238-.524.133.39.196.782.39 1.176.067.195.329.262.524.457.39-.851.782-1.7 1.371-2.809-.718-.78-1.566-1.566-2.347-2.347ZM147.469 75.395c.976 0 1.238-.457 1.11-1.31-.134-1.304-1.177-2.542-1.958-2.151-.457.195-.59 1.043-.652 1.242 0 2.152.129 2.219 1.5 2.219Zm-15.79 251.613c.067.39-.519.847-.652 1.305-.062.328.196.914.457 1.042.262.133.848-.062 1.11-.261.261-.258.129-.781.328-1.11.976-2.086.976-2.023-1.047-2.086-.52-.066-.457-.132-.195 1.11Zm175.81-137.785c-1.829-.262-.848 1.304-1.11 2.09-.067.128-.195.195-.262.324-.129.328-.324.851-.262.851.524.39 1.176.653 1.762.91.195-.39.39-.847.524-1.238.066-.262 0-.586 0-1.5-.067-.133-.262-1.37-.653-1.437Zm-204.774-87.395c.2-.39-.324-1.176-.52-1.762-.652.457-1.5.782-1.957 1.371-.261.325-.133 1.11 0 1.696 0 .195.39.328.848.719.523-.72 1.305-1.305 1.629-2.024ZM258.172 71.02c-.395.132-.785.59-1.11.847.391.262.715.785 1.11.852a8.852 8.852 0 0 0 2.61 0c.257 0 .652-.524.652-.852 0-.258-.329-.715-.653-.847-.394-.13-.847-.067-1.304-.067-.457 0-.98-.129-1.305.067Zm49.773 77.738c1.567 1.824 1.567 1.824 2.414-.2.063-.195.258-.257.391-.456-.719-.391-1.371-.848-2.09-1.172-.258-.133-.586-.196-.781-.133-.262.066-.39.328-.781.652.257.457.457.914.847 1.309Zm-41.164 139.48c.328-.914.653-1.828.98-2.675.13-.395 1.173-.72.196-1.176-.457-.196-1.176-.133-1.7.066-.257.063-.456.977-.39 1.043 1.305.848 0 1.633 0 2.414 0 .262.195.524.328.785.196-.132.52-.261.586-.457ZM218.246 52.484c-.586.13-1.172.391-1.762.586.457.653.848 1.371 1.305 2.024.328-.719.719-1.371 1.176-2.285-.195-.063-.457-.391-.719-.325Zm-66.93 17.559c.262-.066.457-.2.72-.328-.134-.195-.263-.457-.395-.524-.715-.324-1.434-.652-2.153-.847-.195-.067-.781.195-.781.39-.066.395 0 .98.262 1.11.457.261 1.043.199 1.172.199.652.062.914.062 1.175 0Zm-78.543 76.234c-.52-.394-.976-.914-1.566-1.175-.129-.067-.781.523-.91.914-.067.195.258.652.52 1.109.785-.39 1.37-.59 1.956-.848ZM49.875 257.234c-.063-.98.457-1.242 1.305-1.109v-.848c-.586-.066-1.434-.261-1.63 0-.39.457-.39 1.239-.523 1.891 0 .195.262.457.391.652.2-.129.457-.324.457-.586Zm1.828 4.438c0 .195.262.457.39.652.458-.652.915-1.304 1.305-2.023.067-.067-.52-.457-1.171-1.11-.262 1.11-.457 1.762-.524 2.48Zm8.742 8.812c-.133-.39-.523-.785-.847-1.046-.067-.063-.785.394-.785.656 0 .39.328.847.652 1.566.523-.656 1.043-1.047.98-1.176ZM74.078 148.56c-.652-.258-1.371-.391-2.086-.586 0 0-.133.261-.066.328.261.39.523.847.914 1.043.457.195 1.043.066 1.762.066-.262-.457-.329-.785-.524-.851Zm216.906 101.43c-.457.066-.914.327-1.37.523.261.39.456.976.78 1.11.262.128.786-.329 1.305-.653-.324-.524-.586-.98-.715-.98ZM98.41 314.343c-.062.195.39.59.653.847.39-.324.847-.52 1.042-.91.067-.133-.324-.59-.714-1.308-.457.652-.848.98-.98 1.37Zm-8.023-8.614c-.13-.394-.52-.785-.848-1.046-.066-.063-.781.394-.781.652 0 .394.324.851.652 1.566.52-.652 1.043-.976.977-1.172ZM75.449 135.113c.067-.195-.261-.457-.39-.652-.395.523-.786.98-1.176 1.504.262.062.457.195 1.11.39.128-.39.39-.785.456-1.242ZM52.094 249.074c-.13.395-.457.719-.39 1.11 0 .523.26 1.046.39 1.566a9.6 9.6 0 0 0 .586-1.172c-.196-.523-.39-.98-.586-1.504Zm21.593 39.293c-.195-.129-.39-.457-.585-.457-.395 0-.72.195-1.11.328.262.196.52.39.914.715.324-.258.52-.39.781-.586Zm194.333-7.504c.132-.199.261-.394.261-.59 0-.066-.195-.195-.261-.261-.13.195-.196.394-.325.59.13.062.262.128.325.261Zm-104.438-216.5c.129.13.258.262.39.39.13-.194.262-.323.391-.523 0-.062-.195-.195-.261-.257-.13.129-.325.257-.52.39Zm0 .39c-.2.067-.457.134-.652.263-.067.066.062.324.129.523.195-.133.324-.262.523-.394v-.391Zm-11.875.915c-.129.195-.262.39-.262.586 0 .066.196.2.262.262.133-.196.195-.391.328-.586-.133-.067-.262-.133-.328-.262Zm3.066 1.305c-.128-.13-.195-.262-.261-.262-.196.066-.39.195-.586.262.129.132.195.195.324.328.133-.067.328-.196.523-.328ZM301.551 216.44c-.13.13-.262.196-.262.262.066.195.195.39.262.586.133-.129.195-.195.328-.328a1.39 1.39 0 0 1-.328-.52Zm2.347-.59c.067.2.196.395.262.59.133-.132.262-.195.262-.261-.067-.196-.195-.39-.262-.586-.066.062-.262.195-.262.258Zm-212.14 92.36c.129-.2.262-.395.262-.59 0-.062-.196-.195-.262-.262-.133.2-.195.395-.328.59.132.063.261.13.328.262Zm1.762 6.133c.128-.196.261-.39.261-.586 0-.067-.199-.195-.261-.262-.133.195-.196.39-.329.586.133.066.262.2.329.262Zm216.773-162.258-.39.39c.195.13.324.262.519.391.066 0 .195-.195.262-.262-.13-.195-.262-.324-.391-.52Zm-.39 0c-.067-.195-.133-.457-.262-.652-.067-.067-.329.062-.524.129.133.195.262.328.395.523h.39ZM145.25 337.582c.066.195.195.39.262.586.129-.129.258-.195.258-.262-.063-.195-.196-.39-.258-.586-.067.067-.262.196-.262.262Zm0 0"/></g></svg>