<svg width="62" height="90" fill="none" xmlns="http://www.w3.org/2000/svg"><mask id="a" style="mask-type:luminance" maskUnits="userSpaceOnUse" x="0" y="0" width="62" height="90"><path d="M.746 0H62v90H.746V0Z" fill="#fff"/></mask><g mask="url(#a)"><path d="M59.936.09c-5.634.413-11.16 1.76-16.705 2.694-5.759.95-11.286 1.346-17.064.34a.797.797 0 0 0-.36.036c-.342.036-.683.162-.935.413-1.513 1.365-2.233 3.95-3.06 5.782a318.98 318.98 0 0 0-2.485 5.673c-1.745 4.04-3.419 8.116-5.13 12.173-1.674 4.004-3.258 8.044-4.914 12.066-1.674 4.057-3.528 8.025-5.112 12.118-.341.863.829 1.33 1.422.827 3.349.125 6.66-.288 10.008-.575a77.81 77.81 0 0 1 5.023-.252c.432-.017.9.018 1.386.054-1.495 2.119-2.88 4.327-4.32 6.482-2.107 3.16-4.249 6.284-6.265 9.516C7.502 73.703 3.83 80.13 1.093 87.007c-.522 1.329.45 2.245 1.567 2.37.684.485 1.602.682 2.556.252 8.19-3.68 14.417-10.917 20.394-17.363 6.57-7.091 13.896-13.43 20.574-20.432 4.086-4.29 7.524-8.959 11.196-13.59 1.134-1.437.414-3.304-1.44-3.484-6.426-.628-12.906-.431-19.368-.503 8.73-10.144 17.154-20.575 24.93-31.437.774-1.096-.251-2.82-1.566-2.73Zm-7.992 38.8c-2.286 2.926-4.932 5.637-7.452 8.276-3.456 3.61-7.092 7.056-10.764 10.45-3.438 3.16-6.859 6.302-10.062 9.695-3.042 3.214-5.995 6.5-9.199 9.552-2.285 2.19-4.68 4.202-7.272 5.943 2.34-4.901 5.112-9.624 7.867-14.31 1.44-2.441 2.825-4.92 4.176-7.397.125-.197.252-.377.377-.575 1.207-1.813 2.449-3.608 3.619-5.458.918-1.437 1.943-2.854 2.736-4.398.36-.342.558-.809.522-1.257v-.072a1.351 1.351 0 0 0-.414-.808c-1.224-1.274-3.15-1.005-4.807-.952-1.835.072-3.671.324-5.472.628a68.7 68.7 0 0 0-8.963 2.155c4.301-6.804 7.541-14.471 10.655-21.832 1.693-4.004 3.385-8.025 5.13-12.012a350.222 350.222 0 0 1 2.647-5.925c.792-1.741 2.088-3.627 2.34-5.547 4.554 1.705 10.026 1.238 14.687.664 4.573-.557 9.108-1.473 13.681-1.867-8.604 10.413-17.19 20.844-26.19 30.917-1.404 1.58-.415 3.95 1.691 4.076 6.787.449 13.645.197 20.467.053Z" fill="#252422"/></g></svg>