<svg width="148" height="80" fill="none" xmlns="http://www.w3.org/2000/svg"><mask id="a" style="mask-type:luminance" maskUnits="userSpaceOnUse" x="0" y="0" width="148" height="80"><path d="M.735 0H148v80H.735V0Z" fill="#fff"/></mask><g mask="url(#a)"><path d="M6.841 64.261c-.563-1.335-1.391-.208-2.132.06-.83.445.592.148.295 1.067-.087.505-.65.179-.977.268-.03-.297.149-.682-.414-.652-2.162.474-1.096-1.306-.237-.624.267.238.622.357.651-.089-.858-1.632.385-.475.652-1.305-1.244-.712.414 2.048-.325.356-1.155-1.602.947-1.276.65.06.149.74 1.066-.892 1.601-.179.177-.475-.446-.534-.446-.534-.443-1.157-1.331-.12-1.036-1.898 1.629.563 2.103-2.938 4.65-1.721.888-9.613-3.316-21.896-3.11-32.725-.325-3.114 1.658-5.697.622-8.514-1.6-.683-1.6-4.302-3.258-3.918 0-.89.771-1.72 1.48-2.195.417-.267 1.719.268 1.423-.8-.652-.832.652-.297.947-.624 1.007-1.424-.592-1.127-1.54-1.335.801-.119.534-.919.653-1.513.473.356 1.214-1.365 1.095-.297-.208.178.03.742-.533.653-.503.476 1.659 1.127.829.179-.207-1.068.978-1.009.919-1.662.119 0 .295-.03.325.03.267.534.533 2.046 1.423 1.216.03-.03.146.03.236.06-.266.653.948.326.681 1.007-.384 1.187 1.304.713 1.363 1.692 0 .356.533-.652.65.238.09.622.535-.03.83-.09 1.808.357 2.666-1.008 4.059-1.72 1.894-.682 3.582 1.542 5.568.92 3.287-.089 6.427-.624 9.98-.564 14.632-.654 32.936-2.314 47.3-1.989.476-2.135.652-.711 2.045-1.63.236.562 1.215 0 1.274.89.058.207.918.593 1.213.237.208-.149-.385-.802.356-.624.593.149.177-.444.474-.533.266-.09.474-.624.533.119 0 .087.238.206.355.206.533-.236.03-1.008.83-.92-.03.684 3.91.328 2.132 1.069.86.564.918-.652 1.837-.238.236-.593.917.564.917.089-.325.149.238.505 0 .09-.354-.623.327-2.582.741-1.631.03.444.03.978-.503 1.127.858.711.947-.178 2.251 1.068.918.475.533-1.751 1.274-.505.058.267.058.564.444.505 11.639-.773 24.109-.476 35.571-.565 1.007.475 2.341-.592 2.487-1.72.387 1.187 1.334.95 2.134 1.157.621-.89-.178-1.424.325-1.483.948-.178-.237 2.254.888 1.335.741-.119 1.926.03 2.015.267-.119-.237-.03-.772.149-.98.206-.652.592-.09.798.327.208.624.652-.979.86.089.563.683 2.339-.238.325 1.394.712.12 1.245.565 1.274 1.335-.77.86.177.476.207 1.157-1.243 1.187-1.659 6.083-2.606 2.019-.266 2.521-1.126 0-2.014.978-.386.416-2.369-1.365-2.104.624.119.503 2.015.206 1.009.979-1.126-.208-.682.948-.446 1.453.327 1.246-1.125 1.78-.266 2.879.948 1.038-.178.651-.267 1.511.208 4.065.593 7.864.622 12.017.563 2.73-.739 20.797 3.969 15.605.03.327-.03.713.149.92.77.445-1.51.505.148 1.275-1.807.297 2.132 2.583-.445 1.484-.355-.03-1.362 1.07-1.481 1.394-.503.178-1.036-.592-.977.386.03.476-.711.89-.029 1.425.206.86-1.363 2.313-.327 3.56.238.772-2.013 2.58-2.576 2.788-.711.149-1.185-.949-1.867-.622-.622.444-1.066 3.44 0 3.649.03 0 .179.356.119.416-.325.681-.828 2.343.238 2.64-.357.238.176 1.097-.386 1.216-1.481.149-.177 2.76-1.392 2.017-2.191 1.305-1.244-.444-3.376-1.276.119-1.394-1.866.149-.949.268.416.059.208.415.267.653-.178.325-.503-.95-.711.09 0 .473-1.894.978-1.51 0 1.363-.892 1.718-2.346 2.459-3.651-.505-.385-.652.624-.889-.09-.236-.384.473-.295.651-.532-.207-1.187-1.717.592-2.369-.386-.622-.446.711-.741.414-1.425.592-.148.148.95.771.89.414 0 .118-.474.208-.741 0-.624 1.066-.624-.03-1.157-.03-.594.769-.505.355-1.662.089-2.284-7.671-1.335-9.27-1.305-3.259.148-6.517-.475-9.685 0-1.156-.475-2.637-.09-3.94.238-1.747.386-3.643-.89-5.45.089-3.999.414-8.618-.505-12.232 1.127-.858.178-3.85-1.514-3.999.237-.206.563-1.866-.564-1.924.208.236.355.593.682.947.89-.414.535-1.747-.327-1.658.681-.83 0 .533-1.482-.741-1.157 1.274-.503-.03-1.097-.236-.237.503.653.355 1.394-.563 1.218-3.17-.12-1.185.325-.711-1.1 1.274-.562.06-1.334-.414-.235-1.215 1.186.325-1.365-.979-.387-.09.771-.325 1.722-1.244 1.068-2.368-.622-5.715-.475-8.529 0-.8 1.514 2.31-.534 1.243 1.038-.444.743-1.865.535-1.243 1.603.147 3.056.236 6.526.503 9.761.177 1.75 1.954 7.032-1.392 5.548-2.043-4.153-.829-9.731-2.251-14.271-.415-6.824-1.807-3.47-7.552-4.3-2.992 1.838 2.517 9.55-2.25 9.107-2.46-10.532 2.664-8.367-10.752-8.456-.652-.357-.8.505-1.274.446-1.304-.505-.593.86-2.489.208-1.096-.06.563.8-.355 1.245-.327-.534-.977-.03-1.333-.356-1.007-1.157-2.428 2.61-2.221.238.03-.179-.296.118-.03.178 1.096-.416-.266-.03-.414-.119-.682-2.76-10.1.592-12.854.77-1.334-.029-2.637.357-3.94.12-.178 1.038-.681.386-1.095.237-.83-.208-1.066 1.187-1.986.503-.828-.889-.887.773-1.866.357-.947-.8-.474.624-1.51.445.444-.237-.682-.356 0 0-.77 1.484-.295-1.72-1.155-.889-.799.89-1.865-1.1-2.162.444 0 .06-.414.03-.593.119-.354.267-.354.831.12.416.324 0 .828.71.947-.268.533-.178 1.482-.386 1.866.268.03.444-2.162.948-1.48 1.453.503.95-1.304 1.246-1.215-.207-.297 1.84-.949-.238-1.185 1.038.03.386-.03.594-.503.594-.89-.09 0-.416-.297-1.187.06-.119-.06-.06-.177.03.177.295.414.03.62-.03-1.687-.089-.65 1.008-1.51.86-.651-.03-.413-.238-.148-.505-.563-.414-.236-.979-.325-1.484 1.155-.206.888-1.335 2.31.179-1.066-1.454-.8.802.179.802-.297-.416.325-3.77-.83-2.464.83.772-.533.445-.918.505-1.038-.208-.503 1.305-1.363 1.78-1.807 1.365-.888-1.097.267-1.305-1.214-.297.77-.95.355-1.87 0-.326.829.327.474-.267-.266.297-.06.624.03.98 0-.148.059-.267-.06-.713ZM82.96 53.076c-.533.119-.474-.622-.652-.979 1.155.979 0-1.127.949-.533.03.444.176.89.651 1.187 11.432-.773 24.169-1.484 35.897-2.938 14.542.979 6.842-5.37 7.167-17.682-1.125-4.778.712-9.762-1.006-14.212.384-.83 1.244-2.818.059-3.293 1.125-.208 1.155-1.275.741-2.195-.83 1.928-.059-1.394-3.763-.178 1.956.03.268 2.344-.533 1.424-.236-.356.149-.208.268-.267.354-.149.325-.565.118-.594-3.021-1.573-1.038.416-2.399-.444-.741-.832-.444.325-1.066.681-1.363-2.224-5.302.03-7.819-.651-1.512.622.947 4.034-1.274 4.627-2.162-.297-.652-4.184-2.281-4.598-4.353.118-8.53.028-12.883.623-5.954.148-11.73.237-17.388.564-.739 1.275-1.775-.743-3.079.681-1.54-.651-1.896 1.098-3.081.12-1.629 1.631-.888-.92-2.695.415-.355.208-.414.238-.444-.178-.74-.416-2.548-.594-3.406.297-.681.148-.8-1.187-1.42-.475-1.01.505-1.453-.741-1.778 1.008-.446 1.543-1.096-.77-2.104-.474-1.688-.297-4.354 1.187-5.152.355-.446.06-.179.802-.771.446-6.339-.357-12.648.534-18.985 1.246-1.452.564-3.554-.623-4.502.86-2.28.148-6.901-1.453-8.145 1.158-.623 6.824-3.14 35.75-1.986 38.509 2.667 3.353 40.252-2.492 51.685-3.205.355 0 .711 0 .236-.444.89-.772.533-1.097 1.482-.327.622-.534.355.208.474.327 1.214.652.444-1.067 1.628-.534-.798-1.038.297 1.275-.354-.327-.268-1.038 1.331-.622 1.45.237-.236-.354-.799-.267-.652.06.712.148 1.542-1.78 1.63-.593.415 1.809.207-.119 1.362.623 1.334-.504 1.393 1.661 2.162-.03 1.007-1.454-1.244 0-.384-1.098 2.191-2.492 0 .979 1.718.771-1.156.683.414 1.129.533-.295-.563.74.592-.268-.208.325ZM15.58 23.942c-.15-1.573.798-7.359-1.601-5.43.74.712-.563.298-.68.741-1.423 7.953-.357 16.972-.03 24.123 2.99 4.864 1.835-17.358 2.31-19.434Zm105.083 31.122c1.363.505 11.552-1.216 6.309-1.661-4.65-.06-8.855.802-13.121 1.335.386 1.87 4.977-.357 6.812.326ZM40.399 62.57c-.089-.177-.148-.385-.208-.563-.237.327-.119.652 0 .979l.208-.416Zm-29.145 3.383c-.563.208.119.505.386.178-.149-.06-.297-.119-.386-.178Zm72.742-5.816c.06.12.148.297.208.12-.03-.15-.06-.298-.208-.12Zm6.28-53.848c.118.178.178.03.207-.119-.06-.148-.148 0-.208.119ZM7.611 67.199c-.06-.12-.149-.297-.208-.12.03.15.06.298.208.12Zm135.206-56.37c.06.119.149.295.208.119-.03-.149-.089-.297-.208-.12ZM2.014 6.616c.592-.475-.178-.921-.09-1.484-.207.446-.177 1.127-.8.95-.917.059.504.801.298 1.394.089.742 1.036.594 1.628.594-.267-1.514-1.955-.684-1.036-1.454Zm.385 3.144c-.326.059-.444.623-.355.95 2.191-.178 3.08-1.068.355-.95Zm4.147-3.59c-.682.09-1.066.505-.89 1.246 1.155.238 1.896-.386.89-1.246Zm127.712 64.826c.593-.356-.769-.77-1.066-1.038-.119.86.178 1.692 1.066 1.038ZM4.56 8.07c-.562 1.335 1.689.71 1.096-.654-.444.06-.384.979-1.096.654ZM145.93 9.73c-.83 1.07-.238 1.632.888.891-.533-.327-.712-.267-.888-.891Zm-10.486 59.782c1.066-.089.682-.562-.176-.83-.446.12-.298 1.217.176.83ZM3.346 57.705c.711-.386-.117-.654-.563-1.009-.147.563-.147 1.246.563 1.009ZM2.22 8.425c-.592-.058-.977.801-.739 1.247.888-.178.71-.535.74-1.248Zm2.104 57.914c-.089-.624-.386-.772-.71-.149.148.8.413.86.71.149ZM2.37 4.924c.03.505.888 1.157 1.036.386-.295-.059-.799-.623-1.036-.386Zm125.285 62.304c.119.535.741 1.187.947.268-.266-.119-.739-.802-.947-.268ZM4.057 61.264c-.06.773.622.268.947.416.268-.681-.739-1.008-.947-.416ZM139.412 3.916c-.769.148.059 1.246.83.77-.416-.414-.86-.088-.83-.77Zm-9.507 65.242c-.06.77.652.057 1.036-.09-.206-.742-.652-.118-1.036.09ZM85.714 4.154c-.325.354.327 1.72.563.919-.147-.297-.325-.654-.563-.92Zm42.976 61.205c-.295.594-.119 1.099.563.95.771.03-.503-.594-.563-.95Zm6.487 4.272c-.473.208-1.095.149-1.333.654.592-.03 1.54.237 1.333-.654Zm4.621-66.339c.296.06.503.208.65.505.949 0-.206-1.543-.65-.505ZM2.872 13.024c.357-.386-.295-.711-.444-1.038-.8.267.208.652.444 1.038ZM141.278 47.44c.474.177.593-.683.385-.95-.236.178-.739.772-.385.95Zm-13.269 13.321c-.088.444.059 1.838.208.77-.03-.296.178-.68-.208-.77Zm14.276-8.664c-.355.297.444 1.395.563.564l-.563-.564ZM3.14 14.36c-.474.208-.534.327-.179.8.563-.295.355-.384.179-.8Zm9.832-6.17c.327.089.622.325.919.059-.386-.505-.533-.535-.92-.06ZM7.019 4.034c.03.563.325.237.593-.06-.12-.356-.444-.06-.593.06Zm133.104.384c.504-.03.266-.414.325-.652-.709.03-.444.149-.325.652Zm3.642 7.121c.327.268.505.119.741-.178-.295-.533-.444-.06-.741.178Zm-13.208 59.248c-.327-.236-.652-.119-.977 0 .117.06.265.149.444.208.148-.06.325-.148.533-.208ZM12.825 67.91c.206-.266-.03-.444-.208-.682-.622.297-.06.387.208.682ZM4.945 5.962c-.236-.355-1.096-.237-.77.208a7.95 7.95 0 0 0 .77-.208Zm82.221-1.246c.206-.267-.03-.444-.208-.681-.622.267-.06.384.208.681Zm54.053 8.605c.325-.357.238-1.216-.178-.505.089.208.119.356.178.505Zm1.215-.713c.148.356.265.535.681.297-.237-.208-.503-.77-.681-.297Zm-1.867 40.765c.444.178.385-.327.533-.622-.414-.12-.414.295-.533.622Zm-2.873-49.22c-.266.296-.828.385-.206.652.176-.178.444-.356.206-.651ZM126.913 61.68c.208.208.356.476.681.178-.265-.178-.651-.683-.681-.178Zm16.143-57.913c.147-.03.295-.148.355-.178.297-.919-.888 0-.355.178ZM3.849 15.012c.622-.119.386-.297 0-.653-.147.208-.206.534 0 .653Zm7.791 53.284c.206.208.384.475.68.149-.266-.208-.533-.593-.68-.149Zm-6.28-3.708c.03.564.326.238.593-.06-.119-.356-.445-.059-.592.06Zm135.918-11.837c.533.089.623-.297.296-.802-.147.297-.65.594-.296.802ZM92.556 3.708c.03.564.327.238.592-.06-.089-.356-.414-.059-.592.06ZM80.027 63.402c.178.148.475.414.593.059-.266-.297-.563-.624-.593-.06Zm63.71-16.794c-.118-.06-.267-.118-.445-.208-.947.327-.089.476.445.208Zm-1.155 5.49c.266-.328.117-.504-.178-.742-.533.296-.03.444.178.741Zm-14.098 10.266c-.386.059-.208.414-.238.651.414-.178.858-.416.238-.651Zm-125.79-.446c.06.416.148.475.386.06-.119-.238-.267-.387-.386-.06Zm129.846 8.278c.06.414.149.473.386.059-.148-.238-.297-.386-.386-.06ZM4.027 10.383c.208.416.297.357.8.208-.415-.178-.473-.237-.8-.208ZM90.72 4.776c.238-.238.119-.416.03-.712-.266.266-.147.415-.03.712Zm5.184.772c.089.325.326.177.592.147-.119-.385-.295-.206-.592-.147Zm47.537-2.581c.179.295.918-.06.325-.208-.087.06-.206.119-.325.208Zm-2.516.8c-.297.179.057.92.206.327-.06-.089-.119-.208-.206-.327ZM.918 8.781c-.327.238-.178.713.177.445-.09-.267-.117-.356-.177-.445ZM128.72 61.028c.178-.089.059-.207 0-.326-.178.089-.06.178 0 .326Zm14.039-7.447c.089.178.208.06.326 0-.089-.178-.178-.06-.326 0ZM98.243 5.873c.06.149.089.297.208.119-.06-.149-.149-.297-.208-.119Zm-94.927 55.6s-.06-.06-.087-.12c-.357.179-.03.476.087.12Zm137.37-8.99c-.208 0-.208.12-.059.238.208.09.118-.09.059-.238Zm-62.258 9.968c0 .208.119.208.238.06.059-.237-.12-.148-.238-.06ZM3.968 6.972c-.06-.148-.09-.297-.206-.119.03.149.117.296.206.12Zm123.834 55.776c-.208 0-.208.119-.059.238.208.059.119-.12.059-.238ZM89.506 4.657c-.06-.149-.089-.297-.208-.119.06.149.149.297.208.119ZM14.513 8.188c-.089-.178-.148-.03-.208.12.119.176.178.029.208-.12ZM3.316 7.535s-.06-.06-.087-.119c-.357.178-.03.475.087.119Zm.149 7.773c.059-.09.148-.177.208-.266-.268-.03-.387-.03-.208.266Zm-1.362-2.492c0 .208.117.208.236.06.06-.238-.119-.15-.236-.06Zm4.53-4.954s-.058-.06-.087-.12c-.357.18-.06.476.087.12ZM4.087 11.48c0 .208.119.208.237.06.058-.209-.118-.12-.237-.06Zm-1.57.237c.177-.089.06-.207 0-.326-.148.089-.06.178 0 .326ZM15.52 66.101c-.09-.178-.149-.03-.208.12.119.177.148.029.208-.12ZM4.65 11.184s-.06-.06-.09-.117c-.354.146-.059.473.09.117ZM128.868 67.11s-.059-.06-.089-.12c-.355.15-.059.476.089.12ZM1.776 10.829c0 .208.12.208.238.06.06-.238-.119-.15-.238-.06Zm143.531-.683c-.208 0-.208.118-.06.237.236.06.149-.118.06-.237ZM3.229 8.366s.057-.059.117-.088c-.177-.357-.474-.03-.117.089ZM142.166 3.56c.06.149.089.298.208.12-.059-.15-.119-.327-.208-.12Zm-126.41 6.498c.178-.09.06-.208 0-.327-.177.089-.09.208 0 .327Zm-1.57 59.337c-.089-.179-.148-.03-.207.118.118.179.178.03.207-.118ZM6.07 8.188c0 .207.12.207.238.06.06-.238-.119-.149-.238-.06ZM4.65 9.524s-.06-.06-.09-.12c-.354.179-.059.474.09.12Zm-.563-.684c0 .208.119.208.237.06.058-.238-.118-.149-.237-.06Zm-1.334 0c.06.149.09.297.208.12-.06-.15-.119-.298-.208-.12ZM131.831 71.74s-.06-.06-.089-.12c-.357.179-.03.474.089.12Zm-.533.295c0 .208.117.208.236.06.059-.207-.119-.12-.236-.06ZM71.409 53.818c-.326-.534-.473-.948-.949-.297.298.149.8.83.95.297Zm50.558-38.865c.297.384.297.503.83.119-.386-.297-.503-.535-.83-.12ZM68.328 52.81c-.178.414-.888.741-.178 1.008.208-.356.386-.623.178-1.008ZM22.45 40.17c-.414.327-.176.446.12.83.385-.532.266-.532-.12-.83ZM123.33 14.15c.355.239.474.743.977.387-.355-.178-.592-.653-.977-.386ZM69.454 54.027c.03.149.148.297.178.355.918.297-.03-.89-.178-.355Zm3.436-2.285c-.238.326-.12.653 0 .98.06-.119.148-.267.208-.446-.06-.148-.12-.326-.208-.534Zm52.246-39.311c-.326.237-.207.713.178.445-.089-.267-.119-.356-.178-.445ZM83.938 52.216s-.06-.06-.089-.119c-.356.178-.06.475.09.119Zm-24.703-36.64c.09.177.149.029.208-.12-.089-.178-.148-.03-.208.12Zm66.939-1.988c-.06-.148-.09-.297-.208-.119.059.149.148.297.208.12Zm19.547-10.236c-.414.237-.563.237-.238.802.357-.327.593-.416.238-.802Zm.622 1.453c-.267.327-.8.387-.503.92.206-.325.739-.504.503-.92Zm1.48 2.019c-.206-.357-.68-.268-.444.119.268-.06.355-.09.444-.12Zm-1.272.89c.147-.03.295-.06.117-.209-.117.06-.295.12-.117.208ZM139.087.265c-.03-.029-.119.03-.149.059-.265.624.355 1.04.355 1.602 0 .03.208.09.297.06s.149-.178.266-.327c-.474-.325-.177-1.097-.769-1.394Zm3.228.356c.03-.356-.119-.563-.474-.592-.355-.03-.563.118-.592.503-.03.356.119.564.562.594.238.03.474-.119.504-.505Zm-4.798.475c0-.148-.089-.416-.178-.445-.267-.09-.444.06-.444.386 0 .238-.059.505.266.592.297-.028.356-.265.356-.533Zm-1.333 2.106c.059.178.178.327.385.238.237-.12.297-.357.207-.593-.059-.178-.178-.297-.384-.267-.238.178-.297.386-.208.622Z" fill="#252422"/></g></svg>