<svg width="27" height="60" viewBox="0 0 27 60" fill="none" xmlns="http://www.w3.org/2000/svg">
<path d="M11.0605 47.8631C9.38563 46.2576 7.79879 44.6786 6.14459 43.1702C5.04601 42.168 3.74599 41.4855 2.19651 41.5456C1.68558 41.5655 1.12928 41.7055 0.688385 41.9553C-0.186743 42.4521 -0.215424 43.1405 0.533636 43.8071C0.856474 44.0945 1.20666 44.3529 1.55351 44.6125C5.63099 47.6688 8.63057 51.629 11.2213 55.9359C11.5941 56.5563 12.0304 57.1397 12.4286 57.7455C12.546 57.9239 12.6647 58.1116 12.7301 58.3124C13.2737 59.9965 14.9259 60.5138 16.3433 59.4362C16.9069 59.0088 17.0884 58.3956 17.1751 57.7416C17.5799 54.7143 18.3397 51.7836 19.6444 49.0113C20.5829 47.0167 21.8602 45.2732 23.6658 43.9399C24.3622 43.4266 25.0219 42.861 25.6802 42.2981C26.4459 41.6434 26.552 40.6332 25.9704 39.8113C25.1699 38.6809 23.6705 38.4246 22.5245 39.2247C20.3187 40.7654 18.5465 42.7322 16.9296 44.851C16.7782 45.0499 16.6368 45.256 16.4667 45.4906C16.4667 44.7638 16.44 44.0952 16.4707 43.4279C16.9449 33.1616 17.067 22.89 16.997 12.6144C16.9796 10.0265 17.057 7.43797 17.047 4.85008C17.0423 3.60602 16.8349 2.37979 16.1125 1.32072C15.843 0.925633 15.4942 0.545081 15.098 0.280809C14.3096 -0.245754 13.5178 -0.01848 13.1563 0.850976C12.9362 1.38216 12.8088 1.98074 12.7794 2.55619C12.676 4.61157 12.622 6.6696 12.5673 8.72762C12.4686 12.4122 12.4059 16.0982 12.2845 19.7821C12.1291 24.4849 11.9303 29.1856 11.7495 33.8864C11.6582 36.276 11.5841 38.6664 11.4667 41.0547C11.354 43.3414 11.1959 45.6247 11.0598 47.8624L11.0605 47.8631Z" fill="#C86804"/>
</svg>
