<svg width="27" height="60" viewBox="0 0 27 60" fill="none" xmlns="http://www.w3.org/2000/svg">
<path d="M15.2809 12.1369C16.9558 13.7424 18.5427 15.3214 20.1969 16.8298C21.2954 17.832 22.5955 18.5145 24.1449 18.4544C24.6559 18.4345 25.2122 18.2945 25.6531 18.0447C26.5282 17.5479 26.5569 16.8595 25.8078 16.1929C25.485 15.9055 25.1348 15.6471 24.788 15.3875C20.7105 12.3312 17.7109 8.37105 15.1202 4.06407C14.7473 3.44369 14.3111 2.86031 13.9129 2.25446C13.7955 2.07608 13.6768 1.88845 13.6114 1.6876C13.0678 0.00352097 11.4156 -0.51379 9.99817 0.563782C9.43454 0.991241 9.25311 1.60435 9.1664 2.25843C8.76152 5.28567 8.00178 8.21645 6.6971 10.9887C5.7586 12.9833 4.48126 14.7268 2.67565 16.0601C1.97928 16.5734 1.3196 17.139 0.661254 17.7019C-0.104482 18.3566 -0.210538 19.3668 0.371101 20.1887C1.17152 21.3191 2.67098 21.5754 3.81692 20.7753C6.02274 19.2346 7.79501 17.2678 9.41186 15.149C9.56327 14.9501 9.70468 14.744 9.87477 14.5094C9.87477 15.2362 9.90145 15.9048 9.87077 16.5721C9.39652 26.8384 9.27445 37.11 9.34449 47.3856C9.36183 49.9735 9.28446 52.562 9.29447 55.1499C9.29913 56.394 9.50658 57.6202 10.229 58.6793C10.4984 59.0744 10.8473 59.4549 11.2435 59.7192C12.0319 60.2458 12.8237 60.0185 13.1852 59.149C13.4053 58.6178 13.5327 58.0193 13.562 57.4438C13.6654 55.3884 13.7195 53.3304 13.7742 51.2724C13.8729 47.5878 13.9356 43.9018 14.057 40.2179C14.2124 35.5151 14.4112 30.8144 14.5919 26.1136C14.6833 23.724 14.7573 21.3336 14.8747 18.9453C14.9875 16.6586 15.1455 14.3753 15.2816 12.1376L15.2809 12.1369Z" fill="#C86804"/>
</svg>
